{"glyphs":{"0":{"ha":939,"x_min":0,"x_max":0,"o":"m 474 1056 b 890 522 685 1056 890 835 b 474 -14 890 210 685 -14 b 50 522 263 -14 50 210 b 474 1056 50 835 263 1056 m 474 1051 b 54 522 265 1051 54 832 b 474 -10 54 213 265 -10 b 886 522 682 -10 886 213 b 474 1051 886 832 682 1051 m 474 1043 b 700 522 597 1043 700 890 b 474 -1 700 176 624 -1 b 242 522 322 -1 242 183 b 474 1043 242 890 349 1043 m 474 1039 b 246 522 351 1039 246 890 b 474 4 246 156 338 4 b 696 522 621 4 696 179 b 474 1039 696 890 594 1039 "},"1":{"ha":451,"x_min":0,"x_max":0,"o":"m 36 11 b 142 347 132 26 142 43 l 142 642 b 35 847 142 849 138 854 l 35 863 l 324 1068 l 324 347 b 422 11 324 42 328 26 l 422 -3 l 38 -3 m 418 3 l 418 8 b 319 347 324 24 319 46 l 319 1060 l 39 860 l 39 853 b 146 642 142 858 146 844 l 146 347 b 40 8 146 46 135 24 l 42 3 "},"2":{"ha":735,"x_min":0,"x_max":0,"o":"m 365 156 b 701 235 653 156 671 163 l 718 235 l 668 53 b 625 -3 656 7 653 -3 l 1 -3 l 274 319 b 490 788 433 506 490 626 b 328 1039 490 961 438 1039 b 200 883 213 1039 213 964 b 114 799 194 829 163 799 b 35 881 68 799 35 833 b 329 1056 35 960 129 1056 b 682 778 464 1056 682 993 b 358 313 682 603 543 457 l 157 156 l 365 156 m 146 151 l 356 315 b 678 778 540 460 678 606 b 329 1051 678 990 464 1051 b 39 881 132 1051 39 957 b 114 803 39 836 71 803 b 197 883 160 803 190 831 b 328 1043 208 964 208 1043 b 494 788 440 1043 494 963 b 276 317 494 624 436 501 l 10 3 l 625 3 b 665 53 650 3 653 7 l 713 231 l 704 231 b 365 151 674 160 650 151 "},"3":{"ha":786,"x_min":0,"x_max":0,"o":"m 319 4 b 551 347 490 4 551 154 b 407 642 551 515 528 642 b 206 551 303 642 261 603 l 199 560 l 544 894 l 369 894 b 67 810 103 894 93 881 l 54 810 l 101 997 b 133 1042 111 1038 113 1042 l 703 1042 l 703 1031 l 282 625 b 407 654 314 642 353 654 b 735 346 579 654 735 561 b 319 -8 735 146 586 -8 b 28 176 138 -8 28 89 b 103 250 28 215 57 250 b 188 175 154 250 182 225 b 319 4 194 117 193 4 "},"4":{"ha":872,"x_min":0,"x_max":0,"o":"m 671 253 b 743 10 671 43 685 24 l 743 0 l 421 0 l 421 10 b 493 253 479 24 493 43 l 14 253 l 14 265 l 614 1050 l 671 1050 l 671 368 l 846 368 l 792 253 l 671 253 m 493 869 l 110 368 l 493 368 "},"5":{"ha":786,"x_min":0,"x_max":0,"o":"m 115 596 b 357 674 172 642 263 674 b 725 357 546 674 725 578 b 314 -12 725 135 543 -12 b 17 169 144 -12 17 68 b 92 240 17 213 51 240 b 171 169 138 240 167 213 b 314 0 178 90 167 0 b 542 358 468 0 542 164 b 357 661 542 538 486 661 b 108 576 251 661 158 622 l 100 583 l 217 1042 l 706 1042 l 668 929 b 638 899 658 901 658 899 l 193 899 "},"6":{"ha":885,"x_min":0,"x_max":0,"o":"m 517 1039 b 246 636 356 1039 267 897 b 456 719 300 685 372 719 b 842 368 660 719 842 592 b 468 -11 842 124 628 -11 b 54 508 290 -11 54 158 b 517 1051 54 840 304 1051 b 794 908 696 1051 794 982 b 724 839 794 865 763 839 b 640 915 681 839 647 860 b 517 1039 629 1008 610 1039 m 240 508 b 468 1 240 158 336 1 b 658 368 607 1 658 128 b 454 707 658 628 558 707 b 244 618 371 707 299 669 b 240 508 242 583 240 546 "},"7":{"ha":722,"x_min":0,"x_max":0,"o":"m 269 0 l 628 896 l 276 896 b 38 824 76 896 67 882 l 28 824 l 76 1001 b 111 1042 86 1033 88 1042 l 697 1042 l 697 1031 l 285 0 "},"8":{"ha":808,"x_min":0,"x_max":0,"o":"m 764 286 b 410 -17 764 114 599 -15 b 42 239 200 -17 42 104 b 294 514 42 374 156 458 b 85 793 153 594 85 671 b 407 1058 85 967 253 1058 b 724 831 601 1058 724 953 b 513 603 724 721 618 644 b 764 286 667 514 764 426 m 760 286 b 504 603 760 426 661 514 b 719 831 610 644 719 721 b 407 1054 719 950 599 1054 b 89 793 253 1054 89 964 b 303 514 89 671 158 594 b 46 239 132 446 46 356 b 410 -12 46 107 203 -12 b 760 286 596 -12 760 117 m 444 635 b 210 876 301 711 210 768 b 407 1046 210 988 275 1046 b 606 828 535 1046 606 969 b 494 607 606 703 563 644 m 494 613 b 601 828 560 650 601 706 b 407 1042 601 965 533 1042 b 214 876 278 1042 214 985 b 447 638 214 771 304 714 l 494 613 m 410 -4 b 179 250 254 -4 179 79 b 311 508 179 381 219 461 l 376 472 b 625 185 532 390 625 332 b 410 -4 625 54 557 -4 m 410 1 b 621 185 569 1 621 69 b 374 469 621 329 529 388 l 311 503 b 183 250 231 460 183 389 b 410 1 183 82 256 1 "},"9":{"ha":883,"x_min":0,"x_max":0,"o":"m 371 1 b 642 410 564 1 631 146 b 422 321 588 360 511 321 b 43 674 224 321 43 435 b 417 1049 43 918 260 1049 b 831 533 617 1049 831 878 b 371 -11 831 211 631 -11 b 86 136 193 -11 86 58 b 156 207 86 175 113 207 b 239 132 204 207 233 186 b 371 1 250 43 260 1 m 226 678 b 424 333 226 451 275 333 b 643 426 513 333 589 375 b 644 533 644 461 644 496 b 417 1036 644 894 542 1036 b 226 678 300 1036 226 924 "}," ":{"ha":256,"x_min":0,"x_max":0,"o":""},"!":{"ha":333,"x_min":0,"x_max":0,"o":"m 160 297 b 65 942 131 700 65 853 b 167 1053 65 1013 101 1053 b 268 942 232 1053 268 1013 b 174 297 268 853 203 700 l 160 297 m 168 -19 b 74 74 114 -19 74 19 b 168 168 74 129 114 168 b 261 74 222 168 261 129 b 168 -19 261 19 222 -19 "},"\"":{"ha":461,"x_min":0,"x_max":0,"o":"m 124 724 b 50 979 104 818 50 921 b 129 1060 50 1028 75 1060 b 208 979 183 1060 208 1028 b 135 724 208 921 150 818 l 124 724 m 325 724 b 253 979 310 818 253 921 b 332 1060 253 1028 278 1060 b 411 979 386 1060 411 1028 b 338 724 411 921 353 818 l 325 724 "},"#":{"ha":643,"x_min":0,"x_max":0,"o":"m 183 389 l 242 722 l 85 722 l 85 739 l 244 739 l 297 1042 l 317 1042 l 264 739 l 449 739 l 501 1042 l 521 1042 l 468 739 l 628 739 l 628 722 l 465 722 l 407 389 l 567 389 l 567 372 l 404 372 l 340 1 l 321 1 l 385 372 l 200 372 l 136 1 l 117 1 l 181 372 l 24 372 l 24 389 m 446 722 l 261 722 l 203 389 l 388 389 "},"$":{"ha":696,"x_min":0,"x_max":0,"o":"m 294 1050 b 332 1051 307 1051 319 1051 b 385 1050 350 1051 368 1051 l 385 1160 l 403 1160 l 403 1047 b 639 893 553 1032 639 965 b 578 831 639 856 613 831 b 494 917 529 831 504 863 b 403 1033 483 971 485 1018 l 403 629 b 675 299 563 551 675 463 b 403 -6 675 139 568 17 l 403 -132 l 385 -132 l 385 -7 b 350 -8 374 -8 363 -8 b 294 -6 329 -8 313 -7 l 294 -132 l 276 -132 l 276 -4 b 7 179 115 11 7 88 b 79 249 7 224 36 249 b 154 174 122 249 147 224 b 276 8 169 79 178 24 l 276 486 b 29 785 125 560 29 640 b 276 1047 29 932 136 1029 l 276 1160 l 294 1160 m 385 1036 b 332 1039 369 1038 353 1039 b 294 1036 319 1039 307 1038 l 294 681 l 382 639 l 385 638 m 132 874 b 276 690 132 783 182 739 l 276 1033 b 132 874 188 1017 132 961 m 350 3 b 385 4 363 3 374 3 l 385 435 l 300 475 l 294 478 l 294 6 b 350 3 311 4 329 3 m 563 215 b 403 425 563 303 521 360 l 403 7 b 563 215 513 28 563 111 "},"%":{"ha":1032,"x_min":0,"x_max":0,"o":"m 268 526 b 32 789 153 526 32 628 b 268 1050 32 950 153 1050 b 504 789 381 1050 504 950 b 268 526 504 628 381 526 m 846 1047 l 863 1036 l 181 -3 l 164 8 m 268 539 b 383 789 322 539 383 606 b 268 1038 383 972 322 1038 b 154 789 214 1038 154 972 b 268 539 154 606 214 539 m 763 -8 b 526 254 647 -8 526 93 b 763 515 526 415 647 515 b 1000 254 874 515 1000 415 b 763 -8 1000 93 874 -8 m 763 4 b 878 254 817 4 878 71 b 763 503 878 438 817 503 b 649 254 708 503 649 438 b 763 4 649 71 708 4 "},"&":{"ha":1050,"x_min":0,"x_max":0,"o":"m 219 826 b 490 1058 219 960 351 1058 b 718 872 606 1058 718 985 b 492 635 718 742 572 671 l 504 618 l 743 321 b 763 296 750 311 757 306 l 836 454 b 828 639 894 583 910 621 l 828 647 l 1031 647 l 1031 639 b 850 450 960 621 921 610 l 772 283 b 1039 10 943 72 988 25 l 1039 0 l 797 0 l 688 136 b 399 -14 614 42 515 -14 b 36 268 183 -14 36 97 b 324 590 36 458 217 542 b 219 826 250 683 219 744 m 363 896 b 483 643 363 789 428 714 b 608 869 538 679 608 740 b 490 1046 608 997 549 1046 b 363 896 403 1046 363 978 m 217 274 b 400 -1 217 101 276 -1 b 679 147 511 -1 607 53 l 382 518 b 331 581 361 540 346 560 b 217 274 269 540 217 449 "},"'":{"ha":258,"x_min":0,"x_max":0,"o":"m 124 724 b 50 979 104 818 50 921 b 129 1060 50 1028 75 1060 b 208 979 183 1060 208 1028 b 135 724 208 921 150 818 l 124 724 "},"(":{"ha":436,"x_min":0,"x_max":0,"o":"m 415 -147 b 71 481 296 -54 71 156 b 415 1106 71 807 296 1013 l 424 1097 b 222 481 350 1035 222 833 b 424 -139 222 125 350 -74 l 415 -147 "},")":{"ha":436,"x_min":0,"x_max":0,"o":"m 14 -139 b 214 481 85 -72 214 125 b 14 1097 214 833 85 1033 l 21 1106 b 367 481 143 1013 367 807 b 21 -147 367 157 143 -54 l 14 -139 "},"*":{"ha":433,"x_min":0,"x_max":0,"o":"m 254 721 b 217 678 254 693 239 678 b 179 721 192 678 179 692 b 214 860 179 756 204 804 b 138 735 176 814 164 758 b 81 732 119 714 96 715 b 83 789 63 750 63 769 b 210 863 110 813 164 829 b 69 828 150 853 104 828 b 28 865 42 828 28 840 b 69 903 28 890 42 903 b 210 867 104 903 154 876 b 86 942 165 904 111 917 b 82 1000 65 963 65 983 b 139 996 99 1015 118 1017 b 214 869 163 972 181 918 b 179 1010 204 929 179 976 b 217 1053 179 1039 192 1053 b 254 1010 239 1053 254 1038 b 219 869 254 976 229 926 b 293 996 253 918 269 969 b 350 999 313 1015 332 1017 b 347 942 367 983 368 963 b 224 867 321 915 269 904 b 363 903 281 876 328 903 b 406 865 392 903 406 890 b 363 828 406 840 392 828 b 224 863 328 828 281 853 b 349 789 269 829 322 815 b 353 732 369 768 371 750 b 294 735 336 715 313 714 b 219 860 268 761 254 814 b 254 721 229 800 254 756 "},"+":{"ha":654,"x_min":0,"x_max":0,"o":"m 318 479 l 63 479 l 63 496 l 318 496 l 318 756 l 338 756 l 338 496 l 592 496 l 592 479 l 338 479 l 338 221 l 318 221 "},",":{"ha":313,"x_min":0,"x_max":0,"o":"m 203 26 b 138 -4 192 8 175 -4 b 57 79 94 -4 57 31 b 144 168 57 133 100 168 b 253 40 200 168 253 129 b 88 -162 253 -64 182 -129 l 82 -154 b 215 -11 167 -121 215 -72 b 203 26 215 6 211 18 "},"-":{"ha":388,"x_min":0,"x_max":0,"o":"m 340 438 l 313 329 l 47 329 l 76 438 "},".":{"ha":303,"x_min":0,"x_max":0,"o":"m 151 -19 b 57 74 97 -19 57 19 b 151 168 57 129 97 168 b 244 74 206 168 244 129 b 151 -19 244 19 206 -19 "},"/":{"ha":590,"x_min":0,"x_max":0,"o":"m -15 -233 l -35 -225 l 547 1113 l 567 1104 "},":":{"ha":311,"x_min":0,"x_max":0,"o":"m 156 446 b 63 539 101 446 63 483 b 156 632 63 593 101 632 b 250 539 211 632 250 593 b 156 446 250 483 211 446 m 156 -19 b 63 74 101 -19 63 19 b 156 168 63 129 101 168 b 250 74 211 168 250 129 b 156 -19 250 19 211 -19 "},";":{"ha":321,"x_min":0,"x_max":0,"o":"m 160 446 b 67 539 106 446 67 483 b 160 632 67 593 106 632 b 253 539 214 632 253 593 b 160 446 253 483 214 446 m 207 26 b 142 -4 196 8 179 -4 b 61 79 99 -4 61 31 b 149 168 61 133 104 168 b 257 40 204 168 257 129 b 92 -162 257 -64 186 -129 l 86 -154 b 219 -11 171 -121 219 -72 b 207 26 219 6 215 18 "},"<":{"ha":625,"x_min":0,"x_max":0,"o":"m 556 701 l 556 682 l 92 488 l 556 293 l 556 272 l 68 476 l 68 497 "},"=":{"ha":654,"x_min":0,"x_max":0,"o":"m 592 581 l 592 564 l 63 564 l 63 581 m 592 403 l 592 385 l 63 385 l 63 403 "},">":{"ha":625,"x_min":0,"x_max":0,"o":"m 68 293 l 532 488 l 68 682 l 68 701 l 556 497 l 556 476 l 68 272 "},"?":{"ha":583,"x_min":0,"x_max":0,"o":"m 200 281 b 369 853 194 553 369 656 b 240 1043 369 990 335 1043 b 179 985 203 1043 189 1022 b 94 885 168 935 157 885 b 28 949 54 885 28 917 b 242 1054 28 1008 97 1054 b 546 832 426 1054 546 965 b 211 281 546 599 217 544 l 200 281 m 228 -19 b 133 74 174 -19 133 19 b 228 168 133 129 174 168 b 321 74 282 168 321 129 b 228 -19 321 19 282 -19 "},"@":{"ha":1169,"x_min":0,"x_max":0,"o":"m 986 -82 b 568 -225 924 -137 786 -225 b 33 260 294 -225 33 -83 b 663 875 33 611 335 875 b 1139 446 950 875 1139 713 b 629 10 1139 194 954 -6 l 644 99 b 488 7 586 40 551 7 b 285 246 376 7 285 83 b 643 644 285 485 476 644 b 811 596 725 644 764 596 b 883 631 838 596 861 607 l 893 631 l 822 214 b 854 51 796 67 782 29 b 1078 421 1000 100 1078 232 b 642 851 1078 682 893 851 b 104 297 331 851 104 653 b 574 -212 104 -39 308 -212 b 978 -74 785 -212 918 -129 l 986 -82 m 449 239 b 522 32 449 96 474 32 b 647 115 556 32 585 53 l 714 513 b 643 633 721 564 715 633 b 449 239 561 633 449 465 "},"B":{"ha":850,"x_min":0,"x_max":0,"o":"m 24 10 b 96 350 92 29 96 50 l 96 692 b 24 1032 96 992 92 1013 l 24 1042 l 376 1042 b 760 804 636 1042 760 950 b 450 569 760 697 694 596 l 450 568 b 817 300 718 539 817 428 b 360 0 817 94 632 0 l 24 0 l 24 10 m 276 574 l 367 574 b 603 797 553 574 603 638 b 375 1029 603 946 544 1029 l 276 1029 m 276 13 l 353 13 b 638 281 557 13 638 76 b 369 563 638 458 597 563 l 276 563 "},"C":{"ha":899,"x_min":0,"x_max":0,"o":"m 533 -17 b 47 522 271 -17 47 190 b 531 1056 47 886 304 1056 b 783 999 674 1056 724 999 b 831 1038 807 999 824 1011 l 843 1038 l 843 797 l 831 797 b 531 1043 786 968 667 1043 b 243 543 369 1043 243 894 b 575 14 243 153 382 14 b 854 144 707 14 803 83 l 863 136 b 533 -17 819 75 711 -17 "},"D":{"ha":988,"x_min":0,"x_max":0,"o":"m 22 11 b 94 350 90 31 94 49 l 94 692 b 22 1031 94 993 90 1011 l 22 1044 l 335 1044 b 943 535 701 1044 943 875 b 335 -3 943 197 718 -3 l 22 -3 l 22 11 m 26 3 l 335 3 b 939 535 717 3 939 200 b 335 1040 939 872 701 1040 l 25 1040 l 25 1033 b 99 692 93 1014 99 992 l 99 350 b 26 8 99 50 93 28 m 335 1032 b 747 536 578 1032 747 933 b 335 10 747 161 628 10 l 275 10 l 275 1032 m 279 14 l 335 14 b 743 536 625 14 743 163 b 335 1028 743 931 578 1028 l 279 1028 "},"E":{"ha":811,"x_min":0,"x_max":0,"o":"m 22 11 b 94 350 90 31 94 49 l 94 692 b 22 1031 94 993 90 1011 l 22 1044 l 701 1044 b 728 1013 719 1044 724 1040 l 754 871 l 736 872 b 451 1028 694 997 642 1028 l 279 1028 l 279 585 l 353 585 b 513 697 493 585 494 635 l 528 699 l 528 454 l 513 453 b 353 568 494 517 493 568 l 279 568 l 279 15 l 469 15 b 768 188 678 15 731 44 l 785 189 l 767 25 b 739 -3 763 -4 754 -3 l 22 -3 l 22 11 m 26 3 l 739 3 b 764 25 754 3 760 1 l 779 185 l 771 185 b 469 11 733 42 678 11 l 275 11 l 275 572 l 353 572 b 515 458 496 572 497 519 l 524 458 l 524 693 l 515 693 b 353 581 497 632 496 581 l 275 581 l 275 1032 l 451 1032 b 739 876 642 1031 696 1001 l 749 876 l 725 1013 b 701 1040 719 1038 717 1040 l 25 1040 l 25 1033 b 99 692 93 1014 99 992 l 99 350 b 26 8 99 50 93 28 "},"F":{"ha":797,"x_min":0,"x_max":0,"o":"m 24 10 b 96 350 92 29 96 49 l 96 692 b 24 1032 96 993 92 1013 l 24 1042 l 733 1042 b 757 1013 749 1042 753 1042 l 779 865 l 765 865 b 479 1029 725 990 690 1029 l 276 1029 l 276 589 l 379 589 b 538 704 519 589 522 642 l 549 704 l 549 463 l 538 463 b 379 576 522 522 519 576 l 276 576 l 276 350 b 349 10 276 49 281 29 l 349 0 l 24 0 l 24 10 "},"G":{"ha":1010,"x_min":0,"x_max":0,"o":"m 536 -17 b 47 529 253 -17 47 210 b 542 1056 47 890 321 1056 b 810 1003 692 1056 736 1003 b 851 1039 831 1003 846 1015 l 865 1039 l 865 799 l 851 799 b 542 1043 814 956 701 1043 b 242 543 371 1043 242 921 b 536 -4 242 151 351 -4 b 743 261 693 -4 743 76 l 743 271 b 663 464 743 422 725 446 l 663 474 l 993 474 l 993 464 b 914 200 921 444 914 424 l 914 158 b 536 -17 847 74 692 -17 "},"H":{"ha":988,"x_min":0,"x_max":0,"o":"m 24 10 b 96 350 92 29 96 49 l 96 692 b 24 1032 96 993 92 1013 l 24 1042 l 344 1042 l 344 1032 b 272 692 276 1013 272 993 l 272 576 l 715 576 l 715 692 b 643 1032 715 993 711 1013 l 643 1042 l 965 1042 l 965 1032 b 893 692 897 1013 893 993 l 893 350 b 965 10 893 49 897 29 l 965 0 l 643 0 l 643 10 b 715 350 711 29 715 49 l 715 565 l 272 565 l 272 350 b 344 10 272 49 276 29 l 344 0 l 24 0 l 24 10 "},"I":{"ha":368,"x_min":0,"x_max":0,"o":"m 24 10 b 96 350 92 29 96 50 l 96 692 b 24 1032 96 993 92 1013 l 24 1042 l 344 1042 l 344 1032 b 272 692 276 1013 272 993 l 272 350 b 344 10 272 50 276 29 l 344 0 l 24 0 l 24 10 "},"J":{"ha":600,"x_min":0,"x_max":0,"o":"m 247 -14 b 8 124 114 -14 8 39 b 78 193 8 169 43 193 b 160 111 118 193 144 174 b 250 -1 175 32 182 -1 b 332 90 296 -1 332 25 l 332 692 b 260 1032 332 996 328 1013 l 260 1042 l 582 1042 l 582 1032 b 510 692 514 1013 510 996 l 510 235 b 247 -14 510 76 383 -14 "},"K":{"ha":893,"x_min":0,"x_max":0,"o":"m 344 1032 b 272 692 276 1013 272 993 l 272 350 b 344 10 272 49 276 29 l 344 0 l 24 0 l 24 10 b 96 350 92 29 96 49 l 96 692 b 24 1032 96 993 92 1013 l 24 1042 l 344 1042 l 344 1032 m 800 110 b 903 8 849 42 865 24 l 903 0 l 592 0 l 592 8 b 586 115 643 19 632 47 l 272 565 l 656 908 b 674 1033 744 986 736 1011 l 674 1042 l 844 1042 l 844 1033 b 701 932 817 1026 772 997 l 408 669 l 800 110 "},"L":{"ha":775,"x_min":0,"x_max":0,"o":"m 24 10 b 96 350 92 29 96 49 l 96 692 b 24 1032 96 993 92 1013 l 24 1042 l 351 1042 l 351 1032 b 276 692 281 1014 276 993 l 276 13 l 444 13 b 743 211 642 13 692 49 l 758 211 l 724 25 b 699 0 718 -1 714 0 l 24 0 l 24 10 "},"M":{"ha":1140,"x_min":0,"x_max":0,"o":"m 24 10 b 96 356 92 43 96 64 l 96 692 b 24 1032 96 992 92 1013 l 24 1042 l 274 1042 b 303 1008 289 1042 290 1040 l 578 254 l 857 1042 l 1117 1042 l 1117 1032 b 1044 692 1049 1013 1044 993 l 1044 350 b 1117 10 1044 49 1049 29 l 1117 0 l 789 0 l 789 10 b 861 350 857 29 861 49 l 861 1007 l 501 -4 l 486 -4 l 110 1011 l 110 356 b 192 10 110 64 114 43 l 192 0 l 24 0 l 24 10 "},"N":{"ha":890,"x_min":0,"x_max":0,"o":"m 881 1044 l 879 1031 b 808 686 811 997 808 979 l 808 -7 l 767 -7 l 113 1004 l 113 356 b 193 11 113 61 115 44 l 194 -3 l 22 -3 l 22 11 b 94 356 90 44 94 63 l 94 692 b 22 1031 94 993 90 1011 l 22 1044 l 272 1044 b 328 1001 300 1044 301 1040 l 790 286 l 790 686 b 708 1031 790 981 786 997 l 708 1044 m 876 1040 l 713 1040 l 713 1033 b 794 686 789 1000 794 978 l 794 281 l 790 279 l 325 999 b 272 1040 299 1038 297 1040 l 25 1040 l 25 1033 b 99 692 93 1014 99 992 l 99 356 b 26 8 99 63 93 42 l 26 3 l 189 3 l 189 8 b 108 356 113 42 108 64 l 108 1013 l 111 1014 l 113 1013 l 113 1011 l 769 -3 l 804 -3 l 804 686 b 875 1033 804 979 808 1000 "},"O":{"ha":1040,"x_min":0,"x_max":0,"o":"m 519 -18 b 47 522 274 -18 47 207 b 519 1056 47 838 274 1056 b 993 522 767 1056 993 838 b 519 -18 993 207 767 -18 m 519 -6 b 797 522 679 -6 797 154 b 519 1044 797 889 665 1044 b 243 522 375 1044 243 889 b 519 -6 243 154 360 -6 "},"P":{"ha":814,"x_min":0,"x_max":0,"o":"m 24 10 b 96 350 92 29 96 49 l 96 692 b 24 1032 96 993 92 1013 l 24 1042 l 408 1042 b 797 778 636 1042 797 972 b 410 481 797 575 626 481 l 276 481 l 276 350 b 353 10 276 49 279 28 l 353 0 l 24 0 l 24 10 m 276 493 l 406 493 b 629 763 538 493 629 557 b 407 1029 629 969 535 1029 l 276 1029 "},"Q":{"ha":1040,"x_min":0,"x_max":0,"o":"m 519 -17 b 47 522 267 -17 47 200 b 519 1056 47 846 267 1056 b 993 522 774 1056 993 846 b 744 44 993 300 890 131 l 761 -3 b 931 -207 794 -114 846 -207 b 1022 -162 975 -207 1001 -183 l 1029 -169 b 878 -231 1006 -196 978 -231 b 597 -10 763 -231 646 -194 b 519 -17 571 -14 546 -17 m 519 1044 b 243 522 365 1044 243 889 b 419 8 243 201 299 51 b 350 131 374 35 350 76 b 492 254 350 201 404 254 b 724 92 586 254 667 203 b 797 522 772 169 797 299 b 519 1044 797 889 675 1044 m 367 131 b 519 -4 367 36 429 -4 b 594 3 546 -4 571 -3 b 589 29 593 10 590 18 b 457 229 560 183 526 229 b 367 131 408 229 367 193 "},"R":{"ha":892,"x_min":0,"x_max":0,"o":"m 24 10 b 96 350 92 29 96 49 l 96 692 b 24 1032 96 993 92 1013 l 24 1042 l 385 1042 b 828 796 696 1042 828 951 b 425 522 828 606 646 522 l 413 522 b 678 265 547 504 633 440 b 826 24 717 103 754 24 b 897 54 864 24 879 33 l 906 46 b 771 -10 885 24 844 -10 b 494 256 626 -10 535 50 b 317 522 450 499 422 522 l 276 522 l 276 350 b 349 10 276 49 281 29 l 349 0 l 24 0 l 24 10 m 276 533 l 414 533 b 654 772 588 533 654 610 b 379 1029 654 935 593 1029 l 276 1029 "},"S":{"ha":758,"x_min":0,"x_max":0,"o":"m 365 -12 b 81 61 197 -12 164 61 b 44 31 61 61 49 51 l 32 31 l 32 296 l 46 296 b 364 0 67 114 174 0 b 592 196 526 0 592 68 b 310 476 592 335 510 383 b 51 789 154 547 51 629 b 351 1056 51 935 167 1056 b 599 1000 497 1056 540 1000 b 638 1035 619 1000 632 1011 l 650 1035 l 650 825 l 636 825 b 351 1043 610 969 506 1043 b 160 886 219 1043 160 986 b 383 660 160 786 229 728 b 717 310 569 574 717 496 b 365 -12 717 97 544 -12 "},"T":{"ha":881,"x_min":0,"x_max":0,"o":"m 276 10 b 349 350 344 29 349 50 l 349 1029 l 282 1029 b 24 825 119 1029 57 997 l 10 825 l 29 1013 b 53 1042 33 1042 38 1042 l 825 1042 b 849 1013 840 1042 844 1042 l 871 825 l 857 825 b 600 1029 821 994 758 1029 l 529 1029 l 529 350 b 601 10 529 50 533 29 l 601 0 l 276 0 l 276 10 "},"U":{"ha":925,"x_min":0,"x_max":0,"o":"m 494 -15 b 89 354 244 -15 89 106 l 89 692 b 19 1032 89 993 86 1014 l 19 1042 l 339 1042 l 339 1032 b 267 692 271 1013 267 993 l 267 324 b 500 -3 267 113 285 -3 b 818 349 696 -3 818 93 l 818 686 b 738 1032 818 978 814 999 l 738 1042 l 906 1042 l 906 1032 b 833 686 838 999 833 979 l 833 349 b 494 -15 833 88 704 -15 "},"V":{"ha":901,"x_min":0,"x_max":0,"o":"m 115 851 b 10 1033 71 967 61 1007 l 10 1042 l 303 1042 l 303 1033 b 286 910 263 1022 254 994 l 538 218 l 772 867 b 735 1033 801 953 814 1011 l 735 1042 l 892 1042 l 892 1033 b 786 865 851 1015 835 999 l 469 -7 l 438 -7 l 115 851 "},"W":{"ha":1263,"x_min":0,"x_max":0,"o":"m 110 865 b 11 1032 72 965 64 1006 l 11 1042 l 289 1042 l 289 1032 b 275 919 250 1021 247 996 l 524 217 l 633 522 l 510 865 b 410 1032 474 964 463 1010 l 410 1042 l 686 1042 l 686 1032 b 674 918 647 1021 647 996 l 744 711 l 801 867 b 782 1032 828 946 847 1006 l 782 1042 l 919 1042 l 919 1032 b 817 867 879 1014 865 1001 l 751 690 l 915 211 l 1133 865 b 1096 1032 1160 944 1174 1006 l 1096 1042 l 1251 1042 l 1251 1032 b 1149 865 1210 1013 1193 1000 l 858 -7 l 825 -7 l 642 500 l 458 -7 l 425 -7 l 110 865 "},"X":{"ha":915,"x_min":0,"x_max":0,"o":"m 18 8 b 168 169 76 38 97 67 l 383 488 l 156 879 b 17 1033 89 990 65 1018 l 17 1042 l 339 1042 l 339 1033 b 349 886 288 1022 289 988 l 510 606 l 694 879 b 692 1033 757 969 757 1018 l 692 1042 l 857 1042 l 857 1033 b 707 872 794 1004 782 985 l 518 593 l 757 178 b 900 8 817 74 847 33 l 900 0 l 574 0 l 574 8 b 568 171 629 26 635 60 l 392 474 l 181 163 b 193 8 121 74 132 26 l 193 0 l 18 0 l 18 8 "},"Y":{"ha":871,"x_min":0,"x_max":0,"o":"m 281 10 b 353 350 349 29 353 50 l 353 513 l 147 867 b 8 1033 94 957 68 1003 l 8 1042 l 321 1042 l 321 1033 b 304 929 282 1018 271 989 l 524 546 l 703 867 b 710 1033 754 963 778 1011 l 710 1042 l 863 1042 l 863 1033 b 718 867 821 1015 789 997 l 531 531 l 531 350 b 603 10 531 50 535 29 l 603 0 l 281 0 l 281 10 "},"Z":{"ha":843,"x_min":0,"x_max":0,"o":"m 347 1029 b 60 851 157 1029 100 965 l 47 851 l 83 1042 l 786 1042 l 225 13 l 494 13 b 811 232 714 13 767 64 l 825 232 l 792 0 l 24 0 l 578 1029 "},"[":{"ha":388,"x_min":0,"x_max":0,"o":"m 369 1089 l 228 1089 l 228 -135 l 369 -135 l 369 -147 l 93 -147 l 93 1101 l 369 1101 "},"\\":{"ha":590,"x_min":0,"x_max":0,"o":"m 607 -233 l 25 1104 l 44 1113 l 626 -225 "},"]":{"ha":388,"x_min":0,"x_max":0,"o":"m 18 -147 l 18 -135 l 160 -135 l 160 1089 l 18 1089 l 18 1101 l 296 1101 l 296 -147 "},"^":{"ha":539,"x_min":0,"x_max":0,"o":"m 275 1050 l 496 679 l 485 674 l 269 1033 l 54 674 l 43 679 l 264 1050 "},"_":{"ha":501,"x_min":0,"x_max":0,"o":"m 508 -103 l 508 -119 l -7 -119 l -7 -103 "},"`":{"ha":619,"x_min":0,"x_max":0,"o":"m 222 836 b 167 914 190 854 167 876 b 224 971 167 947 186 971 b 304 910 258 971 278 953 l 424 729 l 417 721 l 222 836 "},"a":{"ha":618,"x_min":0,"x_max":0,"o":"m 194 -11 b 26 133 94 -11 26 40 b 275 322 26 260 147 267 l 299 332 b 385 440 357 357 385 371 l 385 547 b 281 646 385 624 331 646 b 189 581 225 646 210 624 b 115 514 172 543 158 514 b 57 565 78 514 57 538 b 278 658 57 625 157 658 b 542 483 407 658 542 622 l 542 179 b 588 18 542 40 550 18 b 624 31 603 18 614 25 l 626 24 b 515 -8 614 14 586 -8 b 388 79 442 -8 399 21 l 379 71 b 194 -11 331 25 283 -11 m 186 161 b 271 24 186 72 215 24 b 379 85 304 24 340 47 l 386 92 b 385 113 385 97 385 106 l 385 381 b 301 321 374 354 347 342 l 278 310 b 186 161 213 283 186 239 "},"b":{"ha":736,"x_min":0,"x_max":0,"o":"m 372 -11 b 125 56 250 -11 179 56 b 88 22 96 56 92 33 l 76 22 l 76 785 b 19 953 76 944 76 946 l 19 964 l 233 1078 l 233 528 l 253 550 b 451 658 299 599 354 658 b 703 340 568 658 703 560 b 372 -11 703 118 550 -11 m 271 28 b 371 1 293 13 315 1 b 538 317 472 1 538 89 b 406 629 538 575 475 629 b 253 533 343 629 299 585 l 233 511 l 233 146 b 271 28 233 75 244 46 "},"c":{"ha":590,"x_min":0,"x_max":0,"o":"m 353 -10 b 32 314 179 -10 32 118 b 357 660 32 536 218 660 b 568 557 472 660 568 621 b 511 506 568 525 544 506 b 426 599 456 506 444 538 b 358 647 415 636 396 647 b 196 351 268 647 196 568 b 393 17 196 124 275 17 b 565 94 472 17 525 46 l 574 88 b 353 -10 531 33 458 -10 "},"d":{"ha":746,"x_min":0,"x_max":0,"o":"m 299 -10 b 40 303 171 -10 40 92 b 361 657 40 531 192 657 b 510 604 422 657 472 633 l 510 783 b 453 951 510 943 510 947 l 453 963 l 667 1078 l 667 213 b 728 10 667 46 668 25 l 728 0 l 510 0 l 510 110 l 497 96 b 299 -10 443 36 386 -10 m 206 321 b 342 18 206 88 269 18 b 497 113 396 18 443 51 l 510 126 l 510 588 b 364 644 467 621 424 644 b 206 321 269 644 206 547 "},"e":{"ha":631,"x_min":0,"x_max":0,"o":"m 368 -11 b 32 329 201 -11 32 90 b 338 660 32 558 215 660 b 601 451 510 660 590 546 l 200 451 b 193 338 196 418 193 381 b 404 15 193 146 264 15 b 579 75 483 15 531 40 l 586 65 b 368 -11 538 26 475 -11 m 338 647 b 201 464 275 647 222 599 l 458 464 b 338 647 447 575 419 647 "},"f":{"ha":378,"x_min":0,"x_max":0,"o":"m 31 10 b 86 213 85 24 86 46 l 86 633 l 21 633 l 21 644 b 88 729 81 654 88 672 l 88 810 b 315 1058 88 997 226 1058 b 468 969 400 1058 468 1031 b 414 921 468 947 453 921 b 347 978 369 921 354 938 b 308 1046 338 1033 332 1046 b 244 872 268 1046 244 1011 l 244 647 l 368 647 l 368 633 l 244 633 l 244 213 b 325 10 244 46 246 25 l 325 0 l 31 0 l 31 10 "},"g":{"ha":615,"x_min":0,"x_max":0,"o":"m 294 224 b 163 254 250 224 203 233 l 144 240 b 104 189 115 219 104 207 b 169 153 104 174 121 158 l 394 125 b 597 -35 539 107 597 50 b 292 -239 597 -157 475 -239 b 15 -103 158 -239 15 -206 b 147 13 15 -44 85 -10 b 53 122 81 33 53 74 b 132 246 53 178 92 214 l 151 260 b 40 436 86 294 39 353 b 294 660 40 576 176 660 b 428 626 339 660 385 649 b 557 688 476 665 525 688 b 617 638 600 688 617 669 b 575 590 617 606 596 590 b 476 632 535 590 510 632 b 438 621 464 632 450 628 b 551 436 503 583 551 519 b 294 224 551 297 413 224 m 294 236 b 408 436 350 236 408 285 b 294 647 408 588 356 647 b 183 436 235 647 183 588 b 294 236 183 285 238 236 m 106 -93 b 292 -226 106 -183 174 -226 b 539 -106 458 -226 539 -161 b 367 -18 539 -44 476 -31 l 206 0 b 161 8 190 1 175 4 b 106 -93 118 -12 106 -49 "},"h":{"ha":713,"x_min":0,"x_max":0,"o":"m 21 10 b 76 213 75 24 76 46 l 76 783 b 19 951 76 943 76 947 l 19 963 l 233 1078 l 233 513 l 264 542 b 479 658 336 613 394 658 b 640 483 560 658 640 619 l 640 213 b 696 10 640 46 640 25 l 696 0 l 421 0 l 421 10 b 482 213 479 24 482 46 l 482 528 b 415 621 482 599 450 621 b 264 525 376 621 329 590 l 233 496 l 233 213 b 294 10 233 46 235 25 l 294 0 l 21 0 l 21 10 "},"i":{"ha":315,"x_min":0,"x_max":0,"o":"m 156 739 b 68 828 107 739 68 779 b 156 914 68 876 107 914 b 244 828 206 914 244 876 b 156 739 244 779 206 739 m 19 10 b 78 213 75 25 78 46 l 78 365 b 21 538 78 528 78 531 l 21 549 l 235 667 l 235 213 b 296 10 235 46 236 25 l 296 0 l 19 0 l 19 10 "},"j":{"ha":314,"x_min":0,"x_max":0,"o":"m 156 739 b 68 828 107 739 68 779 b 156 914 68 876 107 914 b 244 828 206 914 244 876 b 156 739 244 779 206 739 m -40 -193 b -103 -136 -72 -193 -103 -174 b -53 -86 -103 -103 -81 -86 b 46 -153 -7 -86 18 -153 b 58 -147 51 -153 54 -151 b 78 -10 74 -136 78 -103 l 78 364 b 21 538 78 528 78 531 l 21 549 l 235 667 l 235 128 b 94 -140 235 17 200 -64 b -40 -193 35 -183 3 -193 "},"k":{"ha":671,"x_min":0,"x_max":0,"o":"m 21 10 b 76 213 75 24 76 46 l 76 783 b 19 951 76 943 76 947 l 19 963 l 233 1078 l 233 213 b 294 10 233 46 235 25 l 294 0 l 21 0 l 21 10 m 413 10 b 422 82 450 14 457 33 l 239 342 l 240 350 l 479 551 b 474 639 540 606 522 633 l 474 647 l 642 647 l 642 639 b 488 542 597 628 568 608 l 356 432 l 608 78 b 679 10 646 28 661 14 l 679 0 l 413 0 l 413 10 "},"l":{"ha":318,"x_min":0,"x_max":0,"o":"m 21 10 b 78 213 76 25 78 46 l 78 783 b 19 951 78 943 79 947 l 19 963 l 236 1078 l 236 213 b 300 10 236 46 239 24 l 300 0 l 21 0 l 21 10 "},"m":{"ha":1071,"x_min":0,"x_max":0,"o":"m 19 10 b 75 213 74 24 75 46 l 75 365 b 18 538 75 528 75 531 l 18 549 l 233 667 l 233 529 l 246 542 b 461 658 318 613 376 658 b 611 525 533 658 596 626 l 628 542 b 843 658 700 613 758 658 b 997 483 921 658 997 619 l 997 213 b 1053 10 997 46 997 25 l 1053 0 l 778 0 l 778 10 b 839 213 835 25 839 46 l 839 528 b 778 621 839 599 813 621 b 628 525 739 621 694 592 l 613 510 l 613 508 l 615 507 l 615 213 b 671 10 615 46 615 25 l 671 0 l 396 0 l 396 10 b 457 213 453 25 457 46 l 457 528 b 396 621 457 599 431 621 b 246 525 357 621 313 592 l 233 513 l 233 213 b 294 10 233 46 235 25 l 294 0 l 19 0 l 19 10 "},"n":{"ha":718,"x_min":0,"x_max":0,"o":"m 21 10 b 76 213 75 24 76 46 l 76 365 b 19 538 76 528 76 531 l 19 549 l 233 667 l 233 508 l 268 542 b 485 658 340 613 400 658 b 646 483 564 658 646 619 l 646 213 b 701 10 646 46 646 25 l 701 0 l 425 0 l 425 10 b 488 213 481 25 488 46 l 488 528 b 419 621 488 599 457 621 b 268 525 382 621 335 590 l 233 492 l 233 213 b 294 10 233 46 235 25 l 294 0 l 21 0 l 21 10 "},"o":{"ha":704,"x_min":0,"x_max":0,"o":"m 353 -11 b 32 321 231 -11 32 76 b 353 661 32 561 231 661 b 672 321 475 661 672 561 b 353 -11 672 76 475 -11 m 353 1 b 508 321 438 1 508 74 b 353 649 508 567 438 649 b 196 321 268 649 196 567 b 353 1 196 74 268 1 "},"p":{"ha":736,"x_min":0,"x_max":0,"o":"m 21 -221 b 76 -18 75 -207 76 -185 l 76 365 b 19 538 76 528 76 531 l 19 549 l 233 667 l 233 532 l 249 550 b 443 658 293 601 354 658 b 703 340 560 658 703 568 b 375 -10 703 118 560 -10 b 233 38 326 -10 276 6 l 233 -18 b 294 -221 233 -185 235 -206 l 294 -231 l 21 -231 l 21 -221 m 233 53 b 372 3 278 19 324 3 b 538 317 467 3 538 94 b 399 631 538 561 478 631 b 249 533 344 631 293 585 l 233 515 "},"q":{"ha":731,"x_min":0,"x_max":0,"o":"m 440 -221 b 501 -18 500 -206 501 -185 l 501 107 l 492 96 b 296 -10 438 36 383 -10 b 33 296 167 -10 33 85 b 369 657 33 524 188 657 b 603 592 507 657 558 592 b 649 639 626 592 642 607 l 660 639 l 660 -18 b 715 -221 660 -185 661 -207 l 715 -231 l 440 -231 l 440 -221 m 197 314 b 336 17 197 76 265 17 b 492 113 393 17 438 53 l 501 124 l 501 508 b 471 617 501 575 494 599 b 371 644 453 632 428 644 b 197 314 271 644 197 557 "},"r":{"ha":511,"x_min":0,"x_max":0,"o":"m 21 10 b 76 213 75 24 76 46 l 76 365 b 19 538 76 528 76 531 l 19 549 l 233 667 l 233 515 l 260 544 b 431 658 346 638 378 658 b 501 597 474 658 501 636 b 438 529 501 549 471 529 b 331 581 381 529 364 581 b 260 529 310 581 299 572 l 233 500 l 233 213 b 294 10 233 46 235 25 l 294 0 l 21 0 l 21 10 "},"s":{"ha":513,"x_min":0,"x_max":0,"o":"m 251 3 b 383 117 353 3 383 54 b 228 269 383 183 343 224 b 36 486 104 318 36 367 b 238 661 36 582 117 661 b 401 626 329 661 354 626 b 425 650 413 626 421 638 l 436 650 l 436 488 l 425 488 b 238 649 390 594 328 649 b 121 554 153 649 121 611 b 276 419 121 486 178 460 b 479 192 414 364 479 313 b 251 -10 479 72 381 -10 b 67 40 144 -10 106 40 b 42 17 56 40 46 32 l 29 17 l 29 211 l 42 211 b 251 3 76 71 140 3 "},"t":{"ha":400,"x_min":0,"x_max":0,"o":"m 250 -10 b 82 142 139 -10 82 51 l 82 633 l 25 633 l 25 646 b 226 876 108 657 196 733 l 239 876 l 239 647 l 376 647 l 376 633 l 239 633 l 239 168 b 307 15 239 58 246 15 b 381 49 339 15 365 32 l 388 43 b 250 -10 372 25 339 -10 "},"u":{"ha":700,"x_min":0,"x_max":0,"o":"m 235 -11 b 74 160 154 -11 74 28 l 74 365 b 17 538 74 528 74 531 l 17 549 l 232 667 l 232 119 b 299 26 232 49 264 26 b 451 126 336 26 385 61 l 469 143 l 469 365 b 413 538 469 528 469 531 l 413 549 l 626 667 l 626 213 b 685 10 626 46 629 25 l 685 0 l 469 0 l 469 126 l 451 110 b 235 -11 378 39 319 -11 "},"v":{"ha":618,"x_min":0,"x_max":0,"o":"m 92 493 b -4 639 43 613 29 628 l -4 647 l 258 647 l 258 639 b 249 497 214 632 204 613 l 376 163 l 497 464 b 474 639 557 614 528 628 l 474 647 l 624 647 l 624 639 b 513 464 585 628 572 615 l 324 -7 l 293 -7 l 92 493 "},"w":{"ha":915,"x_min":0,"x_max":0,"o":"m 89 493 b 3 639 44 615 32 628 l 3 647 l 253 647 l 253 639 b 247 497 211 631 207 613 l 365 169 l 456 385 l 417 493 b 331 639 372 615 360 628 l 331 647 l 576 647 l 576 639 b 567 497 536 632 526 613 l 683 179 l 789 467 b 760 639 844 614 814 632 l 760 647 l 913 647 l 913 639 b 804 467 871 628 860 617 l 629 -7 l 597 -7 l 464 364 l 306 -7 l 274 -7 l 89 493 "},"x":{"ha":632,"x_min":0,"x_max":0,"o":"m 10 8 b 156 151 69 31 86 53 l 251 290 l 133 496 b 14 639 63 618 47 628 l 14 647 l 283 647 l 283 639 b 293 511 239 632 233 615 l 365 386 l 444 500 b 457 639 522 611 496 631 l 457 647 l 601 647 l 601 639 b 458 494 540 617 542 613 l 372 374 l 499 154 b 621 8 569 31 589 19 l 621 0 l 351 0 l 351 8 b 340 138 394 15 400 33 l 260 278 l 168 147 b 156 8 101 51 114 15 l 156 0 l 10 0 l 10 8 "},"y":{"ha":629,"x_min":0,"x_max":0,"o":"m 143 -237 b 68 -179 93 -237 68 -212 b 118 -128 68 -142 92 -128 b 215 -164 167 -128 174 -164 b 301 -44 239 -164 261 -144 l 313 -17 l 90 497 b -4 639 38 617 29 628 l -4 647 l 258 647 l 258 639 b 250 500 218 632 203 614 l 388 171 l 507 467 b 482 639 567 614 536 632 l 482 647 l 633 647 l 633 639 b 522 467 594 628 582 615 l 315 -49 b 143 -237 260 -187 215 -237 "},"z":{"ha":574,"x_min":0,"x_max":0,"o":"m 526 -14 b 346 0 501 -3 469 0 l 15 0 l 376 636 l 253 636 b 46 492 107 636 79 579 l 35 492 l 64 661 b 244 647 93 649 140 647 l 550 647 l 185 11 l 325 11 b 542 178 475 11 501 71 l 553 178 l 526 -14 "},"{":{"ha":397,"x_min":0,"x_max":0,"o":"m 379 -147 b 94 28 197 -147 94 -87 b 181 361 94 140 181 261 b 22 474 181 417 178 474 l 22 485 b 181 597 178 485 181 542 b 94 931 181 694 94 818 b 379 1106 94 1046 196 1106 l 379 1094 b 233 944 278 1094 233 1051 b 278 639 233 854 278 735 b 89 479 278 565 221 490 b 278 319 221 468 278 393 b 233 14 278 221 233 104 b 379 -136 233 -96 279 -136 l 379 -147 "},"|":{"ha":349,"x_min":0,"x_max":0,"o":"m 185 -147 l 164 -147 l 164 1139 l 185 1139 "},"}":{"ha":397,"x_min":0,"x_max":0,"o":"m 18 -136 b 163 14 118 -136 163 -96 b 118 319 163 104 118 221 b 308 479 118 393 175 468 b 118 639 175 490 118 565 b 163 944 118 735 163 854 b 18 1094 163 1051 119 1094 l 18 1106 b 301 931 200 1106 301 1046 b 215 597 301 818 215 694 b 374 485 215 542 218 485 l 374 474 b 215 361 218 474 215 417 b 301 28 215 261 301 140 b 18 -147 301 -87 200 -147 l 18 -136 "},"~":{"ha":497,"x_min":0,"x_max":0,"o":"m 158 576 b 357 557 225 576 303 557 b 436 621 381 557 403 569 l 446 617 b 339 469 419 526 385 469 b 140 489 274 469 201 489 b 61 425 114 489 99 479 l 50 429 b 158 576 83 528 119 576 "}," ":{"ha":256,"x_min":0,"x_max":0,"o":""},"¡":{"ha":333,"x_min":0,"x_max":0,"o":"m 168 658 b 261 565 222 658 261 619 b 168 471 261 510 222 471 b 74 565 114 471 74 510 b 168 658 74 619 114 658 m 174 342 b 268 -303 203 -61 268 -214 b 167 -414 268 -374 232 -414 b 65 -303 101 -414 65 -374 b 160 342 65 -214 131 -61 l 174 342 "},"¢":{"ha":590,"x_min":0,"x_max":0,"o":"m 360 660 b 568 557 476 660 568 624 b 513 507 568 529 544 507 b 429 592 458 507 446 532 b 361 647 418 632 404 647 l 360 647 l 360 14 b 386 13 369 13 376 13 b 565 93 465 13 525 44 l 574 85 b 360 -10 531 31 458 -10 l 360 -131 l 343 -131 l 343 -10 b 32 321 175 -6 32 121 b 343 660 32 531 194 649 l 343 782 l 360 782 m 196 343 b 343 18 196 138 250 39 l 343 646 b 196 343 260 635 196 554 "},"£":{"ha":715,"x_min":0,"x_max":0,"o":"m 103 71 b 200 282 169 140 200 190 b 179 396 200 321 192 358 l 18 396 l 18 410 l 175 410 b 132 513 163 444 147 478 l 18 513 l 18 528 l 125 528 b 64 753 93 599 64 669 b 401 1050 64 946 239 1050 b 668 888 563 1050 668 978 b 599 814 668 844 642 814 b 514 883 549 814 524 840 b 400 1039 500 949 522 1039 b 242 778 274 1039 242 928 b 290 528 242 683 268 604 l 560 528 l 560 513 l 296 513 b 321 410 307 475 315 442 l 560 410 l 560 396 l 322 396 b 324 369 324 386 324 379 b 189 150 324 261 240 194 l 414 150 b 697 218 633 150 668 157 l 710 218 l 664 53 b 613 0 653 8 646 0 l 33 0 l 103 71 "},"¥":{"ha":761,"x_min":0,"x_max":0,"o":"m 228 10 b 300 353 296 29 300 53 l 300 418 l 58 418 l 58 433 l 300 433 l 300 536 l 58 536 l 58 551 l 294 551 l 118 867 b -19 1033 54 975 36 1011 l -19 1042 l 281 1042 l 281 1033 b 269 929 240 1024 229 1001 l 468 569 l 601 850 b 601 1033 660 979 669 1011 l 601 1042 l 749 1042 l 749 1033 b 617 847 708 1015 683 996 l 478 553 l 478 551 l 719 551 l 719 536 l 478 536 l 478 433 l 719 433 l 719 418 l 478 418 l 478 353 b 550 10 478 53 482 29 l 550 0 l 228 0 l 228 10 "},"§":{"ha":701,"x_min":0,"x_max":0,"o":"m 313 -201 b 453 -50 413 -201 453 -140 b 211 261 453 58 390 115 b 35 533 82 364 35 428 b 172 739 35 638 96 701 b 147 849 156 771 147 807 b 378 1074 147 992 247 1074 b 607 932 521 1074 607 1000 b 553 879 607 903 590 879 b 481 944 510 879 493 901 b 378 1063 461 1001 463 1063 b 244 939 294 1063 244 1017 b 451 685 244 857 290 817 b 674 383 614 556 674 489 b 544 158 674 279 622 215 b 567 56 561 126 567 94 b 313 -214 567 -100 461 -214 b 44 -33 164 -214 44 -129 b 107 26 44 0 69 26 b 179 -40 157 26 172 -3 b 313 -201 197 -135 207 -201 m 325 383 b 538 172 440 285 504 226 b 576 275 567 204 576 232 b 340 561 576 376 493 431 b 179 726 264 626 211 672 b 129 624 150 706 129 672 b 325 383 129 542 176 510 "},"¨":{"ha":619,"x_min":0,"x_max":0,"o":"m 192 740 b 110 826 146 740 110 776 b 192 906 110 871 146 906 b 274 826 240 906 274 871 b 192 740 274 776 240 740 m 428 740 b 346 826 379 740 346 776 b 428 906 346 871 379 906 b 510 826 474 906 510 871 b 428 740 510 776 474 740 "},"©":{"ha":1161,"x_min":0,"x_max":0,"o":"m 582 1054 b 1117 519 875 1054 1117 814 b 582 -15 1117 226 875 -15 b 44 519 286 -15 44 226 b 582 1054 44 814 286 1054 m 582 -3 b 1103 519 865 -3 1103 231 b 582 1042 1103 808 865 1042 b 57 519 299 1042 57 813 b 582 -3 57 226 299 -3 m 601 200 b 306 521 442 200 306 322 b 601 839 306 738 463 839 b 750 806 688 839 714 806 b 778 829 764 806 774 814 l 788 829 l 788 675 l 778 675 b 601 828 746 781 683 828 b 436 533 507 828 436 739 b 625 221 436 304 514 221 b 792 297 708 221 760 260 l 799 290 b 601 200 772 253 708 200 "},"ª":{"ha":499,"x_min":0,"x_max":0,"o":"m 158 543 b 31 653 82 543 31 582 b 221 797 31 749 124 756 l 238 804 b 303 886 283 822 303 832 l 303 967 b 226 1042 303 1026 264 1042 b 157 994 183 1042 174 1026 b 100 943 146 965 133 943 b 54 982 72 943 54 961 b 225 1053 54 1026 132 1053 b 429 919 329 1053 429 1025 l 429 689 b 463 567 429 583 436 567 b 490 576 475 567 483 569 l 494 569 b 407 546 485 563 461 546 b 306 611 347 546 314 568 l 299 606 b 158 543 264 571 226 543 m 158 674 b 218 571 158 608 179 571 b 297 615 244 571 271 589 l 304 621 b 303 636 303 625 303 629 l 303 836 b 240 794 293 818 274 810 l 224 788 b 158 674 175 767 158 733 "},"«":{"ha":532,"x_min":0,"x_max":0,"o":"m 51 325 l 272 550 l 281 544 l 176 319 l 282 94 l 274 89 l 51 314 m 251 325 l 472 550 l 481 544 l 376 319 l 482 94 l 474 89 l 251 314 "},"®":{"ha":708,"x_min":0,"x_max":0,"o":"m 356 1054 b 667 743 528 1054 667 915 b 356 432 667 571 528 432 b 42 743 183 432 42 571 b 356 1054 42 915 183 1054 m 356 443 b 653 743 518 443 653 575 b 356 1042 653 911 518 1042 b 56 743 192 1042 56 911 b 356 443 56 572 192 443 m 228 597 b 251 701 250 601 251 611 l 251 810 b 228 915 251 904 250 908 l 228 921 l 353 921 b 493 842 453 921 493 892 b 365 757 493 782 433 757 b 449 675 408 751 433 729 b 494 601 461 626 472 601 b 517 611 504 601 511 604 l 519 606 b 472 589 513 599 499 589 b 382 672 424 589 394 607 b 332 756 367 750 360 756 l 317 756 l 317 701 b 339 597 317 611 318 601 l 339 592 l 228 592 l 228 597 m 317 763 l 360 763 b 432 835 411 763 432 789 b 349 914 432 886 414 914 l 317 914 "},"¯":{"ha":619,"x_min":0,"x_max":0,"o":"m 461 790 l 164 790 l 164 856 l 461 856 "},"°":{"ha":347,"x_min":0,"x_max":0,"o":"m 172 1053 b 300 924 244 1053 300 996 b 172 793 300 850 244 793 b 46 924 101 793 46 851 b 172 1053 46 994 101 1053 m 63 924 b 172 807 63 858 111 807 b 283 924 238 807 283 858 b 172 1039 283 989 238 1039 b 63 924 111 1039 63 989 "},"´":{"ha":619,"x_min":0,"x_max":0,"o":"m 315 910 b 396 971 342 953 361 971 b 453 914 433 971 453 947 b 397 836 453 876 429 854 l 203 721 l 196 729 "},"¶":{"ha":733,"x_min":0,"x_max":0,"o":"m 347 492 b 28 769 165 492 28 593 b 349 1042 28 949 165 1042 l 711 1042 l 711 1032 b 639 688 643 1013 639 993 l 639 294 b 319 -131 639 -31 503 -131 b 176 -49 225 -131 176 -99 b 233 3 176 -19 200 3 b 396 -106 310 3 325 -106 b 519 222 444 -106 519 -54 l 519 1028 l 400 1028 l 400 492 l 347 492 "},"·":{"ha":303,"x_min":0,"x_max":0,"o":"m 151 317 b 57 410 97 317 57 356 b 151 504 57 465 97 504 b 244 410 206 504 244 465 b 151 317 244 356 206 317 "},"¸":{"ha":619,"x_min":0,"x_max":0,"o":"m 306 -67 b 440 -169 383 -76 440 -115 b 207 -283 440 -247 358 -279 l 206 -272 b 342 -203 283 -260 342 -236 b 247 -150 342 -171 304 -154 l 243 -143 l 329 0 l 344 0 "},"º":{"ha":543,"x_min":0,"x_max":0,"o":"m 271 538 b 24 792 175 538 24 606 b 271 1053 24 976 175 1053 b 519 792 365 1053 519 976 b 271 538 519 606 365 538 m 271 549 b 388 792 332 549 388 604 b 271 1042 388 981 332 1042 b 154 792 210 1042 154 981 b 271 549 154 604 210 549 "},"»":{"ha":532,"x_min":0,"x_max":0,"o":"m 156 319 l 51 544 l 60 550 l 281 325 l 281 314 l 58 89 l 50 94 m 356 319 l 251 544 l 260 550 l 481 325 l 481 314 l 258 89 l 250 94 "},"¿":{"ha":583,"x_min":0,"x_max":0,"o":"m 356 658 b 450 565 410 658 450 619 b 356 471 450 510 410 471 b 263 565 301 471 263 510 b 356 658 263 619 301 658 m 383 358 b 214 -214 389 86 214 -17 b 343 -404 214 -351 249 -404 b 404 -346 381 -404 394 -383 b 489 -246 415 -296 426 -246 b 556 -310 529 -246 556 -278 b 342 -415 556 -369 486 -415 b 38 -193 157 -415 38 -326 b 372 358 38 40 367 94 l 383 358 "},"À":{"ha":951,"x_min":0,"x_max":0,"o":"m 336 1121 b 251 1199 274 1136 251 1161 b 307 1253 251 1226 274 1253 b 381 1226 333 1253 357 1244 l 563 1090 l 560 1082 l 336 1121 m 11 8 b 126 194 53 24 72 44 l 378 893 l 358 944 b 281 1033 332 1011 315 1025 l 281 1042 l 496 1042 b 518 1022 511 1042 513 1039 l 838 176 b 940 10 872 83 892 26 l 940 0 l 660 0 l 660 10 b 676 124 703 19 704 51 l 600 322 l 188 322 l 142 194 b 185 8 104 94 101 36 l 185 0 l 11 0 l 11 8 m 386 872 l 192 333 l 594 333 "},"Á":{"ha":951,"x_min":0,"x_max":0,"o":"m 471 1226 b 544 1253 493 1244 518 1253 b 600 1199 578 1253 600 1226 b 515 1121 600 1161 578 1136 l 292 1082 l 288 1090 m 11 8 b 126 194 53 24 72 44 l 378 893 l 358 944 b 281 1033 332 1011 315 1025 l 281 1042 l 496 1042 b 518 1022 511 1042 513 1039 l 838 176 b 940 10 872 83 892 26 l 940 0 l 660 0 l 660 10 b 676 124 703 19 704 51 l 600 322 l 188 322 l 142 194 b 185 8 104 94 101 36 l 185 0 l 11 0 l 11 8 m 386 872 l 192 333 l 594 333 "},"Â":{"ha":951,"x_min":0,"x_max":0,"o":"m 611 1088 l 607 1079 l 422 1135 l 238 1079 l 233 1088 l 422 1258 m 11 8 b 126 194 53 24 72 44 l 378 893 l 358 944 b 281 1033 332 1011 315 1025 l 281 1042 l 496 1042 b 518 1022 511 1042 513 1039 l 838 176 b 940 10 872 83 892 26 l 940 0 l 660 0 l 660 10 b 676 124 703 19 704 51 l 600 322 l 188 322 l 142 194 b 185 8 104 94 101 36 l 185 0 l 11 0 l 11 8 m 386 872 l 192 333 l 594 333 "},"Ã":{"ha":951,"x_min":0,"x_max":0,"o":"m 363 1219 b 513 1211 418 1219 472 1211 b 594 1272 536 1211 565 1228 l 604 1269 b 497 1117 583 1175 543 1117 b 347 1125 443 1117 397 1125 b 269 1065 325 1125 301 1114 l 260 1068 b 363 1219 288 1175 325 1219 m 11 8 b 126 194 53 24 72 44 l 378 893 l 358 944 b 281 1033 332 1011 315 1025 l 281 1042 l 496 1042 b 518 1022 511 1042 513 1039 l 838 176 b 940 10 872 83 892 26 l 940 0 l 660 0 l 660 10 b 676 124 703 19 704 51 l 600 322 l 188 322 l 142 194 b 185 8 104 94 101 36 l 185 0 l 11 0 l 11 8 m 386 872 l 192 333 l 594 333 "},"Ä":{"ha":951,"x_min":0,"x_max":0,"o":"m 297 1090 b 215 1175 251 1090 215 1126 b 297 1256 215 1219 251 1256 b 379 1175 343 1256 379 1219 b 297 1090 379 1126 343 1090 m 547 1090 b 465 1175 501 1090 465 1126 b 547 1256 465 1219 501 1256 b 629 1175 593 1256 629 1219 b 547 1090 629 1126 593 1090 m 11 8 b 126 194 53 24 72 44 l 378 893 l 358 944 b 281 1033 332 1011 315 1025 l 281 1042 l 496 1042 b 518 1022 511 1042 513 1039 l 838 176 b 940 10 872 83 892 26 l 940 0 l 660 0 l 660 10 b 676 124 703 19 704 51 l 600 322 l 188 322 l 142 194 b 185 8 104 94 101 36 l 185 0 l 11 0 l 11 8 m 386 872 l 192 333 l 594 333 "},"Å":{"ha":951,"x_min":0,"x_max":0,"o":"m 304 1188 b 422 1294 304 1250 354 1294 b 542 1188 493 1294 542 1250 b 422 1081 542 1122 493 1081 b 304 1188 351 1081 304 1122 m 364 1188 b 422 1093 364 1125 383 1093 b 482 1188 463 1093 482 1125 b 422 1282 482 1247 460 1282 b 364 1188 385 1282 364 1247 m 11 8 b 126 194 53 24 72 44 l 378 893 l 358 944 b 281 1033 332 1011 315 1025 l 281 1042 l 496 1042 b 518 1022 511 1042 513 1039 l 838 176 b 940 10 872 83 892 26 l 940 0 l 660 0 l 660 10 b 676 124 703 19 704 51 l 600 322 l 188 322 l 142 194 b 185 8 104 94 101 36 l 185 0 l 11 0 l 11 8 m 386 872 l 192 333 l 594 333 "},"Æ":{"ha":1313,"x_min":0,"x_max":0,"o":"m 1015 456 b 854 569 997 518 996 569 l 799 569 l 799 13 l 971 13 b 1271 186 1178 13 1233 42 l 1283 186 l 1267 25 b 1240 0 1263 -1 1256 0 l 546 0 l 546 10 b 618 329 613 28 618 47 l 238 329 l 150 175 b 151 8 106 93 88 35 l 151 0 l 1 0 l 1 8 b 135 175 39 26 68 53 l 574 946 b 533 1032 608 1007 589 1022 l 533 1042 l 1203 1042 b 1228 1013 1218 1042 1222 1040 l 1253 874 l 1239 874 b 953 1029 1197 997 1146 1029 l 799 1029 l 799 582 l 854 582 b 1015 696 996 582 997 633 l 1026 696 l 1026 456 l 1015 456 m 618 997 l 244 340 l 618 340 "},"Ç":{"ha":899,"x_min":0,"x_max":0,"o":"m 533 -17 b 457 -11 507 -17 482 -15 l 424 -67 b 558 -169 501 -76 558 -115 b 325 -283 558 -247 476 -279 l 324 -272 b 460 -203 401 -260 460 -236 b 365 -150 460 -171 422 -154 l 361 -143 l 442 -8 b 47 522 221 33 47 229 b 531 1056 47 886 304 1056 b 783 999 674 1056 724 999 b 831 1038 807 999 824 1011 l 843 1038 l 843 797 l 831 797 b 531 1043 786 968 667 1043 b 243 543 369 1043 243 894 b 575 14 243 153 382 14 b 854 144 707 14 803 83 l 863 136 b 533 -17 819 75 711 -17 "},"È":{"ha":811,"x_min":0,"x_max":0,"o":"m 326 1121 b 242 1199 264 1136 242 1161 b 297 1253 242 1226 264 1253 b 371 1226 324 1253 347 1244 l 553 1090 l 550 1082 l 326 1121 m 24 10 b 96 350 92 29 96 50 l 96 692 b 24 1032 96 992 92 1013 l 24 1042 l 701 1042 b 726 1013 717 1042 721 1040 l 751 874 l 738 874 b 451 1029 696 997 644 1029 l 276 1029 l 276 582 l 353 582 b 514 696 494 582 496 633 l 525 696 l 525 456 l 514 456 b 353 569 496 518 494 569 l 276 569 l 276 13 l 469 13 b 769 186 676 13 732 42 l 782 186 l 765 25 b 739 0 761 -1 754 0 l 24 0 l 24 10 "},"É":{"ha":811,"x_min":0,"x_max":0,"o":"m 461 1226 b 535 1253 483 1244 508 1253 b 590 1199 568 1253 590 1226 b 506 1121 590 1161 568 1136 l 282 1082 l 278 1090 m 24 10 b 96 350 92 29 96 50 l 96 692 b 24 1032 96 992 92 1013 l 24 1042 l 701 1042 b 726 1013 717 1042 721 1040 l 751 874 l 738 874 b 451 1029 696 997 644 1029 l 276 1029 l 276 582 l 353 582 b 514 696 494 582 496 633 l 525 696 l 525 456 l 514 456 b 353 569 496 518 494 569 l 276 569 l 276 13 l 469 13 b 769 186 676 13 732 42 l 782 186 l 765 25 b 739 0 761 -1 754 0 l 24 0 l 24 10 "},"Ê":{"ha":811,"x_min":0,"x_max":0,"o":"m 601 1088 l 597 1079 l 413 1135 l 228 1079 l 224 1088 l 413 1258 m 24 10 b 96 350 92 29 96 50 l 96 692 b 24 1032 96 992 92 1013 l 24 1042 l 701 1042 b 726 1013 717 1042 721 1040 l 751 874 l 738 874 b 451 1029 696 997 644 1029 l 276 1029 l 276 582 l 353 582 b 514 696 494 582 496 633 l 525 696 l 525 456 l 514 456 b 353 569 496 518 494 569 l 276 569 l 276 13 l 469 13 b 769 186 676 13 732 42 l 782 186 l 765 25 b 739 0 761 -1 754 0 l 24 0 l 24 10 "},"Ë":{"ha":811,"x_min":0,"x_max":0,"o":"m 288 1090 b 206 1175 242 1090 206 1126 b 288 1256 206 1219 242 1256 b 369 1175 333 1256 369 1219 b 288 1090 369 1126 333 1090 m 538 1090 b 456 1175 492 1090 456 1126 b 538 1256 456 1219 492 1256 b 619 1175 583 1256 619 1219 b 538 1090 619 1126 583 1090 m 24 10 b 96 350 92 29 96 50 l 96 692 b 24 1032 96 992 92 1013 l 24 1042 l 701 1042 b 726 1013 717 1042 721 1040 l 751 874 l 738 874 b 451 1029 696 997 644 1029 l 276 1029 l 276 582 l 353 582 b 514 696 494 582 496 633 l 525 696 l 525 456 l 514 456 b 353 569 496 518 494 569 l 276 569 l 276 13 l 469 13 b 769 186 676 13 732 42 l 782 186 l 765 25 b 739 0 761 -1 754 0 l 24 0 l 24 10 "},"Ì":{"ha":368,"x_min":0,"x_max":0,"o":"m 96 1121 b 11 1199 33 1136 11 1161 b 67 1253 11 1226 33 1253 b 140 1226 93 1253 117 1244 l 322 1090 l 319 1082 l 96 1121 m 24 10 b 96 350 92 29 96 50 l 96 692 b 24 1032 96 993 92 1013 l 24 1042 l 344 1042 l 344 1032 b 272 692 276 1013 272 993 l 272 350 b 344 10 272 50 276 29 l 344 0 l 24 0 l 24 10 "},"Í":{"ha":368,"x_min":0,"x_max":0,"o":"m 232 1226 b 306 1253 254 1244 279 1253 b 361 1199 339 1253 361 1226 b 276 1121 361 1161 339 1136 l 53 1082 l 49 1090 m 24 10 b 96 350 92 29 96 50 l 96 692 b 24 1032 96 993 92 1013 l 24 1042 l 344 1042 l 344 1032 b 272 692 276 1013 272 993 l 272 350 b 344 10 272 50 276 29 l 344 0 l 24 0 l 24 10 "},"Î":{"ha":368,"x_min":0,"x_max":0,"o":"m 372 1088 l 368 1079 l 183 1135 l -1 1079 l -6 1088 l 183 1258 m 24 10 b 96 350 92 29 96 50 l 96 692 b 24 1032 96 993 92 1013 l 24 1042 l 344 1042 l 344 1032 b 272 692 276 1013 272 993 l 272 350 b 344 10 272 50 276 29 l 344 0 l 24 0 l 24 10 "},"Ï":{"ha":368,"x_min":0,"x_max":0,"o":"m 75 1090 b -7 1175 29 1090 -7 1126 b 75 1256 -7 1219 29 1256 b 157 1175 121 1256 157 1219 b 75 1090 157 1126 121 1090 m 293 1090 b 211 1175 247 1090 211 1126 b 293 1256 211 1219 247 1256 b 375 1175 339 1256 375 1219 b 293 1090 375 1126 339 1090 m 24 10 b 96 350 92 29 96 50 l 96 692 b 24 1032 96 993 92 1013 l 24 1042 l 344 1042 l 344 1032 b 272 692 276 1013 272 993 l 272 350 b 344 10 272 50 276 29 l 344 0 l 24 0 l 24 10 "},"Ñ":{"ha":890,"x_min":0,"x_max":0,"o":"m 446 1219 b 596 1211 501 1219 556 1211 b 678 1272 619 1211 649 1228 l 688 1269 b 581 1117 667 1175 626 1117 b 431 1125 526 1117 481 1125 b 353 1065 408 1125 385 1114 l 343 1068 b 446 1219 371 1175 408 1219 m 24 10 b 96 356 92 43 96 63 l 96 692 b 24 1032 96 992 92 1013 l 24 1042 l 272 1042 b 326 1000 299 1042 300 1039 l 792 281 l 792 686 b 710 1032 792 979 788 999 l 710 1042 l 878 1042 l 878 1032 b 806 686 810 999 806 979 l 806 -4 l 768 -4 l 110 1013 l 110 356 b 192 10 110 63 114 43 l 192 0 l 24 0 l 24 10 "},"Ò":{"ha":1040,"x_min":0,"x_max":0,"o":"m 433 1121 b 349 1199 371 1136 349 1161 b 404 1253 349 1226 371 1253 b 478 1226 431 1253 454 1244 l 660 1090 l 657 1082 l 433 1121 m 519 -18 b 47 522 274 -18 47 207 b 519 1056 47 838 274 1056 b 993 522 767 1056 993 838 b 519 -18 993 207 767 -18 m 519 -6 b 797 522 679 -6 797 154 b 519 1044 797 889 665 1044 b 243 522 375 1044 243 889 b 519 -6 243 154 360 -6 "},"Ó":{"ha":1040,"x_min":0,"x_max":0,"o":"m 568 1226 b 642 1253 590 1244 615 1253 b 697 1199 675 1253 697 1226 b 613 1121 697 1161 675 1136 l 389 1082 l 385 1090 m 519 -18 b 47 522 274 -18 47 207 b 519 1056 47 838 274 1056 b 993 522 767 1056 993 838 b 519 -18 993 207 767 -18 m 519 -6 b 797 522 679 -6 797 154 b 519 1044 797 889 665 1044 b 243 522 375 1044 243 889 b 519 -6 243 154 360 -6 "},"Ô":{"ha":1040,"x_min":0,"x_max":0,"o":"m 710 1088 l 706 1079 l 521 1135 l 336 1079 l 332 1088 l 521 1258 m 519 -18 b 47 522 274 -18 47 207 b 519 1056 47 838 274 1056 b 993 522 767 1056 993 838 b 519 -18 993 207 767 -18 m 519 -6 b 797 522 679 -6 797 154 b 519 1044 797 889 665 1044 b 243 522 375 1044 243 889 b 519 -6 243 154 360 -6 "},"Õ":{"ha":1040,"x_min":0,"x_max":0,"o":"m 461 1219 b 611 1211 517 1219 571 1211 b 693 1272 635 1211 664 1228 l 703 1269 b 596 1117 682 1175 642 1117 b 446 1125 542 1117 496 1125 b 368 1065 424 1125 400 1114 l 358 1068 b 461 1219 386 1175 424 1219 m 519 -18 b 47 522 274 -18 47 207 b 519 1056 47 838 274 1056 b 993 522 767 1056 993 838 b 519 -18 993 207 767 -18 m 519 -6 b 797 522 679 -6 797 154 b 519 1044 797 889 665 1044 b 243 522 375 1044 243 889 b 519 -6 243 154 360 -6 "},"Ö":{"ha":1040,"x_min":0,"x_max":0,"o":"m 396 1090 b 314 1175 350 1090 314 1126 b 396 1256 314 1219 350 1256 b 478 1175 442 1256 478 1219 b 396 1090 478 1126 442 1090 m 646 1090 b 564 1175 600 1090 564 1126 b 646 1256 564 1219 600 1256 b 728 1175 692 1256 728 1219 b 646 1090 728 1126 692 1090 m 519 -18 b 47 522 274 -18 47 207 b 519 1056 47 838 274 1056 b 993 522 767 1056 993 838 b 519 -18 993 207 767 -18 m 519 -6 b 797 522 679 -6 797 154 b 519 1044 797 889 665 1044 b 243 522 375 1044 243 889 b 519 -6 243 154 360 -6 "},"Ø":{"ha":1040,"x_min":0,"x_max":0,"o":"m 519 -18 b 282 56 435 -18 354 7 l 219 -69 l 207 -64 l 271 64 b 47 522 142 157 47 322 b 519 1056 47 838 274 1056 b 739 996 597 1056 671 1036 l 794 1107 l 807 1100 l 750 988 b 993 522 890 899 993 733 b 519 -18 993 207 767 -18 m 243 522 b 311 143 243 354 268 228 l 707 932 b 519 1044 656 1010 590 1044 b 243 522 375 1044 243 889 m 519 -6 b 797 522 679 -6 797 154 b 715 917 797 704 765 832 l 318 128 b 519 -6 368 35 438 -6 "},"Ù":{"ha":925,"x_min":0,"x_max":0,"o":"m 444 1121 b 360 1199 382 1136 360 1161 b 415 1253 360 1226 382 1253 b 489 1226 442 1253 465 1244 l 671 1090 l 668 1082 l 444 1121 m 494 -15 b 89 354 244 -15 89 106 l 89 692 b 19 1032 89 993 86 1014 l 19 1042 l 339 1042 l 339 1032 b 267 692 271 1013 267 993 l 267 324 b 500 -3 267 113 285 -3 b 818 349 696 -3 818 93 l 818 686 b 738 1032 818 978 814 999 l 738 1042 l 906 1042 l 906 1032 b 833 686 838 999 833 979 l 833 349 b 494 -15 833 88 704 -15 "},"Ú":{"ha":925,"x_min":0,"x_max":0,"o":"m 581 1226 b 654 1253 603 1244 628 1253 b 710 1199 688 1253 710 1226 b 625 1121 710 1161 688 1136 l 401 1082 l 397 1090 m 494 -15 b 89 354 244 -15 89 106 l 89 692 b 19 1032 89 993 86 1014 l 19 1042 l 339 1042 l 339 1032 b 267 692 271 1013 267 993 l 267 324 b 500 -3 267 113 285 -3 b 818 349 696 -3 818 93 l 818 686 b 738 1032 818 978 814 999 l 738 1042 l 906 1042 l 906 1032 b 833 686 838 999 833 979 l 833 349 b 494 -15 833 88 704 -15 "},"Û":{"ha":925,"x_min":0,"x_max":0,"o":"m 721 1088 l 717 1079 l 532 1135 l 347 1079 l 343 1088 l 532 1258 m 494 -15 b 89 354 244 -15 89 106 l 89 692 b 19 1032 89 993 86 1014 l 19 1042 l 339 1042 l 339 1032 b 267 692 271 1013 267 993 l 267 324 b 500 -3 267 113 285 -3 b 818 349 696 -3 818 93 l 818 686 b 738 1032 818 978 814 999 l 738 1042 l 906 1042 l 906 1032 b 833 686 838 999 833 979 l 833 349 b 494 -15 833 88 704 -15 "},"Ü":{"ha":925,"x_min":0,"x_max":0,"o":"m 407 1090 b 325 1175 361 1090 325 1126 b 407 1256 325 1219 361 1256 b 489 1175 453 1256 489 1219 b 407 1090 489 1126 453 1090 m 657 1090 b 575 1175 611 1090 575 1126 b 657 1256 575 1219 611 1256 b 739 1175 703 1256 739 1219 b 657 1090 739 1126 703 1090 m 494 -15 b 89 354 244 -15 89 106 l 89 692 b 19 1032 89 993 86 1014 l 19 1042 l 339 1042 l 339 1032 b 267 692 271 1013 267 993 l 267 324 b 500 -3 267 113 285 -3 b 818 349 696 -3 818 93 l 818 686 b 738 1032 818 978 814 999 l 738 1042 l 906 1042 l 906 1032 b 833 686 838 999 833 979 l 833 349 b 494 -15 833 88 704 -15 "},"ß":{"ha":761,"x_min":0,"x_max":0,"o":"m 244 213 b 300 10 244 46 244 25 l 300 0 l 31 0 l 31 10 b 86 213 85 24 86 46 l 86 633 l 21 633 l 21 644 b 88 761 81 656 88 669 l 88 776 b 388 1058 88 976 253 1058 b 643 890 531 1058 643 994 b 471 688 643 790 538 754 b 419 589 428 644 419 622 b 569 428 419 528 476 488 b 742 189 692 346 742 283 b 517 -10 742 67 633 -10 b 365 33 419 -10 399 33 b 343 11 353 33 347 22 l 331 11 l 331 188 l 342 188 b 517 1 368 67 418 1 b 624 115 588 1 624 54 b 482 300 624 188 589 231 b 325 499 375 371 325 421 b 451 686 325 588 400 631 b 515 869 506 742 515 799 b 388 1046 515 976 493 1046 b 244 851 299 1046 244 994 l 244 213 "},"à":{"ha":618,"x_min":0,"x_max":0,"o":"m 199 836 b 143 914 167 854 143 876 b 200 971 143 947 163 971 b 281 910 235 971 254 953 l 400 729 l 393 721 l 199 836 m 194 -11 b 26 133 94 -11 26 40 b 275 322 26 260 147 267 l 299 332 b 385 440 357 357 385 371 l 385 547 b 281 646 385 624 331 646 b 189 581 225 646 210 624 b 115 514 172 543 158 514 b 57 565 78 514 57 538 b 278 658 57 625 157 658 b 542 483 407 658 542 622 l 542 179 b 588 18 542 40 550 18 b 624 31 603 18 614 25 l 626 24 b 515 -8 614 14 586 -8 b 388 79 442 -8 399 21 l 379 71 b 194 -11 331 25 283 -11 m 186 161 b 271 24 186 72 215 24 b 379 85 304 24 340 47 l 386 92 b 385 113 385 97 385 106 l 385 381 b 301 321 374 354 347 342 l 278 310 b 186 161 213 283 186 239 "},"á":{"ha":618,"x_min":0,"x_max":0,"o":"m 319 910 b 400 971 346 953 365 971 b 457 914 438 971 457 947 b 401 836 457 876 433 854 l 207 721 l 200 729 m 194 -11 b 26 133 94 -11 26 40 b 275 322 26 260 147 267 l 299 332 b 385 440 357 357 385 371 l 385 547 b 281 646 385 624 331 646 b 189 581 225 646 210 624 b 115 514 172 543 158 514 b 57 565 78 514 57 538 b 278 658 57 625 157 658 b 542 483 407 658 542 622 l 542 179 b 588 18 542 40 550 18 b 624 31 603 18 614 25 l 626 24 b 515 -8 614 14 586 -8 b 388 79 442 -8 399 21 l 379 71 b 194 -11 331 25 283 -11 m 186 161 b 271 24 186 72 215 24 b 379 85 304 24 340 47 l 386 92 b 385 113 385 97 385 106 l 385 381 b 301 321 374 354 347 342 l 278 310 b 186 161 213 283 186 239 "},"â":{"ha":618,"x_min":0,"x_max":0,"o":"m 454 724 l 446 718 l 290 825 l 135 718 l 126 724 l 290 978 m 194 -11 b 26 133 94 -11 26 40 b 275 322 26 260 147 267 l 299 332 b 385 440 357 357 385 371 l 385 547 b 281 646 385 624 331 646 b 189 581 225 646 210 624 b 115 514 172 543 158 514 b 57 565 78 514 57 538 b 278 658 57 625 157 658 b 542 483 407 658 542 622 l 542 179 b 588 18 542 40 550 18 b 624 31 603 18 614 25 l 626 24 b 515 -8 614 14 586 -8 b 388 79 442 -8 399 21 l 379 71 b 194 -11 331 25 283 -11 m 186 161 b 271 24 186 72 215 24 b 379 85 304 24 340 47 l 386 92 b 385 113 385 97 385 106 l 385 381 b 301 321 374 354 347 342 l 278 310 b 186 161 213 283 186 239 "},"ã":{"ha":618,"x_min":0,"x_max":0,"o":"m 231 896 b 376 882 286 896 332 882 b 451 943 400 882 419 897 l 460 939 b 357 788 438 851 406 788 b 213 801 306 788 263 801 b 138 742 186 801 171 790 l 128 746 b 231 896 160 840 188 896 m 194 -11 b 26 133 94 -11 26 40 b 275 322 26 260 147 267 l 299 332 b 385 440 357 357 385 371 l 385 547 b 281 646 385 624 331 646 b 189 581 225 646 210 624 b 115 514 172 543 158 514 b 57 565 78 514 57 538 b 278 658 57 625 157 658 b 542 483 407 658 542 622 l 542 179 b 588 18 542 40 550 18 b 624 31 603 18 614 25 l 626 24 b 515 -8 614 14 586 -8 b 388 79 442 -8 399 21 l 379 71 b 194 -11 331 25 283 -11 m 186 161 b 271 24 186 72 215 24 b 379 85 304 24 340 47 l 386 92 b 385 113 385 97 385 106 l 385 381 b 301 321 374 354 347 342 l 278 310 b 186 161 213 283 186 239 "},"ä":{"ha":618,"x_min":0,"x_max":0,"o":"m 172 740 b 90 826 126 740 90 776 b 172 906 90 871 126 906 b 254 826 221 906 254 871 b 172 740 254 776 221 740 m 408 740 b 326 826 360 740 326 776 b 408 906 326 871 360 906 b 490 826 454 906 490 871 b 408 740 490 776 454 740 m 194 -11 b 26 133 94 -11 26 40 b 275 322 26 260 147 267 l 299 332 b 385 440 357 357 385 371 l 385 547 b 281 646 385 624 331 646 b 189 581 225 646 210 624 b 115 514 172 543 158 514 b 57 565 78 514 57 538 b 278 658 57 625 157 658 b 542 483 407 658 542 622 l 542 179 b 588 18 542 40 550 18 b 624 31 603 18 614 25 l 626 24 b 515 -8 614 14 586 -8 b 388 79 442 -8 399 21 l 379 71 b 194 -11 331 25 283 -11 m 186 161 b 271 24 186 72 215 24 b 379 85 304 24 340 47 l 386 92 b 385 113 385 97 385 106 l 385 381 b 301 321 374 354 347 342 l 278 310 b 186 161 213 283 186 239 "},"å":{"ha":618,"x_min":0,"x_max":0,"o":"m 172 843 b 290 950 172 906 222 950 b 408 843 361 950 408 906 b 290 736 408 778 361 736 b 172 843 219 736 172 778 m 232 843 b 290 749 232 781 251 749 b 350 843 331 749 350 781 b 290 938 350 903 328 938 b 232 843 253 938 232 903 m 194 -11 b 26 133 94 -11 26 40 b 275 322 26 260 147 267 l 299 332 b 385 440 357 357 385 371 l 385 547 b 281 646 385 624 331 646 b 189 581 225 646 210 624 b 115 514 172 543 158 514 b 57 565 78 514 57 538 b 278 658 57 625 157 658 b 542 483 407 658 542 622 l 542 179 b 588 18 542 40 550 18 b 624 31 603 18 614 25 l 626 24 b 515 -8 614 14 586 -8 b 388 79 442 -8 399 21 l 379 71 b 194 -11 331 25 283 -11 m 186 161 b 271 24 186 72 215 24 b 379 85 304 24 340 47 l 386 92 b 385 113 385 97 385 106 l 385 381 b 301 321 374 354 347 342 l 278 310 b 186 161 213 283 186 239 "},"æ":{"ha":979,"x_min":0,"x_max":0,"o":"m 196 -11 b 26 133 96 -11 26 40 b 275 322 26 260 147 267 l 299 332 b 385 440 357 357 385 371 l 385 547 b 281 646 385 624 331 646 b 189 581 225 646 210 624 b 115 514 172 543 158 514 b 57 565 78 514 57 538 b 278 658 57 625 157 658 b 503 590 365 658 453 642 b 689 660 563 639 632 660 b 950 451 863 660 939 546 l 553 451 b 546 338 549 418 546 381 b 756 15 546 146 615 15 b 928 75 835 15 882 40 l 936 65 b 719 -11 888 26 826 -11 b 442 124 613 -11 507 29 l 386 71 b 196 -11 335 24 293 -11 m 689 647 b 554 464 626 647 575 599 l 807 464 b 689 647 797 575 771 647 m 186 161 b 271 24 186 72 215 24 b 386 85 304 24 343 46 l 436 132 b 385 329 404 183 385 247 l 385 381 b 301 321 374 354 347 342 l 278 310 b 186 161 213 283 186 239 "},"ç":{"ha":590,"x_min":0,"x_max":0,"o":"m 353 -10 b 303 -6 336 -10 319 -8 l 268 -67 b 403 -169 346 -76 403 -115 b 169 -283 403 -247 321 -279 l 168 -272 b 304 -203 246 -260 304 -236 b 210 -150 304 -171 267 -154 l 206 -143 l 289 -4 b 32 314 144 24 32 143 b 357 660 32 536 218 660 b 568 557 472 660 568 621 b 511 506 568 525 544 506 b 426 599 456 506 444 538 b 358 647 415 636 396 647 b 196 351 268 647 196 568 b 393 17 196 124 275 17 b 565 94 472 17 525 46 l 574 88 b 353 -10 531 33 458 -10 "},"è":{"ha":631,"x_min":0,"x_max":0,"o":"m 253 836 b 197 914 221 854 197 876 b 254 971 197 947 217 971 b 335 910 289 971 308 953 l 454 729 l 447 721 l 253 836 m 368 -11 b 32 329 201 -11 32 90 b 338 660 32 558 215 660 b 601 451 510 660 590 546 l 200 451 b 193 338 196 418 193 381 b 404 15 193 146 264 15 b 579 75 483 15 531 40 l 586 65 b 368 -11 538 26 475 -11 m 338 647 b 201 464 275 647 222 599 l 458 464 b 338 647 447 575 419 647 "},"é":{"ha":631,"x_min":0,"x_max":0,"o":"m 372 910 b 453 971 399 953 418 971 b 510 914 490 971 510 947 b 454 836 510 876 486 854 l 260 721 l 253 729 m 368 -11 b 32 329 201 -11 32 90 b 338 660 32 558 215 660 b 601 451 510 660 590 546 l 200 451 b 193 338 196 418 193 381 b 404 15 193 146 264 15 b 579 75 483 15 531 40 l 586 65 b 368 -11 538 26 475 -11 m 338 647 b 201 464 275 647 222 599 l 458 464 b 338 647 447 575 419 647 "},"ê":{"ha":631,"x_min":0,"x_max":0,"o":"m 507 724 l 499 718 l 343 825 l 188 718 l 179 724 l 343 978 m 368 -11 b 32 329 201 -11 32 90 b 338 660 32 558 215 660 b 601 451 510 660 590 546 l 200 451 b 193 338 196 418 193 381 b 404 15 193 146 264 15 b 579 75 483 15 531 40 l 586 65 b 368 -11 538 26 475 -11 m 338 647 b 201 464 275 647 222 599 l 458 464 b 338 647 447 575 419 647 "},"ë":{"ha":631,"x_min":0,"x_max":0,"o":"m 225 740 b 143 826 179 740 143 776 b 225 906 143 871 179 906 b 307 826 274 906 307 871 b 225 740 307 776 274 740 m 461 740 b 379 826 413 740 379 776 b 461 906 379 871 413 906 b 543 826 507 906 543 871 b 461 740 543 776 507 740 m 368 -11 b 32 329 201 -11 32 90 b 338 660 32 558 215 660 b 601 451 510 660 590 546 l 200 451 b 193 338 196 418 193 381 b 404 15 193 146 264 15 b 579 75 483 15 531 40 l 586 65 b 368 -11 538 26 475 -11 m 338 647 b 201 464 275 647 222 599 l 458 464 b 338 647 447 575 419 647 "},"ì":{"ha":313,"x_min":0,"x_max":0,"o":"m 65 836 b 10 914 33 854 10 876 b 67 971 10 947 29 971 b 147 910 101 971 121 953 l 267 729 l 260 721 l 65 836 m 19 10 b 78 213 75 25 78 46 l 78 365 b 21 538 78 528 78 531 l 21 549 l 235 667 l 235 213 b 296 10 235 46 236 25 l 296 0 l 19 0 l 19 10 "},"í":{"ha":313,"x_min":0,"x_max":0,"o":"m 186 910 b 267 971 213 953 232 971 b 324 914 304 971 324 947 b 268 836 324 876 300 854 l 74 721 l 67 729 m 19 10 b 78 213 75 25 78 46 l 78 365 b 21 538 78 528 78 531 l 21 549 l 235 667 l 235 213 b 296 10 235 46 236 25 l 296 0 l 19 0 l 19 10 "},"î":{"ha":313,"x_min":0,"x_max":0,"o":"m 321 724 l 313 718 l 157 825 l 1 718 l -7 724 l 157 978 m 19 10 b 78 213 75 25 78 46 l 78 365 b 21 538 78 528 78 531 l 21 549 l 235 667 l 235 213 b 296 10 235 46 236 25 l 296 0 l 19 0 l 19 10 "},"ï":{"ha":313,"x_min":0,"x_max":0,"o":"m 56 740 b -26 826 10 740 -26 776 b 56 906 -26 871 10 906 b 138 826 104 906 138 871 b 56 740 138 776 104 740 m 256 740 b 172 826 207 740 172 776 b 256 906 172 871 207 906 b 336 826 301 906 336 871 b 256 740 336 776 301 740 m 19 10 b 78 213 75 25 78 46 l 78 365 b 21 538 78 528 78 531 l 21 549 l 235 667 l 235 213 b 296 10 235 46 236 25 l 296 0 l 19 0 l 19 10 "},"ñ":{"ha":718,"x_min":0,"x_max":0,"o":"m 313 896 b 458 882 368 896 414 882 b 533 943 482 882 501 897 l 542 939 b 439 788 519 851 488 788 b 294 801 388 788 344 801 b 219 742 268 801 253 790 l 210 746 b 313 896 242 840 269 896 m 21 10 b 76 213 75 24 76 46 l 76 365 b 19 538 76 528 76 531 l 19 549 l 233 667 l 233 508 l 268 542 b 485 658 340 613 400 658 b 646 483 564 658 646 619 l 646 213 b 701 10 646 46 646 25 l 701 0 l 425 0 l 425 10 b 488 213 481 25 488 46 l 488 528 b 419 621 488 599 457 621 b 268 525 382 621 335 590 l 233 492 l 233 213 b 294 10 233 46 235 25 l 294 0 l 21 0 l 21 10 "},"ò":{"ha":704,"x_min":0,"x_max":0,"o":"m 261 836 b 206 914 229 854 206 876 b 263 971 206 947 225 971 b 343 910 297 971 317 953 l 463 729 l 456 721 l 261 836 m 353 -11 b 32 321 231 -11 32 76 b 353 661 32 561 231 661 b 672 321 475 661 672 561 b 353 -11 672 76 475 -11 m 353 1 b 508 321 438 1 508 74 b 353 649 508 567 438 649 b 196 321 268 649 196 567 b 353 1 196 74 268 1 "},"ó":{"ha":704,"x_min":0,"x_max":0,"o":"m 381 910 b 461 971 407 953 426 971 b 518 914 499 971 518 947 b 463 836 518 876 494 854 l 268 721 l 261 729 m 353 -11 b 32 321 231 -11 32 76 b 353 661 32 561 231 661 b 672 321 475 661 672 561 b 353 -11 672 76 475 -11 m 353 1 b 508 321 438 1 508 74 b 353 649 508 567 438 649 b 196 321 268 649 196 567 b 353 1 196 74 268 1 "},"ô":{"ha":704,"x_min":0,"x_max":0,"o":"m 515 724 l 507 718 l 351 825 l 196 718 l 188 724 l 351 978 m 353 -11 b 32 321 231 -11 32 76 b 353 661 32 561 231 661 b 672 321 475 661 672 561 b 353 -11 672 76 475 -11 m 353 1 b 508 321 438 1 508 74 b 353 649 508 567 438 649 b 196 321 268 649 196 567 b 353 1 196 74 268 1 "},"õ":{"ha":704,"x_min":0,"x_max":0,"o":"m 292 896 b 438 882 347 896 393 882 b 513 943 461 882 481 897 l 521 939 b 418 788 499 851 467 788 b 274 801 367 788 324 801 b 199 742 247 801 232 790 l 189 746 b 292 896 221 840 249 896 m 353 -11 b 32 321 231 -11 32 76 b 353 661 32 561 231 661 b 672 321 475 661 672 561 b 353 -11 672 76 475 -11 m 353 1 b 508 321 438 1 508 74 b 353 649 508 567 438 649 b 196 321 268 649 196 567 b 353 1 196 74 268 1 "},"ö":{"ha":704,"x_min":0,"x_max":0,"o":"m 233 740 b 151 826 188 740 151 776 b 233 906 151 871 188 906 b 315 826 282 906 315 871 b 233 740 315 776 282 740 m 469 740 b 388 826 421 740 388 776 b 469 906 388 871 421 906 b 551 826 515 906 551 871 b 469 740 551 776 515 740 m 353 -11 b 32 321 231 -11 32 76 b 353 661 32 561 231 661 b 672 321 475 661 672 561 b 353 -11 672 76 475 -11 m 353 1 b 508 321 438 1 508 74 b 353 649 508 567 438 649 b 196 321 268 649 196 567 b 353 1 196 74 268 1 "},"÷":{"ha":653,"x_min":0,"x_max":0,"o":"m 238 699 b 328 789 238 747 278 789 b 418 699 376 789 418 747 b 328 608 418 650 376 608 b 238 699 278 608 238 650 m 592 496 l 592 479 l 63 479 l 63 496 m 238 275 b 328 365 238 324 278 365 b 418 275 376 365 418 324 b 328 183 418 225 376 183 b 238 275 278 183 238 225 "},"ø":{"ha":704,"x_min":0,"x_max":0,"o":"m 510 617 l 499 622 l 544 711 l 556 704 m 196 321 b 226 101 196 221 206 151 l 192 33 b 32 321 106 82 32 172 b 353 661 32 561 231 661 b 499 622 396 661 449 649 l 468 565 b 353 649 440 625 399 649 b 196 321 268 649 196 567 m 510 617 b 672 321 596 564 672 471 b 353 -11 672 76 475 -11 b 203 28 308 -11 254 0 l 233 86 b 353 1 263 24 304 1 b 508 321 438 1 508 74 b 475 550 508 425 496 499 l 510 617 m 468 565 b 475 550 472 560 474 556 l 233 86 l 226 101 m 192 33 b 203 28 193 32 197 29 l 150 -74 l 139 -67 "},"ù":{"ha":700,"x_min":0,"x_max":0,"o":"m 283 836 b 228 914 251 854 228 876 b 285 971 228 947 247 971 b 365 910 319 971 339 953 l 485 729 l 478 721 l 283 836 m 235 -11 b 74 160 154 -11 74 28 l 74 365 b 17 538 74 528 74 531 l 17 549 l 232 667 l 232 119 b 299 26 232 49 264 26 b 451 126 336 26 385 61 l 469 143 l 469 365 b 413 538 469 528 469 531 l 413 549 l 626 667 l 626 213 b 685 10 626 46 629 25 l 685 0 l 469 0 l 469 126 l 451 110 b 235 -11 378 39 319 -11 "},"ú":{"ha":700,"x_min":0,"x_max":0,"o":"m 403 910 b 483 971 429 953 449 971 b 540 914 521 971 540 947 b 485 836 540 876 517 854 l 290 721 l 283 729 m 235 -11 b 74 160 154 -11 74 28 l 74 365 b 17 538 74 528 74 531 l 17 549 l 232 667 l 232 119 b 299 26 232 49 264 26 b 451 126 336 26 385 61 l 469 143 l 469 365 b 413 538 469 528 469 531 l 413 549 l 626 667 l 626 213 b 685 10 626 46 629 25 l 685 0 l 469 0 l 469 126 l 451 110 b 235 -11 378 39 319 -11 "},"û":{"ha":700,"x_min":0,"x_max":0,"o":"m 538 724 l 529 718 l 374 825 l 218 718 l 210 724 l 374 978 m 235 -11 b 74 160 154 -11 74 28 l 74 365 b 17 538 74 528 74 531 l 17 549 l 232 667 l 232 119 b 299 26 232 49 264 26 b 451 126 336 26 385 61 l 469 143 l 469 365 b 413 538 469 528 469 531 l 413 549 l 626 667 l 626 213 b 685 10 626 46 629 25 l 685 0 l 469 0 l 469 126 l 451 110 b 235 -11 378 39 319 -11 "},"ü":{"ha":700,"x_min":0,"x_max":0,"o":"m 256 740 b 174 826 210 740 174 776 b 256 906 174 871 210 906 b 338 826 304 906 338 871 b 256 740 338 776 304 740 m 492 740 b 410 826 443 740 410 776 b 492 906 410 871 443 906 b 574 826 538 906 574 871 b 492 740 574 776 538 740 m 235 -11 b 74 160 154 -11 74 28 l 74 365 b 17 538 74 528 74 531 l 17 549 l 232 667 l 232 119 b 299 26 232 49 264 26 b 451 126 336 26 385 61 l 469 143 l 469 365 b 413 538 469 528 469 531 l 413 549 l 626 667 l 626 213 b 685 10 626 46 629 25 l 685 0 l 469 0 l 469 126 l 451 110 b 235 -11 378 39 319 -11 "},"ÿ":{"ha":629,"x_min":0,"x_max":0,"o":"m 250 740 b 168 826 204 740 168 776 b 250 906 168 871 204 906 b 332 826 299 906 332 871 b 250 740 332 776 299 740 m 486 740 b 404 826 438 740 404 776 b 486 906 404 871 438 906 b 568 826 532 906 568 871 b 486 740 568 776 532 740 m 143 -237 b 68 -179 93 -237 68 -212 b 118 -128 68 -142 92 -128 b 215 -164 167 -128 174 -164 b 301 -44 239 -164 261 -144 l 313 -17 l 90 497 b -4 639 38 617 29 628 l -4 647 l 258 647 l 258 639 b 250 500 218 632 203 614 l 388 171 l 507 467 b 482 639 567 614 536 632 l 482 647 l 633 647 l 633 639 b 522 467 594 628 582 615 l 315 -49 b 143 -237 260 -187 215 -237 "},"ı":{"ha":315,"x_min":0,"x_max":0,"o":"m 19 10 b 78 213 75 25 78 46 l 78 365 b 21 538 78 528 78 531 l 21 549 l 235 667 l 235 213 b 296 10 235 46 236 25 l 296 0 l 19 0 l 19 10 "},"Œ":{"ha":1389,"x_min":0,"x_max":0,"o":"m 1092 456 b 931 569 1074 518 1072 569 l 875 569 l 875 13 l 1047 13 b 1346 186 1254 13 1308 42 l 1360 186 l 1343 25 b 1317 0 1339 -1 1332 0 l 571 0 b 47 522 271 0 47 189 b 569 1042 47 838 268 1042 l 1279 1042 b 1304 1013 1294 1042 1299 1040 l 1329 874 l 1315 874 b 1029 1029 1274 997 1222 1029 l 875 1029 l 875 582 l 931 582 b 1092 696 1072 582 1074 633 l 1101 696 l 1101 456 l 1092 456 m 571 1029 b 242 522 350 1029 242 876 b 571 13 242 161 378 13 b 693 356 692 13 693 49 l 693 681 b 571 1029 693 994 688 1029 "},"œ":{"ha":1106,"x_min":0,"x_max":0,"o":"m 351 -10 b 32 321 229 -10 32 78 b 351 660 32 563 229 660 b 586 547 424 660 519 625 b 813 660 649 625 740 660 b 1076 451 986 660 1065 546 l 675 451 b 668 338 671 418 668 381 b 879 15 668 146 740 15 b 1054 75 958 15 1008 40 l 1063 65 b 843 -11 1014 26 953 -11 b 588 99 744 -11 653 22 b 351 -10 521 22 425 -10 m 351 3 b 506 321 435 3 506 72 b 351 649 506 567 435 649 b 196 321 267 649 196 567 b 351 3 196 72 267 3 m 813 647 b 676 464 751 647 697 599 l 933 464 b 813 647 924 575 894 647 "},"Ÿ":{"ha":871,"x_min":0,"x_max":0,"o":"m 385 1090 b 303 1175 339 1090 303 1126 b 385 1256 303 1219 339 1256 b 467 1175 431 1256 467 1219 b 385 1090 467 1126 431 1090 m 635 1090 b 553 1175 589 1090 553 1126 b 635 1256 553 1219 589 1256 b 717 1175 681 1256 717 1219 b 635 1090 717 1126 681 1090 m 281 10 b 353 350 349 29 353 50 l 353 513 l 147 867 b 8 1033 94 957 68 1003 l 8 1042 l 321 1042 l 321 1033 b 304 929 282 1018 271 989 l 524 546 l 703 867 b 710 1033 754 963 778 1011 l 710 1042 l 863 1042 l 863 1033 b 718 867 821 1015 789 997 l 531 531 l 531 350 b 603 10 531 50 535 29 l 603 0 l 281 0 l 281 10 "},"ƒ":{"ha":551,"x_min":0,"x_max":0,"o":"m 188 647 l 208 799 b 446 1058 235 993 349 1058 b 590 971 528 1058 590 1031 b 536 921 590 949 575 921 b 471 979 493 921 478 939 b 435 1046 461 1033 458 1046 b 365 872 397 1046 382 1006 l 338 647 l 467 647 l 467 633 l 335 633 l 279 190 b 15 -165 246 -61 138 -165 b -142 -76 -64 -165 -142 -139 b -85 -24 -142 -53 -125 -24 b -22 -87 -42 -24 -29 -44 b 24 -153 -12 -137 -6 -153 b 129 204 76 -153 89 -94 l 186 633 l 97 633 l 97 647 "},"ˆ":{"ha":619,"x_min":0,"x_max":0,"o":"m 481 724 l 472 718 l 317 825 l 161 718 l 153 724 l 317 978 "},"ˇ":{"ha":619,"x_min":0,"x_max":0,"o":"m 317 881 l 472 988 l 481 982 l 317 729 l 153 982 l 161 988 "},"˘":{"ha":619,"x_min":0,"x_max":0,"o":"m 310 829 b 435 915 383 829 419 872 l 447 915 b 310 738 447 831 404 738 b 171 917 214 738 171 826 l 183 917 b 310 829 196 874 233 829 "},"˙":{"ha":619,"x_min":0,"x_max":0,"o":"m 308 739 b 221 828 260 739 221 779 b 308 914 221 876 260 914 b 397 828 358 914 397 876 b 308 739 397 779 358 739 "},"˚":{"ha":619,"x_min":0,"x_max":0,"o":"m 203 843 b 321 950 203 906 253 950 b 439 843 392 950 439 906 b 321 736 439 778 392 736 b 203 843 250 736 203 778 m 263 843 b 321 749 263 781 282 749 b 381 843 361 749 381 781 b 321 938 381 903 358 938 b 263 843 283 938 263 903 "},"˛":{"ha":619,"x_min":0,"x_max":0,"o":"m 311 -243 b 181 -150 238 -243 181 -210 b 368 0 181 -67 307 -11 l 385 0 b 324 -124 357 -22 324 -58 b 388 -197 324 -168 347 -197 b 436 -176 408 -197 421 -189 l 442 -185 b 311 -243 428 -199 394 -243 "},"˜":{"ha":619,"x_min":0,"x_max":0,"o":"m 242 896 b 388 882 297 896 343 882 b 463 943 411 882 431 897 l 471 939 b 368 788 449 851 417 788 b 224 801 317 788 274 801 b 149 742 197 801 182 790 l 139 746 b 242 896 171 840 199 896 "},"˝":{"ha":619,"x_min":0,"x_max":0,"o":"m 203 932 b 268 1004 214 975 229 1004 b 319 950 303 1004 319 982 b 293 892 319 931 311 911 l 165 743 l 157 746 m 381 932 b 446 1004 392 975 407 1004 b 497 950 479 1004 497 982 b 472 892 497 931 489 911 l 343 743 l 335 746 "},"–":{"ha":699,"x_min":0,"x_max":0,"o":"m 642 399 l 642 382 l 57 382 l 57 399 "},"—":{"ha":1224,"x_min":0,"x_max":0,"o":"m 1167 399 l 1167 382 l 57 382 l 57 399 "},"‘":{"ha":303,"x_min":0,"x_max":0,"o":"m 110 907 b 169 935 119 922 138 935 b 243 857 210 935 243 901 b 158 774 243 806 204 774 b 63 886 110 774 63 808 b 200 1086 63 986 122 1049 l 206 1076 b 96 942 135 1039 96 993 b 110 907 96 925 100 914 "},"’":{"ha":303,"x_min":0,"x_max":0,"o":"m 193 926 b 133 899 182 911 165 899 b 60 976 93 899 60 932 b 144 1060 60 1028 99 1060 b 240 947 190 1060 240 1025 b 101 747 240 847 181 785 l 96 757 b 207 892 167 794 207 840 b 193 926 207 908 203 919 "},"‚":{"ha":299,"x_min":0,"x_max":0,"o":"m 192 21 b 132 -7 181 6 164 -7 b 58 71 92 -7 58 26 b 143 154 58 122 97 154 b 239 42 189 154 239 119 b 100 -158 239 -58 179 -121 l 94 -149 b 206 -14 165 -111 206 -65 b 192 21 206 3 201 14 "},"“":{"ha":519,"x_min":0,"x_max":0,"o":"m 110 907 b 169 935 119 922 138 935 b 243 857 210 935 243 901 b 158 774 243 806 204 774 b 63 886 110 774 63 808 b 200 1086 63 986 122 1049 l 206 1076 b 96 942 135 1039 96 993 b 110 907 96 925 100 914 m 326 907 b 388 935 336 922 354 935 b 461 857 426 935 461 901 b 375 774 461 806 421 774 b 279 886 326 774 279 808 b 417 1086 279 986 339 1049 l 424 1076 b 313 942 353 1039 313 993 b 326 907 313 925 319 913 "},"”":{"ha":519,"x_min":0,"x_max":0,"o":"m 193 926 b 133 899 182 911 165 899 b 60 976 93 899 60 932 b 144 1060 60 1028 99 1060 b 240 947 190 1060 240 1025 b 101 747 240 847 181 785 l 96 757 b 207 892 167 794 207 840 b 193 926 207 908 203 919 m 410 926 b 350 899 400 911 382 899 b 276 976 310 899 276 932 b 361 1060 276 1028 317 1060 b 458 947 410 1060 458 1025 b 319 747 458 847 397 785 l 314 757 b 424 892 385 794 424 840 b 410 926 424 908 417 921 "},"„":{"ha":515,"x_min":0,"x_max":0,"o":"m 192 21 b 132 -7 181 6 164 -7 b 58 71 92 -7 58 26 b 143 154 58 122 97 154 b 239 42 189 154 239 119 b 100 -158 239 -58 179 -121 l 94 -149 b 206 -14 165 -111 206 -65 b 192 21 206 3 201 14 m 408 21 b 349 -7 399 6 381 -7 b 275 71 308 -7 275 26 b 360 154 275 122 315 154 b 457 42 408 154 457 119 b 318 -158 457 -58 396 -121 l 313 -149 b 422 -14 383 -111 422 -65 b 408 21 422 3 415 15 "},"†":{"ha":529,"x_min":0,"x_max":0,"o":"m 260 -3 b 188 603 249 217 199 557 b 258 772 222 643 258 707 b 100 706 204 772 164 706 b 18 779 46 706 18 740 b 100 851 18 818 46 851 b 258 783 164 851 204 783 b 185 967 258 843 185 896 b 265 1050 185 1011 217 1050 b 346 967 314 1050 346 1011 b 272 783 346 896 272 843 b 429 851 328 783 364 851 b 511 779 483 851 511 818 b 429 706 511 740 483 706 b 272 772 364 706 326 772 b 343 603 272 707 308 643 b 272 -3 332 561 278 217 l 260 -3 "},"‡":{"ha":529,"x_min":0,"x_max":0,"o":"m 265 -11 b 185 72 217 -11 185 28 b 258 256 185 143 258 196 b 100 188 201 256 164 188 b 18 260 46 188 18 221 b 100 333 18 299 46 333 b 258 267 163 333 201 267 b 182 519 258 372 225 454 b 258 772 225 586 258 668 b 100 706 201 772 163 706 b 18 779 46 706 18 740 b 100 851 18 818 46 851 b 258 783 164 851 201 783 b 185 967 258 843 185 896 b 265 1050 185 1011 217 1050 b 346 967 314 1050 346 1011 b 272 783 346 896 272 843 b 429 851 328 783 364 851 b 511 779 483 851 511 818 b 429 706 511 740 483 706 b 272 772 364 706 328 772 b 347 519 272 668 307 586 b 272 267 307 453 272 372 b 429 333 328 267 364 333 b 511 260 483 333 511 299 b 429 188 511 221 483 188 b 272 256 364 188 328 256 b 346 72 272 196 346 143 b 265 -11 346 28 314 -11 "},"•":{"ha":507,"x_min":0,"x_max":0,"o":"m 254 583 b 439 399 361 583 439 504 b 254 213 439 292 361 213 b 68 399 147 213 68 292 b 254 583 68 504 147 583 "},"…":{"ha":943,"x_min":0,"x_max":0,"o":"m 163 -19 b 68 74 108 -19 68 19 b 163 168 68 129 108 168 b 256 74 217 168 256 129 b 163 -19 256 19 217 -19 m 472 -19 b 378 74 418 -19 378 19 b 472 168 378 129 418 168 b 565 74 526 168 565 129 b 472 -19 565 19 526 -19 m 781 -19 b 686 74 726 -19 686 19 b 781 168 686 129 726 168 b 874 74 835 168 874 129 b 781 -19 874 19 835 -19 "},"‰":{"ha":1560,"x_min":0,"x_max":0,"o":"m 268 526 b 32 789 153 526 32 628 b 268 1050 32 950 153 1050 b 504 789 381 1050 504 950 b 268 526 504 628 381 526 m 846 1047 l 863 1036 l 181 -3 l 164 8 m 268 539 b 383 789 322 539 383 606 b 268 1038 383 972 322 1038 b 154 789 214 1038 154 972 b 268 539 154 606 214 539 m 763 -8 b 526 254 647 -8 526 93 b 763 515 526 415 647 515 b 1000 254 874 515 1000 415 b 763 -8 1000 93 874 -8 m 1290 -8 b 1056 254 1178 -8 1056 93 b 1290 515 1056 415 1178 515 b 1528 254 1401 515 1528 415 b 1290 -8 1528 93 1401 -8 m 763 4 b 878 254 817 4 878 71 b 763 503 878 438 817 503 b 649 254 708 503 649 438 b 763 4 649 71 708 4 m 1290 4 b 1406 254 1346 4 1406 71 b 1290 503 1406 438 1346 503 b 1176 254 1236 503 1176 438 b 1290 4 1176 71 1236 4 "},"‹":{"ha":340,"x_min":0,"x_max":0,"o":"m 51 325 l 281 550 l 289 544 l 186 319 l 290 94 l 282 89 l 51 314 "},"›":{"ha":340,"x_min":0,"x_max":0,"o":"m 154 319 l 51 544 l 60 550 l 289 325 l 289 314 l 58 89 l 50 94 "},"⁄":{"ha":690,"x_min":0,"x_max":0,"o":"m 603 526 l 603 515 l 88 515 l 88 526 "},"€":{"ha":857,"x_min":0,"x_max":0,"o":"m 108 481 b 107 522 107 496 107 507 b 110 583 107 543 108 563 l 13 583 l 13 599 l 111 599 b 540 1050 140 893 349 1050 b 824 889 707 1050 824 979 b 751 818 824 854 800 818 b 665 897 707 818 676 842 b 540 1039 646 981 664 1039 b 299 599 396 1039 308 893 l 601 599 l 601 583 l 297 583 l 297 543 b 299 481 297 521 297 501 l 601 481 l 601 465 l 299 465 b 553 13 314 143 411 13 b 797 153 688 13 749 86 l 807 146 b 529 -12 767 85 694 -12 b 108 465 283 -12 126 182 l 13 465 l 13 481 "},"™":{"ha":986,"x_min":0,"x_max":0,"o":"m 160 625 b 190 763 186 636 190 643 l 190 1033 l 164 1033 b 60 947 101 1033 75 1018 l 51 947 l 60 1031 b 69 1042 61 1042 64 1042 l 393 1042 b 403 1031 399 1042 401 1042 l 413 947 l 406 947 b 299 1033 389 1015 364 1033 l 272 1033 l 272 763 b 304 625 272 643 275 636 l 304 619 l 160 619 l 160 625 m 453 625 b 483 764 482 640 483 649 l 483 900 b 453 1036 483 1019 482 1025 l 453 1042 l 569 1042 b 579 1029 574 1042 575 1042 l 686 731 l 801 1042 l 917 1042 l 917 1036 b 885 900 889 1029 885 1018 l 885 761 b 918 625 885 643 890 632 l 918 619 l 775 619 l 775 625 b 801 761 801 632 801 643 l 801 1015 l 653 618 l 647 619 l 647 618 l 644 618 l 492 1026 l 492 764 b 528 625 492 649 494 640 l 528 619 l 453 619 l 453 625 "},"ﬁ":{"ha":669,"x_min":0,"x_max":0,"o":"m 31 10 b 86 213 85 24 86 46 l 86 633 l 21 633 l 21 644 b 88 729 81 654 88 672 l 88 810 b 314 1058 88 997 226 1058 b 454 976 393 1058 454 1032 b 401 928 454 953 439 928 b 342 985 361 928 349 946 b 307 1046 332 1033 329 1046 b 244 872 268 1046 244 1011 l 244 647 l 375 647 l 590 667 l 590 213 b 651 10 590 46 592 25 l 651 0 l 375 0 l 375 10 b 432 213 431 25 432 46 l 432 461 b 375 633 432 624 432 626 l 244 633 l 244 213 b 325 10 244 46 246 25 l 325 0 l 31 0 l 31 10 m 514 731 b 426 819 465 731 426 769 b 514 904 426 868 465 904 b 601 819 563 904 601 868 b 514 731 601 771 563 731 "},"ﬂ":{"ha":671,"x_min":0,"x_max":0,"o":"m 590 213 b 654 10 590 46 593 24 l 654 0 l 375 0 l 375 10 b 432 213 431 25 432 46 l 432 783 b 428 913 432 849 432 889 l 426 913 b 367 969 386 913 372 929 b 319 1040 357 1029 347 1040 b 244 882 269 1040 244 999 l 244 647 l 363 647 l 363 633 l 244 633 l 244 213 b 325 10 244 46 246 25 l 325 0 l 31 0 l 31 10 b 86 213 85 24 86 46 l 86 633 l 21 633 l 21 644 b 88 729 81 654 88 672 l 88 789 b 326 1053 88 994 231 1053 b 461 1010 388 1053 436 1038 l 590 1078 l 590 213 "},"A":{"ha":951,"x_min":0,"x_max":0,"o":"m 11 8 b 126 194 53 24 72 44 l 378 893 l 358 944 b 281 1033 332 1011 315 1025 l 281 1042 l 496 1042 b 518 1022 511 1042 513 1039 l 838 176 b 940 10 872 83 892 26 l 940 0 l 660 0 l 660 10 b 676 124 703 19 704 51 l 600 322 l 188 322 l 142 194 b 185 8 104 94 101 36 l 185 0 l 11 0 l 11 8 m 386 872 l 192 333 l 594 333 "},"¦":{"ha":349,"x_min":0,"x_max":0,"o":"m 185 611 l 164 611 l 164 1139 l 185 1139 m 164 -147 l 164 381 l 185 381 l 185 -147 "},"²":{"ha":561,"x_min":0,"x_max":0,"o":"m 275 732 b 451 769 425 732 436 736 l 460 769 l 436 668 b 419 646 432 650 429 646 l 82 646 l 222 803 b 333 1036 304 897 333 951 b 249 1156 333 1113 308 1156 b 193 1081 199 1156 197 1114 b 143 1036 189 1053 176 1036 b 101 1081 119 1036 101 1051 b 250 1165 101 1115 150 1165 b 442 1032 333 1165 442 1136 b 269 804 442 947 367 875 l 174 732 l 275 732 "},"³":{"ha":543,"x_min":0,"x_max":0,"o":"m 140 1140 b 153 1161 146 1158 146 1161 l 461 1161 l 461 1154 l 236 953 b 304 968 253 963 276 968 b 474 813 411 968 474 919 b 258 642 474 717 399 642 b 103 731 160 642 103 688 b 149 772 103 751 117 772 b 193 736 175 772 190 760 b 258 651 197 710 192 651 b 368 813 340 651 368 718 b 294 957 368 894 357 957 b 193 914 251 957 221 938 l 186 921 l 357 1075 l 261 1075 b 121 1038 140 1075 135 1069 l 113 1038 l 140 1140 "},"¹":{"ha":382,"x_min":0,"x_max":0,"o":"m 97 656 b 151 819 147 663 151 669 l 151 963 b 96 1064 151 1058 147 1064 l 96 1072 l 253 1172 l 253 819 b 304 656 253 669 256 663 l 304 646 l 97 646 "},"¼":{"ha":690,"x_min":0,"x_max":0,"o":"m 242 656 b 296 819 292 663 296 669 l 296 963 b 240 1064 296 1058 292 1064 l 240 1072 l 397 1172 l 397 819 b 449 656 397 669 400 663 l 449 646 l 242 646 m 603 526 l 603 515 l 88 515 l 88 526 m 471 -3 b 510 -111 471 -97 479 -104 l 510 -121 l 329 -121 l 329 -111 b 368 -3 360 -104 368 -97 l 119 -3 l 119 3 l 438 399 l 471 399 l 471 68 l 564 68 l 533 -3 l 471 -3 m 368 294 l 186 68 l 368 68 "},"½":{"ha":690,"x_min":0,"x_max":0,"o":"m 242 656 b 296 819 292 663 296 669 l 296 963 b 240 1064 296 1058 292 1064 l 240 1072 l 397 1172 l 397 819 b 449 656 397 669 400 663 l 449 646 l 242 646 m 603 526 l 603 515 l 88 515 l 88 526 m 350 -35 b 526 3 500 -35 511 -31 l 535 3 l 511 -99 b 494 -121 507 -117 504 -121 l 157 -121 l 297 36 b 408 269 379 131 408 185 b 324 389 408 346 383 389 b 268 314 274 389 272 347 b 218 269 264 286 251 269 b 176 314 194 269 176 285 b 325 399 176 349 225 399 b 517 265 408 399 517 369 b 344 38 517 181 442 108 l 249 -35 l 350 -35 "},"¾":{"ha":690,"x_min":0,"x_max":0,"o":"m 197 1140 b 210 1161 203 1158 203 1161 l 518 1161 l 518 1154 l 293 953 b 361 968 310 963 333 968 b 531 813 468 968 531 919 b 315 642 531 717 456 642 b 160 731 217 642 160 688 b 206 772 160 751 174 772 b 250 736 232 772 247 760 b 315 651 254 710 249 651 b 425 813 397 651 425 718 b 351 957 425 894 414 957 b 250 914 308 957 278 938 l 243 921 l 414 1075 l 318 1075 b 178 1038 197 1075 192 1069 l 169 1038 l 197 1140 m 603 526 l 603 515 l 88 515 l 88 526 m 471 -3 b 510 -111 471 -97 479 -104 l 510 -121 l 329 -121 l 329 -111 b 368 -3 360 -104 368 -97 l 119 -3 l 119 3 l 438 399 l 471 399 l 471 68 l 564 68 l 533 -3 l 471 -3 m 368 294 l 186 68 l 368 68 "},"Ð":{"ha":990,"x_min":0,"x_max":0,"o":"m 26 10 b 99 350 94 29 99 50 l 99 538 l -12 538 l -12 549 l 99 549 l 99 692 b 26 1032 99 992 94 1013 l 26 1042 l 338 1042 b 943 535 704 1042 943 874 b 338 0 943 208 731 0 l 26 0 l 26 10 m 338 11 b 747 536 621 11 747 151 b 338 1029 747 932 581 1029 l 279 1029 l 279 549 l 476 549 l 476 538 l 279 538 l 279 11 l 338 11 "},"×":{"ha":553,"x_min":0,"x_max":0,"o":"m 63 701 l 75 714 l 278 501 l 478 711 l 490 699 l 290 489 l 490 279 l 478 267 l 278 475 l 79 267 l 67 281 l 265 489 "},"Ý":{"ha":871,"x_min":0,"x_max":0,"o":"m 564 1226 b 638 1253 586 1244 611 1253 b 693 1199 671 1253 693 1226 b 608 1121 693 1161 671 1136 l 385 1082 l 381 1090 m 281 10 b 353 350 349 29 353 50 l 353 513 l 147 867 b 8 1033 94 957 68 1003 l 8 1042 l 321 1042 l 321 1033 b 304 929 282 1018 271 989 l 524 546 l 703 867 b 710 1033 754 963 778 1011 l 710 1042 l 863 1042 l 863 1033 b 718 867 821 1015 789 997 l 531 531 l 531 350 b 603 10 531 50 535 29 l 603 0 l 281 0 l 281 10 "},"Þ":{"ha":811,"x_min":0,"x_max":0,"o":"m 24 10 b 96 350 92 29 96 50 l 96 692 b 24 1032 96 993 92 1013 l 24 1042 l 344 1042 l 344 1032 b 274 843 289 1017 278 1003 l 408 843 b 797 579 636 843 797 774 b 410 282 797 376 626 282 l 272 282 b 344 10 272 46 283 28 l 344 0 l 24 0 l 24 10 m 406 294 b 629 564 538 294 629 358 b 407 831 629 771 535 831 l 274 831 b 272 692 272 793 272 747 l 272 294 l 406 294 "},"ð":{"ha":704,"x_min":0,"x_max":0,"o":"m 672 386 b 353 -11 672 79 483 -11 b 32 321 231 -11 32 76 b 353 661 32 561 231 661 b 490 619 396 661 447 649 b 369 871 469 710 426 794 l 201 793 l 196 804 l 361 881 b 160 1054 304 951 236 1011 l 169 1058 b 433 913 279 1019 363 969 l 583 982 l 589 971 l 443 904 b 672 386 617 757 672 565 m 353 1 b 508 321 438 1 508 74 b 353 649 508 567 438 649 b 196 321 268 649 196 567 b 353 1 196 74 268 1 "},"ý":{"ha":629,"x_min":0,"x_max":0,"o":"m 407 910 b 488 971 433 953 453 971 b 544 914 525 971 544 947 b 489 836 544 876 521 854 l 294 721 l 288 729 m 143 -237 b 68 -179 93 -237 68 -212 b 118 -128 68 -142 92 -128 b 215 -164 167 -128 174 -164 b 301 -44 239 -164 261 -144 l 313 -17 l 90 497 b -4 639 38 617 29 628 l -4 647 l 258 647 l 258 639 b 250 500 218 632 203 614 l 388 171 l 507 467 b 482 639 567 614 536 632 l 482 647 l 633 647 l 633 639 b 522 467 594 628 582 615 l 315 -49 b 143 -237 260 -187 215 -237 "},"þ":{"ha":736,"x_min":0,"x_max":0,"o":"m 21 -221 b 76 -18 75 -207 76 -185 l 76 785 b 19 953 76 944 76 946 l 19 964 l 233 1078 l 233 532 l 249 550 b 443 658 293 601 354 658 b 703 340 560 658 703 568 b 375 -10 703 118 560 -10 b 233 38 326 -10 276 6 l 233 -18 b 294 -221 233 -185 235 -206 l 294 -231 l 21 -231 l 21 -221 m 233 53 b 372 3 278 19 324 3 b 538 317 467 3 538 94 b 399 631 538 561 478 631 b 249 533 344 631 293 585 l 233 515 "},"Ł":{"ha":750,"x_min":0,"x_max":0,"o":"m 758 211 l 724 25 b 699 0 718 -1 714 0 l 24 0 l 24 10 b 96 350 92 29 96 49 l 96 418 l -19 353 l -25 363 l 96 431 l 96 692 b 24 1032 96 993 92 1013 l 24 1042 l 351 1042 l 351 1032 b 276 692 281 1014 276 993 l 276 533 l 511 665 l 517 656 l 276 519 l 276 13 l 444 13 b 743 211 642 13 692 49 "},"ł":{"ha":318,"x_min":0,"x_max":0,"o":"m 236 213 b 300 10 236 46 239 24 l 300 0 l 21 0 l 21 10 b 78 213 76 25 78 46 l 78 493 l -18 432 l -25 440 l 78 507 l 78 783 b 19 951 78 943 79 947 l 19 963 l 236 1078 l 236 610 l 333 672 l 340 663 l 236 596 l 236 213 "},"Š":{"ha":758,"x_min":0,"x_max":0,"o":"m 365 1213 l 550 1268 l 554 1260 l 365 1089 l 176 1260 l 181 1268 m 365 -12 b 81 61 197 -12 164 61 b 44 31 61 61 49 51 l 32 31 l 32 296 l 46 296 b 364 0 67 114 174 0 b 592 196 526 0 592 68 b 310 476 592 335 510 383 b 51 789 154 547 51 629 b 351 1056 51 935 167 1056 b 599 1000 497 1056 540 1000 b 638 1035 619 1000 632 1011 l 650 1035 l 650 825 l 636 825 b 351 1043 610 969 506 1043 b 160 886 219 1043 160 986 b 383 660 160 786 229 728 b 717 310 569 574 717 496 b 365 -12 717 97 544 -12 "},"š":{"ha":513,"x_min":0,"x_max":0,"o":"m 247 881 l 403 988 l 411 982 l 247 729 l 83 982 l 92 988 m 251 3 b 383 117 353 3 383 54 b 228 269 383 183 343 224 b 36 486 104 318 36 367 b 238 661 36 582 117 661 b 401 626 329 661 354 626 b 425 650 413 626 421 638 l 436 650 l 436 488 l 425 488 b 238 649 390 594 328 649 b 121 554 153 649 121 611 b 276 419 121 486 178 460 b 479 192 414 364 479 313 b 251 -10 479 72 381 -10 b 67 40 144 -10 106 40 b 42 17 56 40 46 32 l 29 17 l 29 211 l 42 211 b 251 3 76 71 140 3 "},"Ž":{"ha":843,"x_min":0,"x_max":0,"o":"m 422 1213 l 607 1268 l 611 1260 l 422 1089 l 233 1260 l 238 1268 m 347 1029 b 60 851 157 1029 100 965 l 47 851 l 83 1042 l 786 1042 l 225 13 l 494 13 b 811 232 714 13 767 64 l 825 232 l 792 0 l 24 0 l 578 1029 "},"ž":{"ha":574,"x_min":0,"x_max":0,"o":"m 307 881 l 463 988 l 471 982 l 307 729 l 143 982 l 151 988 m 526 -14 b 346 0 501 -3 469 0 l 15 0 l 376 636 l 253 636 b 46 492 107 636 79 579 l 35 492 l 64 661 b 244 647 93 649 140 647 l 550 647 l 185 11 l 325 11 b 542 178 475 11 501 71 l 553 178 l 526 -14 "},"−":{"ha":640,"x_min":0,"x_max":0,"o":"m 578 496 l 578 479 l 63 479 l 63 496 "},"Ă":{"ha":951,"x_min":0,"x_max":0,"o":"m 424 1188 b 556 1260 501 1188 533 1214 l 568 1260 b 424 1093 564 1168 519 1093 b 278 1261 325 1093 282 1165 l 290 1261 b 424 1188 311 1217 346 1188 m 11 8 b 126 194 53 24 72 44 l 378 893 l 358 944 b 281 1033 332 1011 315 1025 l 281 1042 l 496 1042 b 518 1022 511 1042 513 1039 l 838 176 b 940 10 872 83 892 26 l 940 0 l 660 0 l 660 10 b 676 124 703 19 704 51 l 600 322 l 188 322 l 142 194 b 185 8 104 94 101 36 l 185 0 l 11 0 l 11 8 m 386 872 l 192 333 l 594 333 "},"Ā":{"ha":951,"x_min":0,"x_max":0,"o":"m 265 1111 l 265 1178 l 582 1178 l 582 1111 m 11 8 b 126 194 53 24 72 44 l 378 893 l 358 944 b 281 1033 332 1011 315 1025 l 281 1042 l 496 1042 b 518 1022 511 1042 513 1039 l 838 176 b 940 10 872 83 892 26 l 940 0 l 660 0 l 660 10 b 676 124 703 19 704 51 l 600 322 l 188 322 l 142 194 b 185 8 104 94 101 36 l 185 0 l 11 0 l 11 8 m 386 872 l 192 333 l 594 333 "},"Ą":{"ha":951,"x_min":0,"x_max":0,"o":"m 11 8 b 126 194 53 24 72 44 l 378 893 l 358 944 b 281 1033 332 1011 315 1025 l 281 1042 l 496 1042 b 518 1022 511 1042 513 1039 l 838 176 b 940 10 872 83 892 26 l 940 0 l 774 0 b 668 -124 707 0 668 -58 b 733 -197 668 -168 690 -197 b 781 -176 751 -197 767 -190 l 788 -185 b 657 -243 774 -199 740 -243 b 526 -150 579 -243 526 -210 b 724 1 526 -65 646 -14 l 600 322 l 188 322 l 142 194 b 185 8 104 94 101 36 l 185 0 l 11 0 l 11 8 m 386 872 l 192 335 l 594 335 "},"Ǻ":{"ha":951,"x_min":0,"x_max":0,"o":"m 471 1451 b 544 1478 493 1469 518 1478 b 600 1424 578 1478 600 1451 b 515 1346 600 1386 578 1361 l 292 1307 l 288 1315 m 304 1188 b 422 1294 304 1250 354 1294 b 542 1188 493 1294 542 1250 b 422 1081 542 1122 493 1081 b 304 1188 351 1081 304 1122 m 364 1188 b 422 1093 364 1125 383 1093 b 482 1188 463 1093 482 1125 b 422 1282 482 1247 460 1282 b 364 1188 385 1282 364 1247 m 11 8 b 126 194 53 24 72 44 l 378 893 l 358 944 b 281 1033 332 1011 315 1025 l 281 1042 l 496 1042 b 518 1022 511 1042 513 1039 l 838 176 b 940 10 872 83 892 26 l 940 0 l 660 0 l 660 10 b 676 124 703 19 704 51 l 600 322 l 188 322 l 142 194 b 185 8 104 94 101 36 l 185 0 l 11 0 l 11 8 m 386 872 l 192 333 l 594 333 "},"Ǽ":{"ha":1313,"x_min":0,"x_max":0,"o":"m 954 1226 b 1028 1253 976 1244 1001 1253 b 1083 1199 1061 1253 1083 1226 b 999 1121 1083 1161 1061 1136 l 775 1082 l 771 1090 m 1015 456 b 854 569 997 518 996 569 l 799 569 l 799 13 l 971 13 b 1271 186 1178 13 1233 42 l 1283 186 l 1267 25 b 1240 0 1263 -1 1256 0 l 546 0 l 546 10 b 618 329 613 28 618 47 l 238 329 l 150 175 b 151 8 106 93 88 35 l 151 0 l 1 0 l 1 8 b 135 175 39 26 68 53 l 574 946 b 533 1032 608 1007 589 1022 l 533 1042 l 1203 1042 b 1228 1013 1218 1042 1222 1040 l 1253 874 l 1239 874 b 953 1029 1197 997 1146 1029 l 799 1029 l 799 582 l 854 582 b 1015 696 996 582 997 633 l 1026 696 l 1026 456 l 1015 456 m 618 997 l 244 340 l 618 340 "},"Ć":{"ha":899,"x_min":0,"x_max":0,"o":"m 575 1226 b 649 1253 597 1244 622 1253 b 704 1199 682 1253 704 1226 b 619 1121 704 1161 682 1136 l 396 1082 l 392 1090 m 533 -17 b 47 522 271 -17 47 190 b 531 1056 47 886 304 1056 b 783 999 674 1056 724 999 b 831 1038 807 999 824 1011 l 843 1038 l 843 797 l 831 797 b 531 1043 786 968 667 1043 b 243 543 369 1043 243 894 b 575 14 243 153 382 14 b 854 144 707 14 803 83 l 863 136 b 533 -17 819 75 711 -17 "},"Č":{"ha":899,"x_min":0,"x_max":0,"o":"m 526 1213 l 711 1268 l 715 1260 l 526 1089 l 338 1260 l 342 1268 m 533 -17 b 47 522 271 -17 47 190 b 531 1056 47 886 304 1056 b 783 999 674 1056 724 999 b 831 1038 807 999 824 1011 l 843 1038 l 843 797 l 831 797 b 531 1043 786 968 667 1043 b 243 543 369 1043 243 894 b 575 14 243 153 382 14 b 854 144 707 14 803 83 l 863 136 b 533 -17 819 75 711 -17 "},"Ĉ":{"ha":899,"x_min":0,"x_max":0,"o":"m 715 1088 l 711 1079 l 526 1135 l 342 1079 l 338 1088 l 526 1258 m 533 -17 b 47 522 271 -17 47 190 b 531 1056 47 886 304 1056 b 783 999 674 1056 724 999 b 831 1038 807 999 824 1011 l 843 1038 l 843 797 l 831 797 b 531 1043 786 968 667 1043 b 243 543 369 1043 243 894 b 575 14 243 153 382 14 b 854 144 707 14 803 83 l 863 136 b 533 -17 819 75 711 -17 "},"Ċ":{"ha":899,"x_min":0,"x_max":0,"o":"m 526 1089 b 439 1178 478 1089 439 1129 b 526 1264 439 1226 478 1264 b 614 1178 575 1264 614 1226 b 526 1089 614 1129 575 1089 m 533 -17 b 47 522 271 -17 47 190 b 531 1056 47 886 304 1056 b 783 999 674 1056 724 999 b 831 1038 807 999 824 1011 l 843 1038 l 843 797 l 831 797 b 531 1043 786 968 667 1043 b 243 543 369 1043 243 894 b 575 14 243 153 382 14 b 854 144 707 14 803 83 l 863 136 b 533 -17 819 75 711 -17 "},"Ď":{"ha":988,"x_min":0,"x_max":0,"o":"m 425 1213 l 610 1268 l 614 1260 l 425 1089 l 236 1260 l 240 1268 m 24 10 b 96 350 92 29 96 50 l 96 692 b 24 1032 96 992 92 1013 l 24 1042 l 335 1042 b 940 535 701 1042 940 874 b 335 0 940 208 728 0 l 24 0 l 24 10 m 276 11 l 335 11 b 744 536 618 11 744 151 b 335 1029 744 932 578 1029 l 276 1029 "},"Ĕ":{"ha":811,"x_min":0,"x_max":0,"o":"m 414 1188 b 546 1260 492 1188 524 1214 l 558 1260 b 414 1093 554 1168 510 1093 b 268 1261 315 1093 272 1165 l 281 1261 b 414 1188 301 1217 336 1188 m 24 10 b 96 350 92 29 96 50 l 96 692 b 24 1032 96 992 92 1013 l 24 1042 l 701 1042 b 726 1013 717 1042 721 1040 l 751 874 l 738 874 b 451 1029 696 997 644 1029 l 276 1029 l 276 582 l 353 582 b 514 696 494 582 496 633 l 525 696 l 525 456 l 514 456 b 353 569 496 518 494 569 l 276 569 l 276 13 l 469 13 b 769 186 676 13 732 42 l 782 186 l 765 25 b 739 0 761 -1 754 0 l 24 0 l 24 10 "},"Ě":{"ha":811,"x_min":0,"x_max":0,"o":"m 413 1213 l 597 1268 l 601 1260 l 413 1089 l 224 1260 l 228 1268 m 24 10 b 96 350 92 29 96 50 l 96 692 b 24 1032 96 992 92 1013 l 24 1042 l 701 1042 b 726 1013 717 1042 721 1040 l 751 874 l 738 874 b 451 1029 696 997 644 1029 l 276 1029 l 276 582 l 353 582 b 514 696 494 582 496 633 l 525 696 l 525 456 l 514 456 b 353 569 496 518 494 569 l 276 569 l 276 13 l 469 13 b 769 186 676 13 732 42 l 782 186 l 765 25 b 739 0 761 -1 754 0 l 24 0 l 24 10 "},"Ė":{"ha":811,"x_min":0,"x_max":0,"o":"m 413 1089 b 325 1178 364 1089 325 1129 b 413 1264 325 1226 364 1264 b 500 1178 461 1264 500 1226 b 413 1089 500 1129 461 1089 m 24 10 b 96 350 92 29 96 50 l 96 692 b 24 1032 96 992 92 1013 l 24 1042 l 701 1042 b 726 1013 717 1042 721 1040 l 751 874 l 738 874 b 451 1029 696 997 644 1029 l 276 1029 l 276 582 l 353 582 b 514 696 494 582 496 633 l 525 696 l 525 456 l 514 456 b 353 569 496 518 494 569 l 276 569 l 276 13 l 469 13 b 769 186 676 13 732 42 l 782 186 l 765 25 b 739 0 761 -1 754 0 l 24 0 l 24 10 "},"Ē":{"ha":811,"x_min":0,"x_max":0,"o":"m 256 1111 l 256 1178 l 572 1178 l 572 1111 m 24 10 b 96 350 92 29 96 50 l 96 692 b 24 1032 96 992 92 1013 l 24 1042 l 701 1042 b 726 1013 717 1042 721 1040 l 751 874 l 738 874 b 451 1029 696 997 644 1029 l 276 1029 l 276 582 l 353 582 b 514 696 494 582 496 633 l 525 696 l 525 456 l 514 456 b 353 569 496 518 494 569 l 276 569 l 276 13 l 469 13 b 769 186 676 13 732 42 l 782 186 l 765 25 b 739 0 761 -1 754 0 l 24 0 l 24 10 "},"Ę":{"ha":811,"x_min":0,"x_max":0,"o":"m 782 186 l 765 25 b 739 0 761 -1 754 0 l 639 0 b 578 -124 611 -22 578 -58 b 642 -197 578 -168 601 -197 b 690 -176 663 -197 675 -189 l 696 -185 b 565 -243 682 -199 649 -243 b 435 -150 492 -243 435 -210 b 622 0 435 -67 561 -11 l 24 0 l 24 10 b 96 350 92 29 96 50 l 96 692 b 24 1032 96 992 92 1013 l 24 1042 l 701 1042 b 726 1013 717 1042 721 1040 l 751 874 l 738 874 b 451 1029 696 997 644 1029 l 276 1029 l 276 582 l 353 582 b 514 696 494 582 496 633 l 525 696 l 525 456 l 514 456 b 353 569 496 518 494 569 l 276 569 l 276 13 l 469 13 b 769 186 676 13 732 42 "},"Ğ":{"ha":1010,"x_min":0,"x_max":0,"o":"m 543 1188 b 675 1260 621 1188 653 1214 l 688 1260 b 543 1093 683 1168 639 1093 b 397 1261 444 1093 401 1165 l 410 1261 b 543 1188 431 1217 465 1188 m 536 -17 b 47 529 253 -17 47 210 b 542 1056 47 890 321 1056 b 810 1003 692 1056 736 1003 b 851 1039 831 1003 846 1015 l 865 1039 l 865 799 l 851 799 b 542 1043 814 956 701 1043 b 242 543 371 1043 242 921 b 536 -4 242 151 351 -4 b 743 261 693 -4 743 76 l 743 271 b 663 464 743 422 725 446 l 663 474 l 993 474 l 993 464 b 914 200 921 444 914 424 l 914 158 b 536 -17 847 74 692 -17 "},"Ĝ":{"ha":1010,"x_min":0,"x_max":0,"o":"m 731 1088 l 726 1079 l 542 1135 l 357 1079 l 353 1088 l 542 1258 m 536 -17 b 47 529 253 -17 47 210 b 542 1056 47 890 321 1056 b 810 1003 692 1056 736 1003 b 851 1039 831 1003 846 1015 l 865 1039 l 865 799 l 851 799 b 542 1043 814 956 701 1043 b 242 543 371 1043 242 921 b 536 -4 242 151 351 -4 b 743 261 693 -4 743 76 l 743 271 b 663 464 743 422 725 446 l 663 474 l 993 474 l 993 464 b 914 200 921 444 914 424 l 914 158 b 536 -17 847 74 692 -17 "},"Ģ":{"ha":1010,"x_min":0,"x_max":0,"o":"m 536 -17 b 47 529 253 -17 47 210 b 542 1056 47 890 321 1056 b 810 1003 692 1056 736 1003 b 851 1039 831 1003 846 1015 l 865 1039 l 865 799 l 851 799 b 542 1043 814 956 701 1043 b 242 543 371 1043 242 921 b 536 -4 242 151 351 -4 b 743 261 693 -4 743 76 l 743 271 b 663 464 743 422 725 446 l 663 474 l 993 474 l 993 464 b 914 200 921 444 914 424 l 914 158 b 536 -17 847 74 692 -17 m 583 -167 b 526 -194 578 -178 560 -194 b 454 -125 488 -194 454 -168 b 532 -51 454 -79 492 -51 b 624 -151 578 -51 624 -79 b 496 -279 624 -228 574 -272 l 492 -268 b 592 -186 563 -258 592 -218 b 583 -167 592 -175 589 -168 "},"Ġ":{"ha":1010,"x_min":0,"x_max":0,"o":"m 542 1089 b 454 1178 493 1089 454 1129 b 542 1264 454 1226 493 1264 b 629 1178 590 1264 629 1226 b 542 1089 629 1129 590 1089 m 536 -17 b 47 529 253 -17 47 210 b 542 1056 47 890 321 1056 b 810 1003 692 1056 736 1003 b 851 1039 831 1003 846 1015 l 865 1039 l 865 799 l 851 799 b 542 1043 814 956 701 1043 b 242 543 371 1043 242 921 b 536 -4 242 151 351 -4 b 743 261 693 -4 743 76 l 743 271 b 663 464 743 422 725 446 l 663 474 l 993 474 l 993 464 b 914 200 921 444 914 424 l 914 158 b 536 -17 847 74 692 -17 "},"Ĥ":{"ha":988,"x_min":0,"x_max":0,"o":"m 682 1088 l 678 1079 l 493 1135 l 308 1079 l 304 1088 l 493 1258 m 24 10 b 96 350 92 29 96 49 l 96 692 b 24 1032 96 993 92 1013 l 24 1042 l 344 1042 l 344 1032 b 272 692 276 1013 272 993 l 272 576 l 715 576 l 715 692 b 643 1032 715 993 711 1013 l 643 1042 l 965 1042 l 965 1032 b 893 692 897 1013 893 993 l 893 350 b 965 10 893 49 897 29 l 965 0 l 643 0 l 643 10 b 715 350 711 29 715 49 l 715 565 l 272 565 l 272 350 b 344 10 272 49 276 29 l 344 0 l 24 0 l 24 10 "},"Ĭ":{"ha":368,"x_min":0,"x_max":0,"o":"m 185 1188 b 317 1260 263 1188 294 1214 l 329 1260 b 185 1093 325 1168 281 1093 b 39 1261 86 1093 43 1165 l 51 1261 b 185 1188 72 1217 107 1188 m 24 10 b 96 350 92 29 96 50 l 96 692 b 24 1032 96 993 92 1013 l 24 1042 l 344 1042 l 344 1032 b 272 692 276 1013 272 993 l 272 350 b 344 10 272 50 276 29 l 344 0 l 24 0 l 24 10 "},"İ":{"ha":368,"x_min":0,"x_max":0,"o":"m 183 1089 b 96 1178 135 1089 96 1129 b 183 1264 96 1226 135 1264 b 271 1178 232 1264 271 1226 b 183 1089 271 1129 232 1089 m 24 10 b 96 350 92 29 96 50 l 96 692 b 24 1032 96 993 92 1013 l 24 1042 l 344 1042 l 344 1032 b 272 692 276 1013 272 993 l 272 350 b 344 10 272 50 276 29 l 344 0 l 24 0 l 24 10 "},"Ī":{"ha":368,"x_min":0,"x_max":0,"o":"m 25 1111 l 25 1178 l 342 1178 l 342 1111 m 24 10 b 96 350 92 29 96 50 l 96 692 b 24 1032 96 993 92 1013 l 24 1042 l 344 1042 l 344 1032 b 272 692 276 1013 272 993 l 272 350 b 344 10 272 50 276 29 l 344 0 l 24 0 l 24 10 "},"Į":{"ha":368,"x_min":0,"x_max":0,"o":"m 344 1032 b 272 692 276 1013 272 993 l 272 350 b 344 10 272 50 276 29 l 344 0 l 269 0 b 208 -124 242 -22 208 -58 b 272 -197 208 -168 232 -197 b 321 -176 293 -197 306 -189 l 326 -185 b 196 -243 313 -199 279 -243 b 65 -150 122 -243 65 -210 b 253 0 65 -67 192 -11 l 24 0 l 24 10 b 96 350 92 29 96 50 l 96 692 b 24 1032 96 993 92 1013 l 24 1042 l 344 1042 l 344 1032 "},"Ĩ":{"ha":368,"x_min":0,"x_max":0,"o":"m 124 1219 b 274 1211 179 1219 233 1211 b 356 1272 297 1211 326 1228 l 365 1269 b 258 1117 344 1175 304 1117 b 108 1125 204 1117 158 1125 b 31 1065 86 1125 63 1114 l 21 1068 b 124 1219 49 1175 86 1219 m 24 10 b 96 350 92 29 96 50 l 96 692 b 24 1032 96 993 92 1013 l 24 1042 l 344 1042 l 344 1032 b 272 692 276 1013 272 993 l 272 350 b 344 10 272 50 276 29 l 344 0 l 24 0 l 24 10 "},"Ĵ":{"ha":600,"x_min":0,"x_max":0,"o":"m 610 1088 l 606 1079 l 421 1135 l 236 1079 l 232 1088 l 421 1258 m 247 -14 b 8 124 114 -14 8 39 b 78 193 8 169 43 193 b 160 111 118 193 144 174 b 250 -1 175 32 182 -1 b 332 90 296 -1 332 25 l 332 692 b 260 1032 332 996 328 1013 l 260 1042 l 582 1042 l 582 1032 b 510 692 514 1013 510 996 l 510 235 b 247 -14 510 76 383 -14 "},"Ķ":{"ha":893,"x_min":0,"x_max":0,"o":"m 344 1032 b 272 692 276 1013 272 993 l 272 350 b 344 10 272 49 276 29 l 344 0 l 24 0 l 24 10 b 96 350 92 29 96 49 l 96 692 b 24 1032 96 993 92 1013 l 24 1042 l 344 1042 l 344 1032 m 800 110 b 903 8 849 42 865 24 l 903 0 l 592 0 l 592 8 b 586 115 643 19 632 47 l 272 565 l 656 908 b 674 1033 744 986 736 1011 l 674 1042 l 844 1042 l 844 1033 b 701 932 817 1026 772 997 l 408 669 l 800 110 m 440 -51 b 532 -151 486 -51 532 -79 b 404 -279 532 -228 482 -272 l 400 -268 b 500 -186 471 -258 500 -218 b 492 -167 500 -175 497 -168 b 435 -194 486 -178 468 -194 b 363 -125 396 -194 363 -168 b 440 -51 363 -79 400 -51 "},"Ĺ":{"ha":775,"x_min":0,"x_max":0,"o":"m 235 1226 b 308 1253 257 1244 282 1253 b 364 1199 342 1253 364 1226 b 279 1121 364 1161 342 1136 l 56 1082 l 51 1090 m 24 10 b 96 350 92 29 96 49 l 96 692 b 24 1032 96 993 92 1013 l 24 1042 l 351 1042 l 351 1032 b 276 692 281 1014 276 993 l 276 13 l 444 13 b 743 211 642 13 692 49 l 758 211 l 724 25 b 699 0 718 -1 714 0 l 24 0 l 24 10 "},"Ľ":{"ha":775,"x_min":0,"x_max":0,"o":"m 392 958 b 453 1056 396 1026 415 1056 b 506 999 488 1056 506 1036 b 488 938 506 978 497 958 l 392 764 l 383 767 m 24 10 b 96 350 92 29 96 49 l 96 692 b 24 1032 96 993 92 1013 l 24 1042 l 351 1042 l 351 1032 b 276 692 281 1014 276 993 l 276 13 l 444 13 b 743 211 642 13 692 49 l 758 211 l 724 25 b 699 0 718 -1 714 0 l 24 0 l 24 10 "},"Ļ":{"ha":775,"x_min":0,"x_max":0,"o":"m 24 10 b 96 350 92 29 96 49 l 96 692 b 24 1032 96 993 92 1013 l 24 1042 l 351 1042 l 351 1032 b 276 692 281 1014 276 993 l 276 13 l 444 13 b 743 211 642 13 692 49 l 758 211 l 724 25 b 699 0 718 -1 714 0 l 24 0 l 24 10 m 454 -167 b 397 -194 449 -178 431 -194 b 325 -125 358 -194 325 -168 b 403 -51 325 -79 363 -51 b 494 -151 449 -51 494 -79 b 367 -279 494 -228 444 -272 l 363 -268 b 463 -186 433 -258 463 -218 b 454 -167 463 -175 460 -168 "},"Ń":{"ha":890,"x_min":0,"x_max":0,"o":"m 553 1226 b 626 1253 575 1244 600 1253 b 682 1199 660 1253 682 1226 b 597 1121 682 1161 660 1136 l 374 1082 l 369 1090 m 24 10 b 96 356 92 43 96 63 l 96 692 b 24 1032 96 992 92 1013 l 24 1042 l 272 1042 b 326 1000 299 1042 300 1039 l 792 281 l 792 686 b 710 1032 792 979 788 999 l 710 1042 l 878 1042 l 878 1032 b 806 686 810 999 806 979 l 806 -4 l 768 -4 l 110 1013 l 110 356 b 192 10 110 63 114 43 l 192 0 l 24 0 l 24 10 "},"Ň":{"ha":890,"x_min":0,"x_max":0,"o":"m 506 1213 l 690 1268 l 694 1260 l 506 1089 l 317 1260 l 321 1268 m 24 10 b 96 356 92 43 96 63 l 96 692 b 24 1032 96 992 92 1013 l 24 1042 l 272 1042 b 326 1000 299 1042 300 1039 l 792 281 l 792 686 b 710 1032 792 979 788 999 l 710 1042 l 878 1042 l 878 1032 b 806 686 810 999 806 979 l 806 -4 l 768 -4 l 110 1013 l 110 356 b 192 10 110 63 114 43 l 192 0 l 24 0 l 24 10 "},"Ņ":{"ha":890,"x_min":0,"x_max":0,"o":"m 24 10 b 96 356 92 43 96 63 l 96 692 b 24 1032 96 992 92 1013 l 24 1042 l 272 1042 b 326 1000 299 1042 300 1039 l 792 281 l 792 686 b 710 1032 792 979 788 999 l 710 1042 l 878 1042 l 878 1032 b 806 686 810 999 806 979 l 806 -4 l 768 -4 l 110 1013 l 110 356 b 192 10 110 63 114 43 l 192 0 l 24 0 l 24 10 m 488 -167 b 431 -194 482 -178 464 -194 b 358 -125 392 -194 358 -168 b 436 -51 358 -79 396 -51 b 528 -151 482 -51 528 -79 b 400 -279 528 -228 478 -272 l 396 -268 b 496 -186 467 -258 496 -218 b 488 -167 496 -175 493 -168 "},"Ŏ":{"ha":1040,"x_min":0,"x_max":0,"o":"m 522 1188 b 654 1260 600 1188 632 1214 l 667 1260 b 522 1093 663 1168 618 1093 b 376 1261 424 1093 381 1165 l 389 1261 b 522 1188 410 1217 444 1188 m 519 -18 b 47 522 274 -18 47 207 b 519 1056 47 838 274 1056 b 993 522 767 1056 993 838 b 519 -18 993 207 767 -18 m 519 -6 b 797 522 679 -6 797 154 b 519 1044 797 889 665 1044 b 243 522 375 1044 243 889 b 519 -6 243 154 360 -6 "},"Ő":{"ha":1040,"x_min":0,"x_max":0,"o":"m 463 1221 b 543 1289 490 1261 506 1289 b 593 1239 578 1289 593 1260 b 540 1176 593 1210 572 1192 l 389 1101 l 382 1110 m 646 1221 b 728 1289 674 1261 690 1289 b 776 1239 761 1289 776 1260 b 724 1176 776 1210 756 1192 l 572 1101 l 565 1110 m 519 -18 b 47 522 274 -18 47 207 b 519 1056 47 838 274 1056 b 993 522 767 1056 993 838 b 519 -18 993 207 767 -18 m 519 -6 b 797 522 679 -6 797 154 b 519 1044 797 889 665 1044 b 243 522 375 1044 243 889 b 519 -6 243 154 360 -6 "},"Ō":{"ha":1040,"x_min":0,"x_max":0,"o":"m 363 1111 l 363 1178 l 679 1178 l 679 1111 m 519 -18 b 47 522 274 -18 47 207 b 519 1056 47 838 274 1056 b 993 522 767 1056 993 838 b 519 -18 993 207 767 -18 m 519 -6 b 797 522 679 -6 797 154 b 519 1044 797 889 665 1044 b 243 522 375 1044 243 889 b 519 -6 243 154 360 -6 "},"Ǿ":{"ha":1040,"x_min":0,"x_max":0,"o":"m 568 1226 b 642 1253 590 1244 615 1253 b 697 1199 675 1253 697 1226 b 613 1121 697 1161 675 1136 l 389 1082 l 385 1090 m 519 -18 b 282 56 435 -18 354 7 l 219 -69 l 207 -64 l 271 64 b 47 522 142 157 47 322 b 519 1056 47 838 274 1056 b 739 996 597 1056 671 1036 l 794 1107 l 807 1100 l 750 988 b 993 522 890 899 993 733 b 519 -18 993 207 767 -18 m 243 522 b 311 143 243 354 268 228 l 707 932 b 519 1044 656 1010 590 1044 b 243 522 375 1044 243 889 m 519 -6 b 797 522 679 -6 797 154 b 715 917 797 704 765 832 l 318 128 b 519 -6 368 35 438 -6 "},"Ŕ":{"ha":892,"x_min":0,"x_max":0,"o":"m 488 1226 b 561 1253 510 1244 535 1253 b 617 1199 594 1253 617 1226 b 532 1121 617 1161 594 1136 l 308 1082 l 304 1090 m 24 10 b 96 350 92 29 96 49 l 96 692 b 24 1032 96 993 92 1013 l 24 1042 l 385 1042 b 828 796 696 1042 828 951 b 425 522 828 606 646 522 l 413 522 b 678 265 547 504 633 440 b 826 24 717 103 754 24 b 897 54 864 24 879 33 l 906 46 b 771 -10 885 24 844 -10 b 494 256 626 -10 535 50 b 317 522 450 499 422 522 l 276 522 l 276 350 b 349 10 276 49 281 29 l 349 0 l 24 0 l 24 10 m 276 533 l 414 533 b 654 772 588 533 654 610 b 379 1029 654 935 593 1029 l 276 1029 "},"Ř":{"ha":892,"x_min":0,"x_max":0,"o":"m 439 1213 l 624 1268 l 628 1260 l 439 1089 l 250 1260 l 254 1268 m 24 10 b 96 350 92 29 96 49 l 96 692 b 24 1032 96 993 92 1013 l 24 1042 l 385 1042 b 828 796 696 1042 828 951 b 425 522 828 606 646 522 l 413 522 b 678 265 547 504 633 440 b 826 24 717 103 754 24 b 897 54 864 24 879 33 l 906 46 b 771 -10 885 24 844 -10 b 494 256 626 -10 535 50 b 317 522 450 499 422 522 l 276 522 l 276 350 b 349 10 276 49 281 29 l 349 0 l 24 0 l 24 10 m 276 533 l 414 533 b 654 772 588 533 654 610 b 379 1029 654 935 593 1029 l 276 1029 "},"Ŗ":{"ha":892,"x_min":0,"x_max":0,"o":"m 24 10 b 96 350 92 29 96 49 l 96 692 b 24 1032 96 993 92 1013 l 24 1042 l 385 1042 b 828 796 696 1042 828 951 b 425 522 828 606 646 522 l 413 522 b 678 265 547 504 633 440 b 826 24 717 103 754 24 b 897 54 864 24 879 33 l 906 46 b 771 -10 885 24 844 -10 b 494 256 626 -10 535 50 b 317 522 450 499 422 522 l 276 522 l 276 350 b 349 10 276 49 281 29 l 349 0 l 24 0 l 24 10 m 276 533 l 414 533 b 654 772 588 533 654 610 b 379 1029 654 935 593 1029 l 276 1029 m 492 -167 b 435 -194 486 -178 468 -194 b 363 -125 396 -194 363 -168 b 440 -51 363 -79 400 -51 b 532 -151 486 -51 532 -79 b 404 -279 532 -228 482 -272 l 400 -268 b 500 -186 471 -258 500 -218 b 492 -167 500 -175 497 -168 "},"Ś":{"ha":758,"x_min":0,"x_max":0,"o":"m 413 1226 b 486 1253 435 1244 460 1253 b 542 1199 519 1253 542 1226 b 457 1121 542 1161 519 1136 l 233 1082 l 229 1090 m 365 -12 b 81 61 197 -12 164 61 b 44 31 61 61 49 51 l 32 31 l 32 296 l 46 296 b 364 0 67 114 174 0 b 592 196 526 0 592 68 b 310 476 592 335 510 383 b 51 789 154 547 51 629 b 351 1056 51 935 167 1056 b 599 1000 497 1056 540 1000 b 638 1035 619 1000 632 1011 l 650 1035 l 650 825 l 636 825 b 351 1043 610 969 506 1043 b 160 886 219 1043 160 986 b 383 660 160 786 229 728 b 717 310 569 574 717 496 b 365 -12 717 97 544 -12 "},"Ş":{"ha":758,"x_min":0,"x_max":0,"o":"m 347 -12 l 315 -67 b 450 -169 393 -76 450 -115 b 217 -283 450 -247 368 -279 l 215 -272 b 351 -203 293 -260 351 -236 b 257 -150 351 -171 314 -154 l 253 -143 l 332 -11 b 81 61 192 -3 158 61 b 44 31 61 61 49 51 l 32 31 l 32 296 l 46 296 b 364 0 67 114 174 0 b 592 196 526 0 592 68 b 310 476 592 335 510 383 b 51 789 154 547 51 629 b 351 1056 51 935 167 1056 b 599 1000 497 1056 540 1000 b 638 1035 619 1000 632 1011 l 650 1035 l 650 825 l 636 825 b 351 1043 610 969 506 1043 b 160 886 219 1043 160 986 b 383 660 160 786 229 728 b 717 310 569 574 717 496 b 365 -12 717 97 544 -12 "},"Ŝ":{"ha":758,"x_min":0,"x_max":0,"o":"m 554 1088 l 550 1079 l 365 1135 l 181 1079 l 176 1088 l 365 1258 m 365 -12 b 81 61 197 -12 164 61 b 44 31 61 61 49 51 l 32 31 l 32 296 l 46 296 b 364 0 67 114 174 0 b 592 196 526 0 592 68 b 310 476 592 335 510 383 b 51 789 154 547 51 629 b 351 1056 51 935 167 1056 b 599 1000 497 1056 540 1000 b 638 1035 619 1000 632 1011 l 650 1035 l 650 825 l 636 825 b 351 1043 610 969 506 1043 b 160 886 219 1043 160 986 b 383 660 160 786 229 728 b 717 310 569 574 717 496 b 365 -12 717 97 544 -12 "},"Ș":{"ha":758,"x_min":0,"x_max":0,"o":"m 365 -12 b 81 61 197 -12 164 61 b 44 31 61 61 49 51 l 32 31 l 32 296 l 46 296 b 364 0 67 114 174 0 b 592 196 526 0 592 68 b 310 476 592 335 510 383 b 51 789 154 547 51 629 b 351 1056 51 935 167 1056 b 599 1000 497 1056 540 1000 b 638 1035 619 1000 632 1011 l 650 1035 l 650 825 l 636 825 b 351 1043 610 969 506 1043 b 160 886 219 1043 160 986 b 383 660 160 786 229 728 b 717 310 569 574 717 496 b 365 -12 717 97 544 -12 m 406 -167 b 349 -194 400 -178 382 -194 b 276 -125 310 -194 276 -168 b 354 -51 276 -79 314 -51 b 446 -151 400 -51 446 -79 b 318 -279 446 -228 396 -272 l 314 -268 b 414 -186 385 -258 414 -218 b 406 -167 414 -175 411 -168 "},"Ť":{"ha":881,"x_min":0,"x_max":0,"o":"m 440 1213 l 625 1268 l 629 1260 l 440 1089 l 251 1260 l 256 1268 m 276 10 b 349 350 344 29 349 50 l 349 1029 l 282 1029 b 24 825 119 1029 57 997 l 10 825 l 29 1013 b 53 1042 33 1042 38 1042 l 825 1042 b 849 1013 840 1042 844 1042 l 871 825 l 857 825 b 600 1029 821 994 758 1029 l 529 1029 l 529 350 b 601 10 529 50 533 29 l 601 0 l 276 0 l 276 10 "},"Ţ":{"ha":881,"x_min":0,"x_max":0,"o":"m 276 10 b 349 350 344 29 349 50 l 349 1029 l 282 1029 b 24 825 119 1029 57 997 l 10 825 l 29 1013 b 53 1042 33 1042 38 1042 l 825 1042 b 849 1013 840 1042 844 1042 l 871 825 l 857 825 b 600 1029 821 994 758 1029 l 529 1029 l 529 350 b 601 10 529 50 533 29 l 601 0 l 276 0 l 276 10 m 488 -167 b 431 -194 482 -178 464 -194 b 358 -125 392 -194 358 -168 b 436 -51 358 -79 396 -51 b 528 -151 482 -51 528 -79 b 400 -279 528 -228 478 -272 l 396 -268 b 496 -186 467 -258 496 -218 b 488 -167 496 -175 493 -168 "},"Ț":{"ha":881,"x_min":0,"x_max":0,"o":"m 276 10 b 349 350 344 29 349 50 l 349 1029 l 282 1029 b 24 825 119 1029 57 997 l 10 825 l 29 1013 b 53 1042 33 1042 38 1042 l 825 1042 b 849 1013 840 1042 844 1042 l 871 825 l 857 825 b 600 1029 821 994 758 1029 l 529 1029 l 529 350 b 601 10 529 50 533 29 l 601 0 l 276 0 l 276 10 m 488 -167 b 431 -194 482 -178 464 -194 b 358 -125 392 -194 358 -168 b 436 -51 358 -79 396 -51 b 528 -151 482 -51 528 -79 b 400 -279 528 -228 478 -272 l 396 -268 b 496 -186 467 -258 496 -218 b 488 -167 496 -175 493 -168 "},"Ŭ":{"ha":925,"x_min":0,"x_max":0,"o":"m 533 1188 b 665 1260 611 1188 643 1214 l 678 1260 b 533 1093 674 1168 629 1093 b 388 1261 435 1093 392 1165 l 400 1261 b 533 1188 421 1217 456 1188 m 494 -15 b 89 354 244 -15 89 106 l 89 692 b 19 1032 89 993 86 1014 l 19 1042 l 339 1042 l 339 1032 b 267 692 271 1013 267 993 l 267 324 b 500 -3 267 113 285 -3 b 818 349 696 -3 818 93 l 818 686 b 738 1032 818 978 814 999 l 738 1042 l 906 1042 l 906 1032 b 833 686 838 999 833 979 l 833 349 b 494 -15 833 88 704 -15 "},"Ű":{"ha":925,"x_min":0,"x_max":0,"o":"m 475 1221 b 556 1289 503 1261 518 1289 b 606 1239 590 1289 606 1260 b 553 1176 606 1210 585 1192 l 401 1101 l 394 1110 m 658 1221 b 740 1289 686 1261 703 1289 b 789 1239 774 1289 789 1260 b 736 1176 789 1210 768 1192 l 585 1101 l 578 1110 m 494 -15 b 89 354 244 -15 89 106 l 89 692 b 19 1032 89 993 86 1014 l 19 1042 l 339 1042 l 339 1032 b 267 692 271 1013 267 993 l 267 324 b 500 -3 267 113 285 -3 b 818 349 696 -3 818 93 l 818 686 b 738 1032 818 978 814 999 l 738 1042 l 906 1042 l 906 1032 b 833 686 838 999 833 979 l 833 349 b 494 -15 833 88 704 -15 "},"Ū":{"ha":925,"x_min":0,"x_max":0,"o":"m 374 1111 l 374 1178 l 690 1178 l 690 1111 m 494 -15 b 89 354 244 -15 89 106 l 89 692 b 19 1032 89 993 86 1014 l 19 1042 l 339 1042 l 339 1032 b 267 692 271 1013 267 993 l 267 324 b 500 -3 267 113 285 -3 b 818 349 696 -3 818 93 l 818 686 b 738 1032 818 978 814 999 l 738 1042 l 906 1042 l 906 1032 b 833 686 838 999 833 979 l 833 349 b 494 -15 833 88 704 -15 "},"Ų":{"ha":925,"x_min":0,"x_max":0,"o":"m 542 -243 b 411 -150 468 -243 411 -210 b 581 -10 411 -79 510 -28 b 494 -15 553 -14 524 -15 b 89 354 244 -15 89 106 l 89 692 b 19 1032 89 993 86 1014 l 19 1042 l 339 1042 l 339 1032 b 267 692 271 1013 267 993 l 267 324 b 500 -3 267 113 285 -3 b 818 349 696 -3 818 93 l 818 686 b 738 1032 818 978 814 999 l 738 1042 l 906 1042 l 906 1032 b 833 686 838 999 833 979 l 833 349 b 658 13 833 164 769 58 b 554 -124 611 -6 554 -35 b 618 -197 554 -167 578 -197 b 667 -176 639 -197 651 -189 l 672 -185 b 542 -243 658 -199 625 -243 "},"Ů":{"ha":925,"x_min":0,"x_max":0,"o":"m 421 1154 b 539 1261 421 1217 471 1261 b 658 1154 610 1261 658 1217 b 539 1047 658 1089 610 1047 b 421 1154 468 1047 421 1089 m 481 1154 b 539 1060 481 1092 500 1060 b 599 1154 579 1060 599 1092 b 539 1249 599 1214 576 1249 b 481 1154 501 1249 481 1214 m 494 -15 b 89 354 244 -15 89 106 l 89 692 b 19 1032 89 993 86 1014 l 19 1042 l 339 1042 l 339 1032 b 267 692 271 1013 267 993 l 267 324 b 500 -3 267 113 285 -3 b 818 349 696 -3 818 93 l 818 686 b 738 1032 818 978 814 999 l 738 1042 l 906 1042 l 906 1032 b 833 686 838 999 833 979 l 833 349 b 494 -15 833 88 704 -15 "},"Ũ":{"ha":925,"x_min":0,"x_max":0,"o":"m 472 1219 b 622 1211 528 1219 582 1211 b 704 1272 646 1211 675 1228 l 714 1269 b 607 1117 693 1175 653 1117 b 457 1125 553 1117 507 1125 b 379 1065 435 1125 411 1114 l 369 1068 b 472 1219 397 1175 435 1219 m 494 -15 b 89 354 244 -15 89 106 l 89 692 b 19 1032 89 993 86 1014 l 19 1042 l 339 1042 l 339 1032 b 267 692 271 1013 267 993 l 267 324 b 500 -3 267 113 285 -3 b 818 349 696 -3 818 93 l 818 686 b 738 1032 818 978 814 999 l 738 1042 l 906 1042 l 906 1032 b 833 686 838 999 833 979 l 833 349 b 494 -15 833 88 704 -15 "},"Ẃ":{"ha":1263,"x_min":0,"x_max":0,"o":"m 724 1226 b 797 1253 746 1244 771 1253 b 853 1199 831 1253 853 1226 b 768 1121 853 1161 831 1136 l 544 1082 l 540 1090 m 110 865 b 11 1032 72 965 64 1006 l 11 1042 l 289 1042 l 289 1032 b 275 919 250 1021 247 996 l 524 217 l 633 522 l 510 865 b 410 1032 474 964 463 1010 l 410 1042 l 686 1042 l 686 1032 b 674 918 647 1021 647 996 l 744 711 l 801 867 b 782 1032 828 946 847 1006 l 782 1042 l 919 1042 l 919 1032 b 817 867 879 1014 865 1001 l 751 690 l 915 211 l 1133 865 b 1096 1032 1160 944 1174 1006 l 1096 1042 l 1251 1042 l 1251 1032 b 1149 865 1210 1013 1193 1000 l 858 -7 l 825 -7 l 642 500 l 458 -7 l 425 -7 l 110 865 "},"Ŵ":{"ha":1263,"x_min":0,"x_max":0,"o":"m 864 1088 l 860 1079 l 675 1135 l 490 1079 l 486 1088 l 675 1258 m 110 865 b 11 1032 72 965 64 1006 l 11 1042 l 289 1042 l 289 1032 b 275 919 250 1021 247 996 l 524 217 l 633 522 l 510 865 b 410 1032 474 964 463 1010 l 410 1042 l 686 1042 l 686 1032 b 674 918 647 1021 647 996 l 744 711 l 801 867 b 782 1032 828 946 847 1006 l 782 1042 l 919 1042 l 919 1032 b 817 867 879 1014 865 1001 l 751 690 l 915 211 l 1133 865 b 1096 1032 1160 944 1174 1006 l 1096 1042 l 1251 1042 l 1251 1032 b 1149 865 1210 1013 1193 1000 l 858 -7 l 825 -7 l 642 500 l 458 -7 l 425 -7 l 110 865 "},"Ẅ":{"ha":1263,"x_min":0,"x_max":0,"o":"m 550 1090 b 468 1175 504 1090 468 1126 b 550 1256 468 1219 504 1256 b 632 1175 596 1256 632 1219 b 550 1090 632 1126 596 1090 m 800 1090 b 718 1175 754 1090 718 1126 b 800 1256 718 1219 754 1256 b 882 1175 846 1256 882 1219 b 800 1090 882 1126 846 1090 m 110 865 b 11 1032 72 965 64 1006 l 11 1042 l 289 1042 l 289 1032 b 275 919 250 1021 247 996 l 524 217 l 633 522 l 510 865 b 410 1032 474 964 463 1010 l 410 1042 l 686 1042 l 686 1032 b 674 918 647 1021 647 996 l 744 711 l 801 867 b 782 1032 828 946 847 1006 l 782 1042 l 919 1042 l 919 1032 b 817 867 879 1014 865 1001 l 751 690 l 915 211 l 1133 865 b 1096 1032 1160 944 1174 1006 l 1096 1042 l 1251 1042 l 1251 1032 b 1149 865 1210 1013 1193 1000 l 858 -7 l 825 -7 l 642 500 l 458 -7 l 425 -7 l 110 865 "},"Ẁ":{"ha":1263,"x_min":0,"x_max":0,"o":"m 589 1121 b 504 1199 526 1136 504 1161 b 560 1253 504 1226 526 1253 b 633 1226 586 1253 610 1244 l 815 1090 l 813 1082 l 589 1121 m 110 865 b 11 1032 72 965 64 1006 l 11 1042 l 289 1042 l 289 1032 b 275 919 250 1021 247 996 l 524 217 l 633 522 l 510 865 b 410 1032 474 964 463 1010 l 410 1042 l 686 1042 l 686 1032 b 674 918 647 1021 647 996 l 744 711 l 801 867 b 782 1032 828 946 847 1006 l 782 1042 l 919 1042 l 919 1032 b 817 867 879 1014 865 1001 l 751 690 l 915 211 l 1133 865 b 1096 1032 1160 944 1174 1006 l 1096 1042 l 1251 1042 l 1251 1032 b 1149 865 1210 1013 1193 1000 l 858 -7 l 825 -7 l 642 500 l 458 -7 l 425 -7 l 110 865 "},"Ŷ":{"ha":871,"x_min":0,"x_max":0,"o":"m 699 1088 l 694 1079 l 510 1135 l 325 1079 l 321 1088 l 510 1258 m 281 10 b 353 350 349 29 353 50 l 353 513 l 147 867 b 8 1033 94 957 68 1003 l 8 1042 l 321 1042 l 321 1033 b 304 929 282 1018 271 989 l 524 546 l 703 867 b 710 1033 754 963 778 1011 l 710 1042 l 863 1042 l 863 1033 b 718 867 821 1015 789 997 l 531 531 l 531 350 b 603 10 531 50 535 29 l 603 0 l 281 0 l 281 10 "},"Ỳ":{"ha":871,"x_min":0,"x_max":0,"o":"m 421 1121 b 336 1199 358 1136 336 1161 b 392 1253 336 1226 358 1253 b 465 1226 418 1253 442 1244 l 647 1090 l 644 1082 l 421 1121 m 281 10 b 353 350 349 29 353 50 l 353 513 l 147 867 b 8 1033 94 957 68 1003 l 8 1042 l 321 1042 l 321 1033 b 304 929 282 1018 271 989 l 524 546 l 703 867 b 710 1033 754 963 778 1011 l 710 1042 l 863 1042 l 863 1033 b 718 867 821 1015 789 997 l 531 531 l 531 350 b 603 10 531 50 535 29 l 603 0 l 281 0 l 281 10 "},"Ź":{"ha":843,"x_min":0,"x_max":0,"o":"m 481 1226 b 554 1253 503 1244 528 1253 b 610 1199 588 1253 610 1226 b 525 1121 610 1161 588 1136 l 301 1082 l 297 1090 m 347 1029 b 60 851 157 1029 100 965 l 47 851 l 83 1042 l 786 1042 l 225 13 l 494 13 b 811 232 714 13 767 64 l 825 232 l 792 0 l 24 0 l 578 1029 "},"Ż":{"ha":843,"x_min":0,"x_max":0,"o":"m 422 1089 b 335 1178 374 1089 335 1129 b 422 1264 335 1226 374 1264 b 510 1178 471 1264 510 1226 b 422 1089 510 1129 471 1089 m 347 1029 b 60 851 157 1029 100 965 l 47 851 l 83 1042 l 786 1042 l 225 13 l 494 13 b 811 232 714 13 767 64 l 825 232 l 792 0 l 24 0 l 578 1029 "},"ă":{"ha":618,"x_min":0,"x_max":0,"o":"m 292 829 b 417 915 365 829 401 872 l 429 915 b 292 738 429 831 386 738 b 153 917 196 738 153 826 l 165 917 b 292 829 178 874 215 829 m 194 -11 b 26 133 94 -11 26 40 b 275 322 26 260 147 267 l 299 332 b 385 440 357 357 385 371 l 385 547 b 281 646 385 624 331 646 b 189 581 225 646 210 624 b 115 514 172 543 158 514 b 57 565 78 514 57 538 b 278 658 57 625 157 658 b 542 483 407 658 542 622 l 542 179 b 588 18 542 40 550 18 b 624 31 603 18 614 25 l 626 24 b 515 -8 614 14 586 -8 b 388 79 442 -8 399 21 l 379 71 b 194 -11 331 25 283 -11 m 186 161 b 271 24 186 72 215 24 b 379 85 304 24 340 47 l 386 92 b 385 113 385 97 385 106 l 385 381 b 301 321 374 354 347 342 l 278 310 b 186 161 213 283 186 239 "},"ā":{"ha":618,"x_min":0,"x_max":0,"o":"m 439 790 l 142 790 l 142 856 l 439 856 m 194 -11 b 26 133 94 -11 26 40 b 275 322 26 260 147 267 l 299 332 b 385 440 357 357 385 371 l 385 547 b 281 646 385 624 331 646 b 189 581 225 646 210 624 b 115 514 172 543 158 514 b 57 565 78 514 57 538 b 278 658 57 625 157 658 b 542 483 407 658 542 622 l 542 179 b 588 18 542 40 550 18 b 624 31 603 18 614 25 l 626 24 b 515 -8 614 14 586 -8 b 388 79 442 -8 399 21 l 379 71 b 194 -11 331 25 283 -11 m 186 161 b 271 24 186 72 215 24 b 379 85 304 24 340 47 l 386 92 b 385 113 385 97 385 106 l 385 381 b 301 321 374 354 347 342 l 278 310 b 186 161 213 283 186 239 "},"ą":{"ha":618,"x_min":0,"x_max":0,"o":"m 194 -11 b 26 133 94 -11 26 40 b 275 322 26 260 147 267 l 299 332 b 385 440 357 357 385 371 l 385 547 b 281 646 385 624 331 646 b 189 581 225 646 210 624 b 115 514 172 543 158 514 b 57 565 78 514 57 538 b 278 658 57 625 157 658 b 542 483 407 658 542 622 l 542 179 b 588 18 542 40 550 18 b 624 31 603 18 614 25 l 626 24 b 599 7 622 19 614 13 b 514 -124 569 -8 514 -42 b 578 -197 514 -168 538 -197 b 626 -176 599 -197 611 -189 l 632 -185 b 501 -243 618 -199 585 -243 b 372 -150 428 -243 372 -210 b 539 -7 372 -74 467 -25 l 515 -8 b 388 79 442 -8 399 21 l 379 71 b 194 -11 331 25 283 -11 m 186 161 b 271 24 186 72 215 24 b 379 85 304 24 340 47 l 386 92 b 385 113 385 97 385 106 l 385 381 b 301 321 374 354 347 342 l 278 310 b 186 161 213 283 186 239 "},"ǻ":{"ha":618,"x_min":0,"x_max":0,"o":"m 339 1122 b 413 1149 361 1140 386 1149 b 468 1094 446 1149 468 1122 b 383 1017 468 1057 446 1032 l 160 978 l 156 986 m 172 843 b 290 950 172 906 222 950 b 408 843 361 950 408 906 b 290 736 408 778 361 736 b 172 843 219 736 172 778 m 232 843 b 290 749 232 781 251 749 b 350 843 331 749 350 781 b 290 938 350 903 328 938 b 232 843 253 938 232 903 m 194 -11 b 26 133 94 -11 26 40 b 275 322 26 260 147 267 l 299 332 b 385 440 357 357 385 371 l 385 547 b 281 646 385 624 331 646 b 189 581 225 646 210 624 b 115 514 172 543 158 514 b 57 565 78 514 57 538 b 278 658 57 625 157 658 b 542 483 407 658 542 622 l 542 179 b 588 18 542 40 550 18 b 624 31 603 18 614 25 l 626 24 b 515 -8 614 14 586 -8 b 388 79 442 -8 399 21 l 379 71 b 194 -11 331 25 283 -11 m 186 161 b 271 24 186 72 215 24 b 379 85 304 24 340 47 l 386 92 b 385 113 385 97 385 106 l 385 381 b 301 321 374 354 347 342 l 278 310 b 186 161 213 283 186 239 "},"ǽ":{"ha":979,"x_min":0,"x_max":0,"o":"m 532 910 b 613 971 558 953 578 971 b 669 914 650 971 669 947 b 614 836 669 876 646 854 l 419 721 l 413 729 m 196 -11 b 26 133 96 -11 26 40 b 275 322 26 260 147 267 l 299 332 b 385 440 357 357 385 371 l 385 547 b 281 646 385 624 331 646 b 189 581 225 646 210 624 b 115 514 172 543 158 514 b 57 565 78 514 57 538 b 278 658 57 625 157 658 b 503 590 365 658 453 642 b 689 660 563 639 632 660 b 950 451 863 660 939 546 l 553 451 b 546 338 549 418 546 381 b 756 15 546 146 615 15 b 928 75 835 15 882 40 l 936 65 b 719 -11 888 26 826 -11 b 442 124 613 -11 507 29 l 386 71 b 196 -11 335 24 293 -11 m 689 647 b 554 464 626 647 575 599 l 807 464 b 689 647 797 575 771 647 m 186 161 b 271 24 186 72 215 24 b 386 85 304 24 343 46 l 436 132 b 385 329 404 183 385 247 l 385 381 b 301 321 374 354 347 342 l 278 310 b 186 161 213 283 186 239 "},"ć":{"ha":590,"x_min":0,"x_max":0,"o":"m 381 910 b 461 971 407 953 426 971 b 518 914 499 971 518 947 b 463 836 518 876 494 854 l 268 721 l 261 729 m 353 -10 b 32 314 179 -10 32 118 b 357 660 32 536 218 660 b 568 557 472 660 568 621 b 511 506 568 525 544 506 b 426 599 456 506 444 538 b 358 647 415 636 396 647 b 196 351 268 647 196 568 b 393 17 196 124 275 17 b 565 94 472 17 525 46 l 574 88 b 353 -10 531 33 458 -10 "},"č":{"ha":590,"x_min":0,"x_max":0,"o":"m 351 881 l 507 988 l 515 982 l 351 729 l 188 982 l 196 988 m 353 -10 b 32 314 179 -10 32 118 b 357 660 32 536 218 660 b 568 557 472 660 568 621 b 511 506 568 525 544 506 b 426 599 456 506 444 538 b 358 647 415 636 396 647 b 196 351 268 647 196 568 b 393 17 196 124 275 17 b 565 94 472 17 525 46 l 574 88 b 353 -10 531 33 458 -10 "},"ĉ":{"ha":590,"x_min":0,"x_max":0,"o":"m 515 724 l 507 718 l 351 825 l 196 718 l 188 724 l 351 978 m 353 -10 b 32 314 179 -10 32 118 b 357 660 32 536 218 660 b 568 557 472 660 568 621 b 511 506 568 525 544 506 b 426 599 456 506 444 538 b 358 647 415 636 396 647 b 196 351 268 647 196 568 b 393 17 196 124 275 17 b 565 94 472 17 525 46 l 574 88 b 353 -10 531 33 458 -10 "},"ċ":{"ha":590,"x_min":0,"x_max":0,"o":"m 351 739 b 264 828 303 739 264 779 b 351 914 264 876 303 914 b 440 828 401 914 440 876 b 351 739 440 779 401 739 m 353 -10 b 32 314 179 -10 32 118 b 357 660 32 536 218 660 b 568 557 472 660 568 621 b 511 506 568 525 544 506 b 426 599 456 506 444 538 b 358 647 415 636 396 647 b 196 351 268 647 196 568 b 393 17 196 124 275 17 b 565 94 472 17 525 46 l 574 88 b 353 -10 531 33 458 -10 "},"ď":{"ha":746,"x_min":0,"x_max":0,"o":"m 299 -10 b 40 303 171 -10 40 92 b 361 657 40 531 192 657 b 510 604 422 657 472 633 l 510 783 b 453 951 510 943 510 947 l 453 963 l 667 1078 l 667 213 b 728 10 667 46 668 25 l 728 0 l 510 0 l 510 110 l 497 96 b 299 -10 443 36 386 -10 m 726 964 b 788 1061 731 1032 750 1061 b 840 1004 822 1061 840 1042 b 822 943 840 983 832 964 l 726 769 l 718 772 m 206 321 b 342 18 206 88 269 18 b 497 113 396 18 443 51 l 510 126 l 510 588 b 364 644 467 621 424 644 b 206 321 269 644 206 547 "},"ĕ":{"ha":631,"x_min":0,"x_max":0,"o":"m 344 829 b 469 915 418 829 454 872 l 482 915 b 344 738 482 831 439 738 b 206 917 249 738 206 826 l 218 917 b 344 829 231 874 268 829 m 368 -11 b 32 329 201 -11 32 90 b 338 660 32 558 215 660 b 601 451 510 660 590 546 l 200 451 b 193 338 196 418 193 381 b 404 15 193 146 264 15 b 579 75 483 15 531 40 l 586 65 b 368 -11 538 26 475 -11 m 338 647 b 201 464 275 647 222 599 l 458 464 b 338 647 447 575 419 647 "},"ě":{"ha":631,"x_min":0,"x_max":0,"o":"m 343 881 l 499 988 l 507 982 l 343 729 l 179 982 l 188 988 m 368 -11 b 32 329 201 -11 32 90 b 338 660 32 558 215 660 b 601 451 510 660 590 546 l 200 451 b 193 338 196 418 193 381 b 404 15 193 146 264 15 b 579 75 483 15 531 40 l 586 65 b 368 -11 538 26 475 -11 m 338 647 b 201 464 275 647 222 599 l 458 464 b 338 647 447 575 419 647 "},"ė":{"ha":631,"x_min":0,"x_max":0,"o":"m 343 739 b 256 828 294 739 256 779 b 343 914 256 876 294 914 b 432 828 393 914 432 876 b 343 739 432 779 393 739 m 368 -11 b 32 329 201 -11 32 90 b 338 660 32 558 215 660 b 601 451 510 660 590 546 l 200 451 b 193 338 196 418 193 381 b 404 15 193 146 264 15 b 579 75 483 15 531 40 l 586 65 b 368 -11 538 26 475 -11 m 338 647 b 201 464 275 647 222 599 l 458 464 b 338 647 447 575 419 647 "},"ē":{"ha":631,"x_min":0,"x_max":0,"o":"m 492 790 l 194 790 l 194 856 l 492 856 m 368 -11 b 32 329 201 -11 32 90 b 338 660 32 558 215 660 b 601 451 510 660 590 546 l 200 451 b 193 338 196 418 193 381 b 404 15 193 146 264 15 b 579 75 483 15 531 40 l 586 65 b 368 -11 538 26 475 -11 m 338 647 b 201 464 275 647 222 599 l 458 464 b 338 647 447 575 419 647 "},"ę":{"ha":631,"x_min":0,"x_max":0,"o":"m 528 -185 b 397 -243 514 -199 481 -243 b 268 -150 324 -243 268 -210 b 439 -3 268 -74 364 -33 b 368 -11 421 -7 394 -11 b 32 329 201 -11 32 90 b 338 660 32 558 215 660 b 601 451 510 660 590 546 l 200 451 b 193 338 196 418 193 381 b 404 15 193 146 264 15 b 579 75 483 15 531 40 l 586 65 b 508 17 564 49 542 32 b 410 -124 469 -1 410 -37 b 474 -197 410 -169 433 -197 b 522 -176 494 -197 507 -189 l 528 -185 m 338 647 b 201 464 275 647 222 599 l 458 464 b 338 647 447 575 419 647 "},"ğ":{"ha":615,"x_min":0,"x_max":0,"o":"m 307 829 b 432 915 381 829 417 872 l 444 915 b 307 738 444 831 401 738 b 168 917 211 738 168 826 l 181 917 b 307 829 193 874 231 829 m 294 224 b 163 254 250 224 203 233 l 144 240 b 104 189 115 219 104 207 b 169 153 104 174 121 158 l 394 125 b 597 -35 539 107 597 50 b 292 -239 597 -157 475 -239 b 15 -103 158 -239 15 -206 b 147 13 15 -44 85 -10 b 53 122 81 33 53 74 b 132 246 53 178 92 214 l 151 260 b 40 436 86 294 39 353 b 294 660 40 576 176 660 b 428 626 339 660 385 649 b 557 688 476 665 525 688 b 617 638 600 688 617 669 b 575 590 617 606 596 590 b 476 632 535 590 510 632 b 438 621 464 632 450 628 b 551 436 503 583 551 519 b 294 224 551 297 413 224 m 294 236 b 408 436 350 236 408 285 b 294 647 408 588 356 647 b 183 436 235 647 183 588 b 294 236 183 285 238 236 m 106 -93 b 292 -226 106 -183 174 -226 b 539 -106 458 -226 539 -161 b 367 -18 539 -44 476 -31 l 206 0 b 161 8 190 1 175 4 b 106 -93 118 -12 106 -49 "},"ĝ":{"ha":615,"x_min":0,"x_max":0,"o":"m 469 724 l 461 718 l 306 825 l 150 718 l 142 724 l 306 978 m 294 224 b 163 254 250 224 203 233 l 144 240 b 104 189 115 219 104 207 b 169 153 104 174 121 158 l 394 125 b 597 -35 539 107 597 50 b 292 -239 597 -157 475 -239 b 15 -103 158 -239 15 -206 b 147 13 15 -44 85 -10 b 53 122 81 33 53 74 b 132 246 53 178 92 214 l 151 260 b 40 436 86 294 39 353 b 294 660 40 576 176 660 b 428 626 339 660 385 649 b 557 688 476 665 525 688 b 617 638 600 688 617 669 b 575 590 617 606 596 590 b 476 632 535 590 510 632 b 438 621 464 632 450 628 b 551 436 503 583 551 519 b 294 224 551 297 413 224 m 294 236 b 408 436 350 236 408 285 b 294 647 408 588 356 647 b 183 436 235 647 183 588 b 294 236 183 285 238 236 m 106 -93 b 292 -226 106 -183 174 -226 b 539 -106 458 -226 539 -161 b 367 -18 539 -44 476 -31 l 206 0 b 161 8 190 1 175 4 b 106 -93 118 -12 106 -49 "},"ģ":{"ha":615,"x_min":0,"x_max":0,"o":"m 253 853 b 310 881 258 863 276 881 b 382 811 349 881 382 854 b 304 736 382 765 344 736 b 214 838 260 736 214 765 b 340 965 214 911 263 956 l 344 954 b 246 872 274 943 246 904 b 253 853 246 861 249 854 m 294 224 b 163 254 250 224 203 233 l 144 240 b 104 189 115 219 104 207 b 169 153 104 174 121 158 l 394 125 b 597 -35 539 107 597 50 b 292 -239 597 -157 475 -239 b 15 -103 158 -239 15 -206 b 147 13 15 -44 85 -10 b 53 122 81 33 53 74 b 132 246 53 178 92 214 l 151 260 b 40 436 86 294 39 353 b 294 660 40 576 176 660 b 428 626 339 660 385 649 b 557 688 476 665 525 688 b 617 638 600 688 617 669 b 575 590 617 606 596 590 b 476 632 535 590 510 632 b 438 621 464 632 450 628 b 551 436 503 583 551 519 b 294 224 551 297 413 224 m 294 236 b 408 436 350 236 408 285 b 294 647 408 588 356 647 b 183 436 235 647 183 588 b 294 236 183 285 238 236 m 106 -93 b 292 -226 106 -183 174 -226 b 539 -106 458 -226 539 -161 b 367 -18 539 -44 476 -31 l 206 0 b 161 8 190 1 175 4 b 106 -93 118 -12 106 -49 "},"ġ":{"ha":615,"x_min":0,"x_max":0,"o":"m 306 739 b 218 828 257 739 218 779 b 306 914 218 876 257 914 b 394 828 356 914 394 876 b 306 739 394 779 356 739 m 294 224 b 163 254 250 224 203 233 l 144 240 b 104 189 115 219 104 207 b 169 153 104 174 121 158 l 394 125 b 597 -35 539 107 597 50 b 292 -239 597 -157 475 -239 b 15 -103 158 -239 15 -206 b 147 13 15 -44 85 -10 b 53 122 81 33 53 74 b 132 246 53 178 92 214 l 151 260 b 40 436 86 294 39 353 b 294 660 40 576 176 660 b 428 626 339 660 385 649 b 557 688 476 665 525 688 b 617 638 600 688 617 669 b 575 590 617 606 596 590 b 476 632 535 590 510 632 b 438 621 464 632 450 628 b 551 436 503 583 551 519 b 294 224 551 297 413 224 m 294 236 b 408 436 350 236 408 285 b 294 647 408 588 356 647 b 183 436 235 647 183 588 b 294 236 183 285 238 236 m 106 -93 b 292 -226 106 -183 174 -226 b 539 -106 458 -226 539 -161 b 367 -18 539 -44 476 -31 l 206 0 b 161 8 190 1 175 4 b 106 -93 118 -12 106 -49 "},"ĥ":{"ha":713,"x_min":0,"x_max":0,"o":"m 565 1118 l 561 1110 l 376 1165 l 192 1110 l 188 1118 l 376 1289 m 21 10 b 76 213 75 24 76 46 l 76 783 b 19 951 76 943 76 947 l 19 963 l 233 1078 l 233 513 l 264 542 b 479 658 336 613 394 658 b 640 483 560 658 640 619 l 640 213 b 696 10 640 46 640 25 l 696 0 l 421 0 l 421 10 b 482 213 479 24 482 46 l 482 528 b 415 621 482 599 450 621 b 264 525 376 621 329 590 l 233 496 l 233 213 b 294 10 233 46 235 25 l 294 0 l 21 0 l 21 10 "},"ĭ":{"ha":313,"x_min":0,"x_max":0,"o":"m 158 829 b 283 915 232 829 268 872 l 296 915 b 158 738 296 831 253 738 b 19 917 63 738 19 826 l 32 917 b 158 829 44 874 82 829 m 19 10 b 78 213 75 25 78 46 l 78 365 b 21 538 78 528 78 531 l 21 549 l 235 667 l 235 213 b 296 10 235 46 236 25 l 296 0 l 19 0 l 19 10 "},"ī":{"ha":313,"x_min":0,"x_max":0,"o":"m 306 790 l 8 790 l 8 856 l 306 856 m 19 10 b 78 213 75 25 78 46 l 78 365 b 21 538 78 528 78 531 l 21 549 l 235 667 l 235 213 b 296 10 235 46 236 25 l 296 0 l 19 0 l 19 10 "},"į":{"ha":315,"x_min":0,"x_max":0,"o":"m 156 739 b 68 828 107 739 68 779 b 156 914 68 876 107 914 b 244 828 206 914 244 876 b 156 739 244 779 206 739 m 238 0 b 176 -124 210 -22 176 -58 b 240 -197 176 -168 200 -197 b 289 -176 261 -197 274 -189 l 294 -185 b 164 -243 281 -199 247 -243 b 33 -150 90 -243 33 -210 b 221 0 33 -67 160 -11 l 19 0 l 19 10 b 78 213 75 25 78 46 l 78 365 b 21 538 78 528 78 531 l 21 549 l 235 667 l 235 213 b 296 10 235 46 236 25 l 296 0 l 238 0 "},"ĩ":{"ha":313,"x_min":0,"x_max":0,"o":"m 97 896 b 243 882 153 896 199 882 b 318 943 267 882 286 897 l 326 939 b 224 788 304 851 272 788 b 79 801 172 788 129 801 b 4 742 53 801 38 790 l -6 746 b 97 896 26 840 54 896 m 19 10 b 78 213 75 25 78 46 l 78 365 b 21 538 78 528 78 531 l 21 549 l 235 667 l 235 213 b 296 10 235 46 236 25 l 296 0 l 19 0 l 19 10 "},"ĵ":{"ha":314,"x_min":0,"x_max":0,"o":"m 321 724 l 313 718 l 157 825 l 1 718 l -7 724 l 157 978 m -40 -193 b -103 -136 -72 -193 -103 -174 b -53 -86 -103 -103 -81 -86 b 46 -153 -7 -86 18 -153 b 58 -147 51 -153 54 -151 b 78 -10 74 -136 78 -103 l 78 364 b 21 538 78 528 78 531 l 21 549 l 235 667 l 235 128 b 94 -140 235 17 200 -64 b -40 -193 35 -183 3 -193 "},"ķ":{"ha":671,"x_min":0,"x_max":0,"o":"m 21 10 b 76 213 75 24 76 46 l 76 783 b 19 951 76 943 76 947 l 19 963 l 233 1078 l 233 213 b 294 10 233 46 235 25 l 294 0 l 21 0 l 21 10 m 413 10 b 422 82 450 14 457 33 l 239 342 l 240 350 l 479 551 b 474 639 540 606 522 633 l 474 647 l 642 647 l 642 639 b 488 542 597 628 568 608 l 356 432 l 608 78 b 679 10 646 28 661 14 l 679 0 l 413 0 l 413 10 m 392 -167 b 335 -194 386 -178 368 -194 b 263 -125 296 -194 263 -168 b 340 -51 263 -79 300 -51 b 432 -151 386 -51 432 -79 b 304 -279 432 -228 382 -272 l 300 -268 b 400 -186 371 -258 400 -218 b 392 -167 400 -175 397 -168 "},"ĺ":{"ha":318,"x_min":0,"x_max":0,"o":"m 207 1226 b 281 1253 229 1244 254 1253 b 336 1199 314 1253 336 1226 b 251 1121 336 1161 314 1136 l 28 1082 l 24 1090 m 21 10 b 78 213 76 25 78 46 l 78 783 b 19 951 78 943 79 947 l 19 963 l 236 1078 l 236 213 b 300 10 236 46 239 24 l 300 0 l 21 0 l 21 10 "},"ľ":{"ha":318,"x_min":0,"x_max":0,"o":"m 21 10 b 78 213 76 25 78 46 l 78 783 b 19 951 78 943 79 947 l 19 963 l 236 1078 l 236 213 b 300 10 236 46 239 24 l 300 0 l 21 0 l 21 10 m 297 964 b 358 1061 301 1032 321 1061 b 411 1004 393 1061 411 1042 b 393 943 411 983 403 964 l 297 769 l 289 772 "},"ļ":{"ha":318,"x_min":0,"x_max":0,"o":"m 21 10 b 78 213 76 25 78 46 l 78 783 b 19 951 78 943 79 947 l 19 963 l 236 1078 l 236 213 b 300 10 236 46 239 24 l 300 0 l 21 0 l 21 10 m 206 -167 b 149 -194 200 -178 182 -194 b 76 -125 110 -194 76 -168 b 154 -51 76 -79 114 -51 b 246 -151 200 -51 246 -79 b 118 -279 246 -228 196 -272 l 114 -268 b 214 -186 185 -258 214 -218 b 206 -167 214 -175 211 -168 "},"ń":{"ha":718,"x_min":0,"x_max":0,"o":"m 403 910 b 483 971 429 953 449 971 b 540 914 521 971 540 947 b 485 836 540 876 517 854 l 290 721 l 283 729 m 21 10 b 76 213 75 24 76 46 l 76 365 b 19 538 76 528 76 531 l 19 549 l 233 667 l 233 508 l 268 542 b 485 658 340 613 400 658 b 646 483 564 658 646 619 l 646 213 b 701 10 646 46 646 25 l 701 0 l 425 0 l 425 10 b 488 213 481 25 488 46 l 488 528 b 419 621 488 599 457 621 b 268 525 382 621 335 590 l 233 492 l 233 213 b 294 10 233 46 235 25 l 294 0 l 21 0 l 21 10 "},"ň":{"ha":718,"x_min":0,"x_max":0,"o":"m 374 881 l 529 988 l 538 982 l 374 729 l 210 982 l 218 988 m 21 10 b 76 213 75 24 76 46 l 76 365 b 19 538 76 528 76 531 l 19 549 l 233 667 l 233 508 l 268 542 b 485 658 340 613 400 658 b 646 483 564 658 646 619 l 646 213 b 701 10 646 46 646 25 l 701 0 l 425 0 l 425 10 b 488 213 481 25 488 46 l 488 528 b 419 621 488 599 457 621 b 268 525 382 621 335 590 l 233 492 l 233 213 b 294 10 233 46 235 25 l 294 0 l 21 0 l 21 10 "},"ņ":{"ha":718,"x_min":0,"x_max":0,"o":"m 21 10 b 76 213 75 24 76 46 l 76 365 b 19 538 76 528 76 531 l 19 549 l 233 667 l 233 508 l 268 542 b 485 658 340 613 400 658 b 646 483 564 658 646 619 l 646 213 b 701 10 646 46 646 25 l 701 0 l 425 0 l 425 10 b 488 213 481 25 488 46 l 488 528 b 419 621 488 599 457 621 b 268 525 382 621 335 590 l 233 492 l 233 213 b 294 10 233 46 235 25 l 294 0 l 21 0 l 21 10 m 403 -167 b 346 -194 397 -178 379 -194 b 274 -125 307 -194 274 -168 b 351 -51 274 -79 311 -51 b 443 -151 397 -51 443 -79 b 315 -279 443 -228 393 -272 l 311 -268 b 411 -186 382 -258 411 -218 b 403 -167 411 -175 408 -168 "},"ŏ":{"ha":704,"x_min":0,"x_max":0,"o":"m 353 829 b 478 915 426 829 463 872 l 490 915 b 353 738 490 831 447 738 b 214 917 257 738 214 826 l 226 917 b 353 829 239 874 276 829 m 353 -11 b 32 321 231 -11 32 76 b 353 661 32 561 231 661 b 672 321 475 661 672 561 b 353 -11 672 76 475 -11 m 353 1 b 508 321 438 1 508 74 b 353 649 508 567 438 649 b 196 321 268 649 196 567 b 353 1 196 74 268 1 "},"ő":{"ha":704,"x_min":0,"x_max":0,"o":"m 290 932 b 356 1004 301 975 317 1004 b 407 950 390 1004 407 982 b 381 892 407 931 399 911 l 253 743 l 244 746 m 468 932 b 533 1004 479 975 494 1004 b 585 950 567 1004 585 982 b 560 892 585 931 576 911 l 431 743 l 422 746 m 353 -11 b 32 321 231 -11 32 76 b 353 661 32 561 231 661 b 672 321 475 661 672 561 b 353 -11 672 76 475 -11 m 353 1 b 508 321 438 1 508 74 b 353 649 508 567 438 649 b 196 321 268 649 196 567 b 353 1 196 74 268 1 "},"ō":{"ha":704,"x_min":0,"x_max":0,"o":"m 500 790 l 203 790 l 203 856 l 500 856 m 353 -11 b 32 321 231 -11 32 76 b 353 661 32 561 231 661 b 672 321 475 661 672 561 b 353 -11 672 76 475 -11 m 353 1 b 508 321 438 1 508 74 b 353 649 508 567 438 649 b 196 321 268 649 196 567 b 353 1 196 74 268 1 "},"ǿ":{"ha":704,"x_min":0,"x_max":0,"o":"m 268 721 l 261 729 l 381 910 b 461 971 407 953 426 971 b 518 914 499 971 518 947 b 463 836 518 876 494 854 m 510 617 l 499 622 l 544 711 l 556 704 m 196 321 b 226 101 196 221 206 151 l 192 33 b 32 321 106 82 32 172 b 353 661 32 561 231 661 b 499 622 396 661 449 649 l 468 565 b 353 649 440 625 399 649 b 196 321 268 649 196 567 m 510 617 b 672 321 596 564 672 471 b 353 -11 672 76 475 -11 b 203 28 308 -11 254 0 l 233 86 b 353 1 263 24 304 1 b 508 321 438 1 508 74 b 475 550 508 425 496 499 l 510 617 m 468 565 b 475 550 472 560 474 556 l 233 86 l 226 101 m 192 33 b 203 28 193 32 197 29 l 150 -74 l 139 -67 "},"ŕ":{"ha":511,"x_min":0,"x_max":0,"o":"m 319 910 b 400 971 346 953 365 971 b 457 914 438 971 457 947 b 401 836 457 876 433 854 l 207 721 l 200 729 m 21 10 b 76 213 75 24 76 46 l 76 365 b 19 538 76 528 76 531 l 19 549 l 233 667 l 233 515 l 260 544 b 431 658 346 638 378 658 b 501 597 474 658 501 636 b 438 529 501 549 471 529 b 331 581 381 529 364 581 b 260 529 310 581 299 572 l 233 500 l 233 213 b 294 10 233 46 235 25 l 294 0 l 21 0 l 21 10 "},"ř":{"ha":511,"x_min":0,"x_max":0,"o":"m 290 881 l 446 988 l 454 982 l 290 729 l 126 982 l 135 988 m 21 10 b 76 213 75 24 76 46 l 76 365 b 19 538 76 528 76 531 l 19 549 l 233 667 l 233 515 l 260 544 b 431 658 346 638 378 658 b 501 597 474 658 501 636 b 438 529 501 549 471 529 b 331 581 381 529 364 581 b 260 529 310 581 299 572 l 233 500 l 233 213 b 294 10 233 46 235 25 l 294 0 l 21 0 l 21 10 "},"ŗ":{"ha":511,"x_min":0,"x_max":0,"o":"m 21 10 b 76 213 75 24 76 46 l 76 365 b 19 538 76 528 76 531 l 19 549 l 233 667 l 233 515 l 260 544 b 431 658 346 638 378 658 b 501 597 474 658 501 636 b 438 529 501 549 471 529 b 331 581 381 529 364 581 b 260 529 310 581 299 572 l 233 500 l 233 213 b 294 10 233 46 235 25 l 294 0 l 21 0 l 21 10 m 201 -167 b 144 -194 196 -178 178 -194 b 72 -125 106 -194 72 -168 b 150 -51 72 -79 110 -51 b 242 -151 196 -51 242 -79 b 114 -279 242 -228 192 -272 l 110 -268 b 210 -186 181 -258 210 -218 b 201 -167 210 -175 207 -168 "},"ś":{"ha":513,"x_min":0,"x_max":0,"o":"m 276 910 b 357 971 303 953 322 971 b 414 914 394 971 414 947 b 358 836 414 876 390 854 l 164 721 l 157 729 m 251 3 b 383 117 353 3 383 54 b 228 269 383 183 343 224 b 36 486 104 318 36 367 b 238 661 36 582 117 661 b 401 626 329 661 354 626 b 425 650 413 626 421 638 l 436 650 l 436 488 l 425 488 b 238 649 390 594 328 649 b 121 554 153 649 121 611 b 276 419 121 486 178 460 b 479 192 414 364 479 313 b 251 -10 479 72 381 -10 b 67 40 144 -10 106 40 b 42 17 56 40 46 32 l 29 17 l 29 211 l 42 211 b 251 3 76 71 140 3 "},"ş":{"ha":513,"x_min":0,"x_max":0,"o":"m 235 -10 l 201 -67 b 336 -169 279 -76 336 -115 b 103 -283 336 -247 254 -279 l 100 -272 b 236 -203 179 -260 236 -236 b 143 -150 236 -171 199 -154 l 139 -143 l 219 -8 b 67 40 136 0 101 40 b 42 17 56 40 46 32 l 29 17 l 29 211 l 42 211 b 251 3 76 71 140 3 b 383 117 353 3 383 54 b 228 269 383 183 343 224 b 36 486 104 318 36 367 b 238 661 36 582 117 661 b 401 626 329 661 354 626 b 425 650 413 626 421 638 l 436 650 l 436 488 l 425 488 b 238 649 390 594 328 649 b 121 554 153 649 121 611 b 276 419 121 486 178 460 b 479 192 414 364 479 313 b 251 -10 479 72 381 -10 "},"ŝ":{"ha":513,"x_min":0,"x_max":0,"o":"m 411 724 l 403 718 l 247 825 l 92 718 l 83 724 l 247 978 m 251 3 b 383 117 353 3 383 54 b 228 269 383 183 343 224 b 36 486 104 318 36 367 b 238 661 36 582 117 661 b 401 626 329 661 354 626 b 425 650 413 626 421 638 l 436 650 l 436 488 l 425 488 b 238 649 390 594 328 649 b 121 554 153 649 121 611 b 276 419 121 486 178 460 b 479 192 414 364 479 313 b 251 -10 479 72 381 -10 b 67 40 144 -10 106 40 b 42 17 56 40 46 32 l 29 17 l 29 211 l 42 211 b 251 3 76 71 140 3 "},"ș":{"ha":513,"x_min":0,"x_max":0,"o":"m 251 3 b 383 117 353 3 383 54 b 228 269 383 183 343 224 b 36 486 104 318 36 367 b 238 661 36 582 117 661 b 401 626 329 661 354 626 b 425 650 413 626 421 638 l 436 650 l 436 488 l 425 488 b 238 649 390 594 328 649 b 121 554 153 649 121 611 b 276 419 121 486 178 460 b 479 192 414 364 479 313 b 251 -10 479 72 381 -10 b 67 40 144 -10 106 40 b 42 17 56 40 46 32 l 29 17 l 29 211 l 42 211 b 251 3 76 71 140 3 m 288 -167 b 231 -194 282 -178 264 -194 b 158 -125 192 -194 158 -168 b 236 -51 158 -79 196 -51 b 328 -151 282 -51 328 -79 b 200 -279 328 -228 278 -272 l 196 -268 b 296 -186 267 -258 296 -218 b 288 -167 296 -175 293 -168 "},"ť":{"ha":400,"x_min":0,"x_max":0,"o":"m 313 919 b 374 1017 317 988 336 1017 b 426 960 408 1017 426 997 b 408 899 426 939 418 919 l 313 725 l 304 728 m 250 -10 b 82 142 139 -10 82 51 l 82 633 l 25 633 l 25 646 b 226 876 108 657 196 733 l 239 876 l 239 647 l 376 647 l 376 633 l 239 633 l 239 168 b 307 15 239 58 246 15 b 381 49 339 15 365 32 l 388 43 b 250 -10 372 25 339 -10 "},"ţ":{"ha":400,"x_min":0,"x_max":0,"o":"m 250 -10 b 82 142 139 -10 82 51 l 82 633 l 25 633 l 25 646 b 226 876 108 657 196 733 l 239 876 l 239 647 l 376 647 l 376 633 l 239 633 l 239 168 b 307 15 239 58 246 15 b 381 49 339 15 365 32 l 388 43 b 250 -10 372 25 339 -10 m 269 -167 b 213 -194 264 -178 246 -194 b 140 -125 174 -194 140 -168 b 218 -51 140 -79 178 -51 b 310 -151 264 -51 310 -79 b 182 -279 310 -228 260 -272 l 178 -268 b 278 -186 249 -258 278 -218 b 269 -167 278 -175 275 -168 "},"ț":{"ha":400,"x_min":0,"x_max":0,"o":"m 250 -10 b 82 142 139 -10 82 51 l 82 633 l 25 633 l 25 646 b 226 876 108 657 196 733 l 239 876 l 239 647 l 376 647 l 376 633 l 239 633 l 239 168 b 307 15 239 58 246 15 b 381 49 339 15 365 32 l 388 43 b 250 -10 372 25 339 -10 m 269 -167 b 213 -194 264 -178 246 -194 b 140 -125 174 -194 140 -168 b 218 -51 140 -79 178 -51 b 310 -151 264 -51 310 -79 b 182 -279 310 -228 260 -272 l 178 -268 b 278 -186 249 -258 278 -218 b 269 -167 278 -175 275 -168 "},"ŭ":{"ha":700,"x_min":0,"x_max":0,"o":"m 375 829 b 500 915 449 829 485 872 l 513 915 b 375 738 513 831 469 738 b 236 917 279 738 236 826 l 249 917 b 375 829 261 874 299 829 m 235 -11 b 74 160 154 -11 74 28 l 74 365 b 17 538 74 528 74 531 l 17 549 l 232 667 l 232 119 b 299 26 232 49 264 26 b 451 126 336 26 385 61 l 469 143 l 469 365 b 413 538 469 528 469 531 l 413 549 l 626 667 l 626 213 b 685 10 626 46 629 25 l 685 0 l 469 0 l 469 126 l 451 110 b 235 -11 378 39 319 -11 "},"ű":{"ha":700,"x_min":0,"x_max":0,"o":"m 313 932 b 378 1004 324 975 339 1004 b 429 950 413 1004 429 982 b 403 892 429 931 421 911 l 275 743 l 267 746 m 490 932 b 556 1004 501 975 517 1004 b 607 950 589 1004 607 982 b 582 892 607 931 599 911 l 453 743 l 444 746 m 235 -11 b 74 160 154 -11 74 28 l 74 365 b 17 538 74 528 74 531 l 17 549 l 232 667 l 232 119 b 299 26 232 49 264 26 b 451 126 336 26 385 61 l 469 143 l 469 365 b 413 538 469 528 469 531 l 413 549 l 626 667 l 626 213 b 685 10 626 46 629 25 l 685 0 l 469 0 l 469 126 l 451 110 b 235 -11 378 39 319 -11 "},"ū":{"ha":700,"x_min":0,"x_max":0,"o":"m 522 790 l 225 790 l 225 856 l 522 856 m 235 -11 b 74 160 154 -11 74 28 l 74 365 b 17 538 74 528 74 531 l 17 549 l 232 667 l 232 119 b 299 26 232 49 264 26 b 451 126 336 26 385 61 l 469 143 l 469 365 b 413 538 469 528 469 531 l 413 549 l 626 667 l 626 213 b 685 10 626 46 629 25 l 685 0 l 469 0 l 469 126 l 451 110 b 235 -11 378 39 319 -11 "},"ų":{"ha":700,"x_min":0,"x_max":0,"o":"m 235 -11 b 74 160 154 -11 74 28 l 74 365 b 17 538 74 528 74 531 l 17 549 l 232 667 l 232 119 b 299 26 232 49 264 26 b 451 126 336 26 385 61 l 469 143 l 469 365 b 413 538 469 528 469 531 l 413 549 l 626 667 l 626 213 b 685 10 626 46 629 25 l 685 0 l 483 0 b 442 -124 467 -22 442 -58 b 506 -197 442 -168 463 -197 b 553 -176 526 -197 540 -189 l 560 -185 b 429 -243 546 -199 513 -243 b 299 -150 351 -243 299 -210 b 469 0 299 -64 419 -14 l 469 126 l 451 110 b 235 -11 378 39 319 -11 "},"ů":{"ha":700,"x_min":0,"x_max":0,"o":"m 256 843 b 374 950 256 906 306 950 b 492 843 444 950 492 906 b 374 736 492 778 444 736 b 256 843 303 736 256 778 m 315 843 b 374 749 315 781 335 749 b 433 843 414 749 433 781 b 374 938 433 903 411 938 b 315 843 336 938 315 903 m 235 -11 b 74 160 154 -11 74 28 l 74 365 b 17 538 74 528 74 531 l 17 549 l 232 667 l 232 119 b 299 26 232 49 264 26 b 451 126 336 26 385 61 l 469 143 l 469 365 b 413 538 469 528 469 531 l 413 549 l 626 667 l 626 213 b 685 10 626 46 629 25 l 685 0 l 469 0 l 469 126 l 451 110 b 235 -11 378 39 319 -11 "},"ũ":{"ha":700,"x_min":0,"x_max":0,"o":"m 314 896 b 460 882 369 896 415 882 b 535 943 483 882 503 897 l 543 939 b 440 788 521 851 489 788 b 296 801 389 788 346 801 b 221 742 269 801 254 790 l 211 746 b 314 896 243 840 271 896 m 235 -11 b 74 160 154 -11 74 28 l 74 365 b 17 538 74 528 74 531 l 17 549 l 232 667 l 232 119 b 299 26 232 49 264 26 b 451 126 336 26 385 61 l 469 143 l 469 365 b 413 538 469 528 469 531 l 413 549 l 626 667 l 626 213 b 685 10 626 46 629 25 l 685 0 l 469 0 l 469 126 l 451 110 b 235 -11 378 39 319 -11 "},"ẃ":{"ha":915,"x_min":0,"x_max":0,"o":"m 490 910 b 571 971 517 953 536 971 b 628 914 608 971 628 947 b 572 836 628 876 604 854 l 378 721 l 371 729 m 89 493 b 3 639 44 615 32 628 l 3 647 l 253 647 l 253 639 b 247 497 211 631 207 613 l 365 169 l 456 385 l 417 493 b 331 639 372 615 360 628 l 331 647 l 576 647 l 576 639 b 567 497 536 632 526 613 l 683 179 l 789 467 b 760 639 844 614 814 632 l 760 647 l 913 647 l 913 639 b 804 467 871 628 860 617 l 629 -7 l 597 -7 l 464 364 l 306 -7 l 274 -7 l 89 493 "},"ŵ":{"ha":915,"x_min":0,"x_max":0,"o":"m 629 724 l 621 718 l 465 825 l 310 718 l 301 724 l 465 978 m 89 493 b 3 639 44 615 32 628 l 3 647 l 253 647 l 253 639 b 247 497 211 631 207 613 l 365 169 l 456 385 l 417 493 b 331 639 372 615 360 628 l 331 647 l 576 647 l 576 639 b 567 497 536 632 526 613 l 683 179 l 789 467 b 760 639 844 614 814 632 l 760 647 l 913 647 l 913 639 b 804 467 871 628 860 617 l 629 -7 l 597 -7 l 464 364 l 306 -7 l 274 -7 l 89 493 "},"ẅ":{"ha":915,"x_min":0,"x_max":0,"o":"m 347 740 b 265 826 301 740 265 776 b 347 906 265 871 301 906 b 429 826 396 906 429 871 b 347 740 429 776 396 740 m 583 740 b 501 826 535 740 501 776 b 583 906 501 871 535 906 b 665 826 629 906 665 871 b 583 740 665 776 629 740 m 89 493 b 3 639 44 615 32 628 l 3 647 l 253 647 l 253 639 b 247 497 211 631 207 613 l 365 169 l 456 385 l 417 493 b 331 639 372 615 360 628 l 331 647 l 576 647 l 576 639 b 567 497 536 632 526 613 l 683 179 l 789 467 b 760 639 844 614 814 632 l 760 647 l 913 647 l 913 639 b 804 467 871 628 860 617 l 629 -7 l 597 -7 l 464 364 l 306 -7 l 274 -7 l 89 493 "},"ẁ":{"ha":915,"x_min":0,"x_max":0,"o":"m 371 836 b 315 914 339 854 315 876 b 372 971 315 947 335 971 b 453 910 407 971 426 953 l 572 729 l 565 721 l 371 836 m 89 493 b 3 639 44 615 32 628 l 3 647 l 253 647 l 253 639 b 247 497 211 631 207 613 l 365 169 l 456 385 l 417 493 b 331 639 372 615 360 628 l 331 647 l 576 647 l 576 639 b 567 497 536 632 526 613 l 683 179 l 789 467 b 760 639 844 614 814 632 l 760 647 l 913 647 l 913 639 b 804 467 871 628 860 617 l 629 -7 l 597 -7 l 464 364 l 306 -7 l 274 -7 l 89 493 "},"ŷ":{"ha":629,"x_min":0,"x_max":0,"o":"m 532 724 l 524 718 l 368 825 l 213 718 l 204 724 l 368 978 m 143 -237 b 68 -179 93 -237 68 -212 b 118 -128 68 -142 92 -128 b 215 -164 167 -128 174 -164 b 301 -44 239 -164 261 -144 l 313 -17 l 90 497 b -4 639 38 617 29 628 l -4 647 l 258 647 l 258 639 b 250 500 218 632 203 614 l 388 171 l 507 467 b 482 639 567 614 536 632 l 482 647 l 633 647 l 633 639 b 522 467 594 628 582 615 l 315 -49 b 143 -237 260 -187 215 -237 "},"ỳ":{"ha":629,"x_min":0,"x_max":0,"o":"m 276 836 b 221 914 244 854 221 876 b 278 971 221 947 240 971 b 358 910 313 971 332 953 l 478 729 l 471 721 l 276 836 m 143 -237 b 68 -179 93 -237 68 -212 b 118 -128 68 -142 92 -128 b 215 -164 167 -128 174 -164 b 301 -44 239 -164 261 -144 l 313 -17 l 90 497 b -4 639 38 617 29 628 l -4 647 l 258 647 l 258 639 b 250 500 218 632 203 614 l 388 171 l 507 467 b 482 639 567 614 536 632 l 482 647 l 633 647 l 633 639 b 522 467 594 628 582 615 l 315 -49 b 143 -237 260 -187 215 -237 "},"ź":{"ha":574,"x_min":0,"x_max":0,"o":"m 336 910 b 417 971 363 953 382 971 b 474 914 454 971 474 947 b 418 836 474 876 450 854 l 224 721 l 217 729 m 526 -14 b 346 0 501 -3 469 0 l 15 0 l 376 636 l 253 636 b 46 492 107 636 79 579 l 35 492 l 64 661 b 244 647 93 649 140 647 l 550 647 l 185 11 l 325 11 b 542 178 475 11 501 71 l 553 178 l 526 -14 "},"ż":{"ha":574,"x_min":0,"x_max":0,"o":"m 307 739 b 219 828 258 739 219 779 b 307 914 219 876 258 914 b 396 828 357 914 396 876 b 307 739 396 779 357 739 m 526 -14 b 346 0 501 -3 469 0 l 15 0 l 376 636 l 253 636 b 46 492 107 636 79 579 l 35 492 l 64 661 b 244 647 93 649 140 647 l 550 647 l 185 11 l 325 11 b 542 178 475 11 501 71 l 553 178 l 526 -14 "},"←":{"ha":1075,"x_min":0,"x_max":0,"o":"m 51 501 b 474 806 178 528 396 661 l 485 801 b 321 501 458 644 404 556 l 1011 501 l 1011 488 l 321 488 b 485 188 404 433 458 344 l 474 183 b 51 488 394 331 178 458 l 51 501 "},"→":{"ha":1075,"x_min":0,"x_max":0,"o":"m 754 501 b 590 801 671 556 617 644 l 601 806 b 1022 501 679 663 897 526 l 1022 488 b 601 183 897 458 681 331 l 590 188 b 754 488 617 344 671 433 l 63 488 l 63 501 "},"ȷ":{"ha":314,"x_min":0,"x_max":0,"o":"m -40 -193 b -103 -136 -72 -193 -103 -174 b -53 -86 -103 -103 -81 -86 b 46 -153 -7 -86 18 -153 b 58 -147 51 -153 54 -151 b 78 -10 74 -136 78 -103 l 78 364 b 21 538 78 528 78 531 l 21 549 l 235 667 l 235 128 b 94 -140 235 17 200 -64 b -40 -193 35 -183 3 -193 "}," ":{"ha":100,"x_min":0,"x_max":0,"o":""},"Đ":{"ha":990,"x_min":0,"x_max":0,"o":"m 26 10 b 99 350 94 29 99 50 l 99 538 l -12 538 l -12 549 l 99 549 l 99 692 b 26 1032 99 992 94 1013 l 26 1042 l 338 1042 b 943 535 704 1042 943 874 b 338 0 943 208 731 0 l 26 0 l 26 10 m 338 11 b 747 536 621 11 747 151 b 338 1029 747 932 581 1029 l 279 1029 l 279 549 l 476 549 l 476 538 l 279 538 l 279 11 l 338 11 "},"Ħ":{"ha":1000,"x_min":0,"x_max":0,"o":"m 899 692 l 899 350 b 971 10 899 49 903 29 l 971 0 l 649 0 l 649 10 b 721 350 717 29 721 49 l 721 565 l 278 565 l 278 350 b 350 10 278 49 282 29 l 350 0 l 29 0 l 29 10 b 101 350 97 29 101 49 l 101 692 l 101 790 l -17 790 l -17 801 l 101 801 b 29 1032 99 999 88 1015 l 29 1042 l 350 1042 l 350 1032 b 278 801 292 1015 281 999 l 721 801 b 649 1032 718 999 707 1015 l 649 1042 l 971 1042 l 971 1032 b 899 801 913 1015 901 999 l 1017 801 l 1017 790 l 899 790 m 721 692 l 721 790 l 278 790 l 278 692 l 278 576 l 721 576 "},"Ĳ":{"ha":968,"x_min":0,"x_max":0,"o":"m 24 10 b 96 350 92 29 96 50 l 96 692 b 24 1032 96 993 92 1013 l 24 1042 l 344 1042 l 344 1032 b 272 692 276 1013 272 993 l 272 350 b 344 10 272 50 276 29 l 344 0 l 24 0 l 24 10 m 615 -14 b 376 124 482 -14 376 39 b 446 193 376 169 411 193 b 528 111 486 193 513 174 b 618 -1 543 32 550 -1 b 700 90 664 -1 700 25 l 700 692 b 628 1032 700 996 696 1013 l 628 1042 l 950 1042 l 950 1032 b 878 692 882 1013 878 996 l 878 235 b 615 -14 878 76 751 -14 "},"Ŀ":{"ha":775,"x_min":0,"x_max":0,"o":"m 24 10 b 96 350 92 29 96 49 l 96 692 b 24 1032 96 993 92 1013 l 24 1042 l 351 1042 l 351 1032 b 276 692 281 1014 276 993 l 276 13 l 444 13 b 743 211 642 13 692 49 l 758 211 l 724 25 b 699 0 718 -1 714 0 l 24 0 l 24 10 m 568 444 b 475 538 514 444 475 483 b 568 632 475 592 514 632 b 663 538 624 632 663 592 b 568 444 663 483 624 444 "},"Ŋ":{"ha":890,"x_min":0,"x_max":0,"o":"m 24 10 b 96 356 92 43 96 63 l 96 692 b 24 1032 96 992 92 1013 l 24 1042 l 272 1042 b 326 1000 296 1042 300 1039 l 792 300 l 792 686 b 714 1032 792 978 786 999 l 714 1042 l 878 1042 l 878 1032 b 806 686 810 999 806 979 l 806 -31 b 644 -189 806 -125 746 -189 b 429 -61 533 -189 429 -139 b 496 -1 429 -21 457 -1 b 569 -78 539 -1 557 -21 b 646 -176 586 -146 600 -176 b 792 -28 740 -176 792 -117 l 792 -22 l 110 1013 l 110 356 b 192 10 110 63 114 43 l 192 0 l 24 0 l 24 10 "},"Ŧ":{"ha":881,"x_min":0,"x_max":0,"o":"m 871 825 l 857 825 b 600 1029 821 994 758 1029 l 529 1029 l 529 596 l 724 596 l 724 583 l 529 583 l 529 350 b 601 10 529 50 533 29 l 601 0 l 276 0 l 276 10 b 349 350 344 29 349 50 l 349 583 l 154 583 l 154 596 l 349 596 l 349 1029 l 282 1029 b 24 825 119 1029 57 997 l 10 825 l 29 1013 b 53 1042 33 1042 38 1042 l 825 1042 b 849 1013 840 1042 844 1042 "},"đ":{"ha":746,"x_min":0,"x_max":0,"o":"m 667 786 l 667 213 b 728 10 667 46 668 25 l 728 0 l 510 0 l 510 110 l 497 96 b 299 -10 443 36 386 -10 b 40 303 171 -10 40 92 b 361 657 40 531 192 657 b 510 604 422 657 472 633 l 510 783 l 510 786 l 332 786 l 332 799 l 510 799 b 453 951 510 943 508 947 l 453 963 l 667 1078 l 667 799 l 765 799 l 765 786 m 510 588 b 364 644 467 621 424 644 b 206 321 269 644 206 547 b 342 18 206 88 269 18 b 497 113 396 18 443 51 l 510 126 "},"ħ":{"ha":713,"x_min":0,"x_max":0,"o":"m 640 213 b 696 10 640 46 640 25 l 696 0 l 421 0 l 421 10 b 482 213 479 24 482 46 l 482 528 b 415 621 482 599 450 621 b 264 525 376 621 329 590 l 233 496 l 233 213 b 294 10 233 46 235 25 l 294 0 l 21 0 l 21 10 b 76 213 75 24 76 46 l 76 783 l 76 786 l -22 786 l -22 799 l 76 799 b 19 951 76 943 75 947 l 19 963 l 233 1078 l 233 799 l 411 799 l 411 786 l 233 786 l 233 513 l 264 542 b 479 658 336 613 394 658 b 640 483 560 658 640 619 l 640 213 "},"ĳ":{"ha":624,"x_min":0,"x_max":0,"o":"m 156 739 b 68 828 107 739 68 779 b 156 914 68 876 107 914 b 244 828 206 914 244 876 b 156 739 244 779 206 739 m 465 739 b 378 828 417 739 378 779 b 465 914 378 876 417 914 b 554 828 515 914 554 876 b 465 739 554 779 515 739 m 19 10 b 78 213 75 25 78 46 l 78 365 b 21 538 78 528 78 531 l 21 549 l 235 667 l 235 213 b 296 10 235 46 236 25 l 296 0 l 19 0 l 19 10 m 269 -193 b 207 -136 238 -193 207 -174 b 257 -86 207 -103 229 -86 b 356 -153 303 -86 328 -153 b 368 -147 361 -153 364 -151 b 388 -10 383 -136 388 -103 l 388 364 b 331 538 388 528 388 531 l 331 549 l 544 667 l 544 128 b 404 -140 544 17 510 -64 b 269 -193 344 -183 313 -193 "},"ŀ":{"ha":431,"x_min":0,"x_max":0,"o":"m 21 10 b 78 213 76 25 78 46 l 78 783 b 19 951 78 943 79 947 l 19 963 l 236 1078 l 236 213 b 300 10 236 46 239 24 l 300 0 l 21 0 l 21 10 m 372 418 b 278 511 318 418 278 457 b 372 606 278 565 318 606 b 465 511 426 606 465 565 b 372 418 465 457 426 418 "},"ŉ":{"ha":718,"x_min":0,"x_max":0,"o":"m 43 926 b -17 899 32 911 15 899 b -90 976 -57 899 -90 932 b -6 1060 -90 1028 -51 1060 b 90 947 40 1060 90 1025 b -49 747 90 847 31 785 l -54 757 b 57 892 17 794 57 840 b 43 926 57 908 53 919 m 21 10 b 76 213 75 24 76 46 l 76 365 b 19 538 76 528 76 531 l 19 549 l 233 667 l 233 508 l 268 542 b 485 658 340 613 400 658 b 646 483 564 658 646 619 l 646 213 b 701 10 646 46 646 25 l 701 0 l 425 0 l 425 10 b 488 213 481 25 488 46 l 488 528 b 419 621 488 599 457 621 b 268 525 382 621 335 590 l 233 492 l 233 213 b 294 10 233 46 235 25 l 294 0 l 21 0 l 21 10 "},"ŋ":{"ha":717,"x_min":0,"x_max":0,"o":"m 21 10 b 76 213 75 24 76 46 l 76 365 b 19 538 76 528 76 531 l 19 549 l 233 667 l 233 508 l 268 542 b 485 658 340 613 400 658 b 646 483 564 658 646 619 l 646 128 b 506 -140 646 17 611 -64 b 369 -193 446 -183 413 -193 b 308 -136 338 -193 308 -174 b 357 -86 308 -103 331 -86 b 456 -153 404 -86 426 -153 b 469 -147 460 -153 464 -151 b 488 -10 485 -136 488 -103 l 488 528 b 419 621 488 599 457 621 b 268 525 382 621 335 590 l 233 492 l 233 213 b 294 10 233 46 235 25 l 294 0 l 21 0 l 21 10 "},"ŧ":{"ha":400,"x_min":0,"x_max":0,"o":"m 388 43 b 250 -10 372 25 339 -10 b 82 142 139 -10 82 51 l 82 419 l 28 419 l 28 433 l 82 433 l 82 633 l 25 633 l 25 646 b 226 876 108 657 196 733 l 239 876 l 239 647 l 376 647 l 376 633 l 239 633 l 239 433 l 372 433 l 372 419 l 239 419 l 239 168 b 307 15 239 58 246 15 b 381 49 339 15 365 32 "},"ﬀ":{"ha":724,"x_min":0,"x_max":0,"o":"m 376 10 b 432 213 431 24 432 46 l 432 633 l 244 633 l 244 213 b 325 10 244 46 246 25 l 325 0 l 31 0 l 31 10 b 86 213 85 24 86 46 l 86 633 l 21 633 l 21 644 b 88 729 81 654 88 672 l 88 781 b 333 1051 88 993 238 1051 b 486 978 413 1051 469 1022 b 661 1058 536 1038 607 1058 b 814 969 746 1058 814 1031 b 760 921 814 947 799 921 b 693 978 715 921 700 938 b 654 1046 683 1033 676 1046 b 590 872 614 1046 590 1011 l 590 647 l 714 647 l 714 633 l 590 633 l 590 213 b 671 10 590 46 592 25 l 671 0 l 376 0 l 376 10 m 432 808 b 446 901 432 846 436 875 l 442 901 b 381 958 401 901 388 921 b 326 1039 365 1026 361 1039 b 244 861 272 1039 244 996 l 244 647 l 432 647 "},"ﬃ":{"ha":1015,"x_min":0,"x_max":0,"o":"m 31 10 b 86 213 85 24 86 46 l 86 633 l 21 633 l 21 644 b 88 729 81 654 88 672 l 88 781 b 333 1051 88 993 238 1051 b 486 978 415 1051 469 1022 b 660 1058 536 1038 606 1058 b 800 976 738 1058 800 1032 b 747 928 800 953 785 928 b 688 985 707 928 694 946 b 653 1046 678 1033 675 1046 b 590 872 613 1046 590 1011 l 590 647 l 721 647 l 935 667 l 935 213 b 996 10 935 46 936 25 l 996 0 l 721 0 l 721 10 b 778 213 776 25 778 46 l 778 461 b 721 633 778 624 778 626 l 590 633 l 590 213 b 671 10 590 46 592 25 l 671 0 l 376 0 l 376 10 b 432 213 431 24 432 46 l 432 633 l 244 633 l 244 213 b 325 10 244 46 246 25 l 325 0 l 31 0 l 31 10 m 432 807 b 446 901 432 844 436 875 l 442 901 b 381 958 401 901 388 921 b 326 1039 365 1026 361 1039 b 244 861 272 1039 244 996 l 244 647 l 432 647 m 860 731 b 772 819 811 731 772 769 b 860 904 772 868 811 904 b 947 819 908 904 947 868 b 860 731 947 771 908 731 "},"ﬄ":{"ha":1017,"x_min":0,"x_max":0,"o":"m 935 213 b 999 10 935 46 938 24 l 999 0 l 719 0 l 719 10 b 776 213 775 25 776 46 l 776 783 b 772 913 776 849 776 889 l 771 913 b 713 969 732 913 718 929 b 665 1040 703 1029 693 1040 b 590 882 615 1040 590 999 l 590 647 l 708 647 l 708 633 l 590 633 l 590 213 b 671 10 590 46 592 25 l 671 0 l 376 0 l 376 10 b 432 213 431 24 432 46 l 432 633 l 244 633 l 244 213 b 325 10 244 46 246 25 l 325 0 l 31 0 l 31 10 b 86 213 85 24 86 46 l 86 633 l 21 633 l 21 644 b 88 729 81 654 88 672 l 88 779 b 333 1050 88 990 238 1050 b 489 971 417 1050 474 1019 b 672 1053 540 1032 613 1053 b 807 1010 733 1053 782 1038 l 935 1078 l 935 213 m 432 788 b 450 900 432 832 439 868 l 442 900 b 381 957 403 900 390 919 b 328 1038 369 1025 361 1038 b 244 860 272 1038 244 994 l 244 647 l 432 647 l 432 788 "},"⅓":{"ha":690,"x_min":0,"x_max":0,"o":"m 242 656 b 296 819 292 663 296 669 l 296 963 b 240 1064 296 1058 292 1064 l 240 1072 l 397 1172 l 397 819 b 449 656 397 669 400 663 l 449 646 l 242 646 m 603 526 l 603 515 l 88 515 l 88 526 m 197 375 b 210 396 203 393 203 396 l 518 396 l 518 389 l 293 188 b 361 203 310 197 333 203 b 531 47 468 203 531 154 b 315 -124 531 -49 456 -124 b 160 -35 217 -124 160 -78 b 206 7 160 -14 174 7 b 250 -29 232 7 247 -6 b 315 -114 254 -56 249 -114 b 425 47 397 -114 425 -47 b 351 192 425 129 414 192 b 250 149 308 192 278 172 l 243 156 l 414 310 l 318 310 b 178 272 197 310 192 304 l 169 272 l 197 375 "},"⅔":{"ha":690,"x_min":0,"x_max":0,"o":"m 347 732 b 524 769 497 732 508 736 l 532 769 l 508 668 b 492 646 504 650 501 646 l 154 646 l 294 803 b 406 1036 376 897 406 951 b 321 1156 406 1113 381 1156 b 265 1081 271 1156 269 1114 b 215 1036 261 1053 249 1036 b 174 1081 192 1036 174 1051 b 322 1165 174 1115 222 1165 b 514 1032 406 1165 514 1136 b 342 804 514 947 439 875 l 246 732 l 347 732 m 603 526 l 603 515 l 88 515 l 88 526 m 197 375 b 210 396 203 393 203 396 l 518 396 l 518 389 l 293 188 b 361 203 310 197 333 203 b 531 47 468 203 531 154 b 315 -124 531 -49 456 -124 b 160 -35 217 -124 160 -78 b 206 7 160 -14 174 7 b 250 -29 232 7 247 -6 b 315 -114 254 -56 249 -114 b 425 47 397 -114 425 -47 b 351 192 425 129 414 192 b 250 149 308 192 278 172 l 243 156 l 414 310 l 318 310 b 178 272 197 310 192 304 l 169 272 l 197 375 "},"⅛":{"ha":690,"x_min":0,"x_max":0,"o":"m 242 656 b 296 819 292 663 296 669 l 296 963 b 240 1064 296 1058 292 1064 l 240 1072 l 397 1172 l 397 819 b 449 656 397 669 400 663 l 449 646 l 242 646 m 603 526 l 603 515 l 88 515 l 88 526 m 528 24 b 346 -124 528 -60 450 -124 b 161 8 239 -124 161 -61 b 282 138 161 69 203 106 b 181 275 204 182 181 215 b 344 399 181 357 261 399 b 508 292 451 399 508 346 b 406 183 508 238 457 204 b 528 24 494 133 528 94 m 397 188 b 440 288 426 208 440 242 b 344 389 440 356 408 389 b 251 319 285 389 251 364 b 365 204 251 265 288 244 l 397 188 m 346 -114 b 446 -22 422 -114 446 -71 b 325 114 446 44 408 69 l 293 131 b 239 6 257 107 239 65 b 346 -114 239 -65 264 -114 "},"⅜":{"ha":690,"x_min":0,"x_max":0,"o":"m 197 1140 b 210 1161 203 1158 203 1161 l 518 1161 l 518 1154 l 293 953 b 361 968 310 963 333 968 b 531 813 468 968 531 919 b 315 642 531 717 456 642 b 160 731 217 642 160 688 b 206 772 160 751 174 772 b 250 736 232 772 247 760 b 315 651 254 710 249 651 b 425 813 397 651 425 718 b 351 957 425 894 414 957 b 250 914 308 957 278 938 l 243 921 l 414 1075 l 318 1075 b 178 1038 197 1075 192 1069 l 169 1038 l 197 1140 m 603 526 l 603 515 l 88 515 l 88 526 m 528 24 b 346 -124 528 -60 450 -124 b 161 8 239 -124 161 -61 b 282 138 161 69 203 106 b 181 275 204 182 181 215 b 344 399 181 357 261 399 b 508 292 451 399 508 346 b 406 183 508 238 457 204 b 528 24 494 133 528 94 m 397 188 b 440 288 426 208 440 242 b 344 389 440 356 408 389 b 251 319 285 389 251 364 b 365 204 251 265 288 244 l 397 188 m 346 -114 b 446 -22 422 -114 446 -71 b 325 114 446 44 408 69 l 293 131 b 239 6 257 107 239 65 b 346 -114 239 -65 264 -114 "},"⅝":{"ha":690,"x_min":0,"x_max":0,"o":"m 214 942 b 332 976 242 963 286 976 b 526 825 436 976 526 931 b 308 643 526 724 438 643 b 160 732 221 643 160 683 b 203 774 160 758 176 774 b 249 732 231 774 244 758 b 308 653 253 703 244 653 b 421 825 383 653 421 735 b 332 967 421 914 393 967 b 206 925 276 967 229 947 l 200 928 l 200 929 l 260 1161 l 518 1161 l 494 1090 b 481 1076 490 1078 490 1076 l 249 1076 m 603 526 l 603 515 l 88 515 l 88 526 m 528 24 b 346 -124 528 -60 450 -124 b 161 8 239 -124 161 -61 b 282 138 161 69 203 106 b 181 275 204 182 181 215 b 344 399 181 357 261 399 b 508 292 451 399 508 346 b 406 183 508 238 457 204 b 528 24 494 133 528 94 m 397 188 b 440 288 426 208 440 242 b 344 389 440 356 408 389 b 251 319 285 389 251 364 b 365 204 251 265 288 244 l 397 188 m 346 -114 b 446 -22 422 -114 446 -71 b 325 114 446 44 408 69 l 293 131 b 239 6 257 107 239 65 b 346 -114 239 -65 264 -114 "},"⅞":{"ha":690,"x_min":0,"x_max":0,"o":"m 299 646 l 476 1076 l 311 1076 b 186 1039 206 1076 201 1074 l 176 1039 l 207 1143 b 224 1161 211 1156 213 1161 l 519 1161 l 519 1154 l 310 646 m 603 526 l 603 515 l 88 515 l 88 526 m 528 24 b 346 -124 528 -60 450 -124 b 161 8 239 -124 161 -61 b 282 138 161 69 203 106 b 181 275 204 182 181 215 b 344 399 181 357 261 399 b 508 292 451 399 508 346 b 406 183 508 238 457 204 b 528 24 494 133 528 94 m 397 188 b 440 288 426 208 440 242 b 344 389 440 356 408 389 b 251 319 285 389 251 364 b 365 204 251 265 288 244 l 397 188 m 346 -114 b 446 -22 422 -114 446 -71 b 325 114 446 44 408 69 l 293 131 b 239 6 257 107 239 65 b 346 -114 239 -65 264 -114 "},"′":{"ha":240,"x_min":0,"x_max":0,"o":"m 53 756 b 58 956 63 826 58 899 b 132 1053 58 1021 86 1053 b 201 983 175 1053 201 1026 b 144 872 201 951 178 915 b 63 753 117 838 89 801 l 53 756 "},"″":{"ha":421,"x_min":0,"x_max":0,"o":"m 53 756 b 58 956 63 826 58 899 b 132 1053 58 1021 86 1053 b 201 983 175 1053 201 1026 b 144 872 201 951 178 915 b 63 753 117 838 89 801 l 53 756 m 233 756 b 239 956 243 826 239 899 b 313 1053 239 1021 267 1053 b 382 983 356 1053 382 1026 b 325 872 382 951 358 915 b 243 753 297 838 269 801 l 233 756 "},"Ⓟ":{"ha":1161,"x_min":0,"x_max":0,"o":"m 582 1054 b 1117 519 875 1054 1117 814 b 582 -15 1117 226 875 -15 b 44 519 286 -15 44 226 b 582 1054 44 814 286 1054 m 582 -3 b 1103 519 865 -3 1103 231 b 582 1042 1103 808 865 1042 b 57 519 299 1042 57 813 b 582 -3 57 226 299 -3 m 374 214 b 417 415 413 225 417 238 l 417 621 b 374 822 417 799 413 811 l 374 831 l 611 831 b 853 672 751 831 853 789 b 613 494 853 551 747 494 l 539 494 l 539 415 b 586 214 539 238 542 225 l 586 206 l 374 206 l 374 214 m 539 504 l 610 504 b 738 663 683 504 738 542 b 611 821 738 785 682 821 l 539 821 "}}}
